<svg id="OBJECTS" xmlns="http://www.w3.org/2000/svg" viewBox="0 0 714.76 402.19"><defs><style>.cls-1{fill:#084296;}</style></defs><path class="cls-1" d="M463.22,90c.08-1.54-.19-3.2.31-4.58,1.42-4,3-7.84,4.8-11.65a5.45,5.45,0,0,0-.57-6c-2.52-3.63-4.93-7.33-7.18-11.13a4.31,4.31,0,0,1-.34-3.49c.34-.7,2-1.13,3-1.08,4.63.21,9.24.81,13.85.88a6.47,6.47,0,0,0,4.35-1.86c3.12-3.41,5.84-7.17,8.86-10.68.67-.78,2.1-1.67,2.86-1.45a4.2,4.2,0,0,1,2.31,2.6c1.24,4.35,2.28,8.75,3.23,13.17a4.94,4.94,0,0,0,3.56,4.09q6.28,2.15,12.4,4.72c1.05.44,2.52,1.62,2.52,2.45a4.72,4.72,0,0,1-2.09,3.17c-3.75,2.53-7.77,4.66-11.46,7.27a6.42,6.42,0,0,0-2.37,4.06c-.52,4.59-.51,9.23-.93,13.84a4.24,4.24,0,0,1-1.71,3c-.69.37-2.28-.23-3.08-.88-3.7-2.95-7.2-6.15-10.93-9.07a5.07,5.07,0,0,0-3.72-1.06c-5.32,1.27-10.57,2.86-15.84,4.33Z"/><path class="cls-1" d="M40,70a9.36,9.36,0,0,1,.17-2.56c.79-2.2,1.69-4.37,2.67-6.5a3,3,0,0,0-.31-3.34c-1.41-2-2.76-4.1-4-6.21a2.36,2.36,0,0,1-.19-2c.19-.39,1.1-.63,1.67-.6,2.58.11,5.15.45,7.73.48a3.56,3.56,0,0,0,2.43-1c1.73-1.91,3.25-4,4.93-6,.38-.44,1.17-.94,1.6-.81A2.34,2.34,0,0,1,57.93,43c.69,2.42,1.27,4.88,1.8,7.35a2.75,2.75,0,0,0,2,2.27c2.34.8,4.64,1.68,6.92,2.63.59.25,1.41.91,1.4,1.37a2.62,2.62,0,0,1-1.16,1.77c-2.09,1.41-4.33,2.6-6.39,4.06a3.54,3.54,0,0,0-1.32,2.26c-.29,2.56-.28,5.16-.52,7.72a2.38,2.38,0,0,1-.95,1.69c-.39.2-1.27-.13-1.72-.49-2.07-1.65-4-3.44-6.1-5.07A2.84,2.84,0,0,0,49.81,68c-3,.71-5.9,1.59-8.84,2.42Z"/><path class="cls-1" d="M614.06,63.32a9.09,9.09,0,0,1-.41-2.53c.26-2.33.65-4.64,1.12-6.94a3,3,0,0,0-1.06-3.18c-1.83-1.65-3.61-3.36-5.32-5.14a2.41,2.41,0,0,1-.62-1.85c.09-.42.92-.87,1.49-1,2.54-.47,5.12-.73,7.64-1.28A3.63,3.63,0,0,0,619,39.87c1.26-2.25,2.26-4.64,3.46-6.92.26-.52.93-1.18,1.37-1.15a2.35,2.35,0,0,1,1.59,1.11c1.22,2.21,2.34,4.47,3.42,6.75a2.76,2.76,0,0,0,2.45,1.77c2.46.24,4.9.58,7.33,1,.63.11,1.58.56,1.68,1a2.59,2.59,0,0,1-.73,2c-1.71,1.85-3.63,3.52-5.3,5.4a3.55,3.55,0,0,0-.77,2.51c.29,2.56.89,5.08,1.25,7.63a2.39,2.39,0,0,1-.55,1.86c-.33.29-1.27.16-1.79-.09-2.38-1.13-4.69-2.43-7.08-3.54a2.86,2.86,0,0,0-2.16-.11c-2.73,1.37-5.38,2.9-8.05,4.37Z"/><path class="cls-1" d="M17.78,279.54A18.05,18.05,0,0,1,30,270.48c14-3.22,27.88-6.81,41.77-10.24-2.36-5.33-4.7-10.42-6.88-15.58-4.45-10.52-3.68-21.15-.73-31.88,2.67-9.73,6.29-19.33,5.49-30.53L81,191c3.87-18.42,14.28-32.74,27.92-45.15,3.74-3.41,6.73-7.64,10.23-11.69,12.44,10,19.54,23.09,21.15,39.29l1.14.16,4.74-9.28c16,19.58,31.69,56.78,7.13,99.22l35,11.63c2.92,1,6.25,1.35,8.66,3.05,3.22,2.27,5.72,5.56,8.52,8.41v2.65c-.56,1.94-1.13,3.88-1.69,5.83-1.38,4.79-7.72,9.53-12.4,8.65A51.41,51.41,0,0,1,178.87,300c-14.14-6.78-28.08-14-42.13-20.94a30.79,30.79,0,0,0-4.51-1.44c.59,2.59,1.87,4.21,2.74,6,3.42,7.09,6.93,14.14,10,21.39,1.81,4.32-.5,11.45-3.83,14.06-5.75,4.49-9.38,4.57-15.3,1.41-4.08-2.17-6.27-4.87-6-9.6a35.74,35.74,0,0,0-.75-6.55q-1.52-11.46-3-22.95a22.49,22.49,0,0,1-3.12-.19c-4.08-.91-5.87.39-6.57,4.83-1.42,9-3.59,17.81-5.48,26.7-.8,3.79-9.53,9.3-13.32,8.46-9-2-13.83-11.92-10.19-20.53,3.21-7.62,7-14.82,12.55-21a43.22,43.22,0,0,0,2.84-4.25c-2.92.88-4.58,1.24-6.13,1.86-15,6-29.81,12.28-44.85,18-6.82,2.61-14.24,4.32-19.81-2.48-2.14-2.62-2.79-6.45-4.12-9.73Zm104.33-88.43c-5.13,4-10.11,7.66-14.79,11.65-6.75,5.77-12.51,12.35-15.73,20.87-2.57,6.82-4.65,8-12.14,7-.79,7.59,2.18,13.82,7.08,19.18,7.1,7.77,15.93,11.85,26.49,13.3,16,2.21,23.48-2.33,27.24-18.06a38,38,0,0,0,1-7C142.21,219.6,132.73,205.41,122.11,191.11Z"/><path class="cls-1" d="M144.68,130.58V144.8c-5.85-4.13-6.49-9.43-2.65-14.22Z"/><path class="cls-1" d="M70.27,145.23c3.26,6.91,0,13.19.26,20.37-4.59-2.53-5.91-6.09-6.28-10C63.84,151.14,65.62,147.69,70.27,145.23Z"/><path class="cls-1" d="M153.1,156.93c-1.75-6.15.51-11,4.84-12.27,1-.3,2.62-.33,3.16.25a3.23,3.23,0,0,1,.09,3.16C158.85,150.94,156.22,153.57,153.1,156.93Z"/><path class="cls-1" d="M139,82.22l-.69-2.6a26.07,26.07,0,0,1,4.18-2.45,79.53,79.53,0,0,1,10.89-3.35c3.72-.76,5.28-2.87,6.26-6.35C161,62.57,163,57.84,164.71,53l1.3-.34a23.12,23.12,0,0,1,3.1,2.9q4,5.4,7.72,11a5.22,5.22,0,0,0,5,2.57c4.59-.16,9.19-.22,13.78-.07a4.89,4.89,0,0,1,3.57,1.63c.45.72-.24,2.55-.92,3.53-2.64,3.77-5.41,7.45-8.27,11a5.12,5.12,0,0,0-.9,5.57c1.58,4.2,3,8.46,4.26,12.77a5.5,5.5,0,0,1-.38,4.25c-.52.67-2.68.52-3.93.14-4.18-1.26-8.33-2.67-12.41-4.25a5.58,5.58,0,0,0-6.19.89,119.57,119.57,0,0,1-9.71,7.21c-1.44,1-3.33,1.22-5,1.8-.45-1.62-1.25-3.24-1.3-4.87-.13-4.48.14-9,.06-13.45a4.47,4.47,0,0,0-1.29-3.17C148.55,88.76,143.73,85.53,139,82.22Z"/><path class="cls-1" d="M703.18,222.42c-4,2.83-8,5.62-12,8.48-2.49,1.8-2.28,4.28.49,5.84,2.18,1.22,4.41,2.34,6.61,3.51L697.7,242l-9-3.27a67.21,67.21,0,0,1-21.3,35l10.83,5.12c-1.12.66-1.85,1.45-2.41,1.35-1.54-.28-3-1-4.53-1.43-2.54-.73-5.11-1.37-7.67-2-.08,2.69-.27,5.38-.21,8.07s.36,5.5.55,8.24l-2,.32c-.62-4.38-1.24-8.76-2-13.92-10.85,6.57-22.21,10.53-35,9.85v33.07l7.94-6.76,1.08.51c-.26.88-.26,2-.82,2.6-2.11,2.17-4.48,4.08-6.6,6.24-3,3.1-2.56,7,1,9.49,2.48,1.72,5,3.39,7.43,5.21a8.41,8.41,0,0,1,1.49,2.24l-.94,1.05-10.26-6.52c0,5.78-.13,11.13,0,16.46.35,11.63.73,23.27,1.36,34.88.17,3.09-.92,4.6-3.61,5.75-9.21,3.92-18.63,5.22-28.49,3-3.24-.73-5-1.92-5.59-5.76-2.17-15.29-4.85-30.51-7.36-45.75-.23-1.4-.6-2.77-1-4.47-25.24,5.57-45.67-3.14-63.29-21.21l-4.53,10.19c-3-5.88,6.31-11.52-1.25-17.44l-14.14,9.13-1.22-1.73,13.59-9.87-10.2-25.39c-4.7,1-8.5,5.66-13.69,6.38l-.73-1.76q5.74-3.21,11.5-6.4c3.45-1.91,3.57-6,.15-8.16-3.86-2.46-7.8-4.81-11.8-7.26,2.24-1.89,2.23-1.88,6.21.68,2.13,1.36,4.29,2.68,7,4.4.92-9.6,5.67-15.75,14.85-18.28l-3.36-10.81,1.93-.81c1.56,3.8,3.12,7.59,4.81,11.72,7-2.13,7.25-9.79,11.23-14.05l1.76,1.13-6.77,13.3c10,3.68,12.56,11.82,13.12,21.83.74,13.43,5.68,25.16,17.51,32.87a27.17,27.17,0,0,0,23,3.65c-1.92-12.31-3.81-24.47-5.82-37.37l-8.67,5.55-1.31-1.56a53.1,53.1,0,0,1,5.81-4.53c2.86-1.67,3.69-3.58,3.14-7-.57-3.55-1.51-5.48-5.36-6.54s-7-3.66-10.39-5.59l.9-1.87,13.34,6.39c-1.63-14-3.13-26.95-4.66-40.23H547.36l-.12-1.31c4.8-2.75,10.37-1.55,17-2-1.41-2-2.13-3.5-3.26-4.54-4-3.67-8.11-7.16-12.12-10.79a7.67,7.67,0,0,1-1.18-2.15L548.8,198l14,12.32c.53-6.39.52-11.9,1.55-17.22,1.18-6,3.42-11.86,4.9-17.85a6.4,6.4,0,0,0-.83-4.69,89.42,89.42,0,0,0-6.51-7.43l.95-.93,7.71,9.29c9.18-6.6,3.36-13.69,4.74-20.8,4,4.5,2.73,9.45,3.86,14,9.76-3.88,19.26-3.5,28.48,2.47l3.77-10.41,1.67.35c.55,5.84-6.83,12.83,2.25,17.56l8.38-7.22,1.36,1.45-8.41,8.8c11.77,26.7,10.22,54.94,9.2,83.07,13.58,1.4,28.46-13.68,28.17-28.62l-9.16,2-.6-1.89,9.76-3.36c1.33-4.84-1-7.62-5-9.94a41.15,41.15,0,0,1-9.66-7.9c5.14.19,8.17,4.93,13,6.42.37-9.46,4.69-16.09,13.54-19.33l-2.52-11.14,1.91-.41c.93,2.76,1.57,5.66,2.92,8.2a5.65,5.65,0,0,0,4,2.61c1,.06,2.61-1.66,3.15-2.93,1.31-3.09,2.15-6.37,3.19-9.57l2.16.56c-1.11,4.13-2.22,8.25-3.51,13,13.69,5.31,12.85,17.54,13,30.25,3.29-2.47,5.8-4.6,8.57-6.32,1.16-.73,2.86-.59,4.32-.85Z"/></svg>