<svg xmlns="http://www.w3.org/2000/svg" xmlns:xlink="http://www.w3.org/1999/xlink" viewBox="0 0 1810.68 897.15"><defs><style>.cls-1,.cls-35{fill:#fff;}.cls-1{filter:url(#luminosity-invert-noclip);}.cls-2{isolation:isolate;}.cls-3{fill:url(#linear-gradient);}.cls-4{fill:url(#linear-gradient-2);}.cls-10,.cls-11,.cls-12,.cls-19,.cls-21,.cls-22,.cls-23,.cls-24,.cls-25,.cls-26,.cls-27,.cls-28,.cls-29,.cls-30,.cls-31,.cls-32,.cls-37,.cls-42,.cls-46,.cls-48,.cls-5,.cls-6,.cls-60,.cls-7,.cls-8,.cls-9{mix-blend-mode:multiply;}.cls-10,.cls-11,.cls-21,.cls-22,.cls-23,.cls-24,.cls-25,.cls-26,.cls-27,.cls-28,.cls-29,.cls-30,.cls-31,.cls-32,.cls-5,.cls-6,.cls-7,.cls-8,.cls-9{opacity:0.4;}.cls-5{fill:url(#linear-gradient-3);}.cls-6{fill:url(#linear-gradient-4);}.cls-7{fill:url(#linear-gradient-5);}.cls-8{fill:url(#linear-gradient-6);}.cls-9{fill:url(#linear-gradient-7);}.cls-10{fill:url(#linear-gradient-8);}.cls-11{fill:url(#linear-gradient-9);}.cls-12,.cls-19,.cls-60{opacity:0.3;}.cls-12{fill:url(#linear-gradient-10);}.cls-13{fill:url(#linear-gradient-11);}.cls-14{fill:url(#linear-gradient-12);}.cls-15{fill:url(#linear-gradient-13);}.cls-16{fill:url(#linear-gradient-14);}.cls-17{fill:url(#linear-gradient-15);}.cls-18{fill:url(#linear-gradient-16);}.cls-19{fill:url(#linear-gradient-17);}.cls-20{fill:url(#linear-gradient-18);}.cls-21{fill:url(#linear-gradient-19);}.cls-22{fill:url(#linear-gradient-20);}.cls-23{fill:url(#linear-gradient-21);}.cls-24{fill:url(#linear-gradient-22);}.cls-25{fill:url(#linear-gradient-23);}.cls-26{fill:url(#linear-gradient-24);}.cls-27{fill:url(#linear-gradient-25);}.cls-28{fill:url(#linear-gradient-26);}.cls-29{fill:url(#linear-gradient-27);}.cls-30{fill:url(#linear-gradient-28);}.cls-31{fill:url(#linear-gradient-29);}.cls-32{fill:url(#linear-gradient-30);}.cls-33{mask:url(#mask);}.cls-34{fill:#ff0142;}.cls-36{fill:#88bd18;}.cls-38{fill:url(#radial-gradient);}.cls-39{fill:url(#linear-gradient-31);}.cls-40{fill:url(#linear-gradient-32);}.cls-41{fill:url(#linear-gradient-33);}.cls-42,.cls-43{fill:#fce000;}.cls-44{fill:url(#linear-gradient-34);}.cls-45{fill:url(#linear-gradient-35);}.cls-46{opacity:0.25;fill:url(#linear-gradient-36);}.cls-47{fill:url(#linear-gradient-37);}.cls-48{opacity:0.2;fill:url(#linear-gradient-38);}.cls-49{fill:url(#linear-gradient-39);}.cls-50{fill:url(#linear-gradient-40);}.cls-51{fill:url(#linear-gradient-41);}.cls-52{fill:url(#linear-gradient-42);}.cls-53{fill:url(#linear-gradient-43);}.cls-54{fill:url(#linear-gradient-44);}.cls-55{fill:url(#linear-gradient-45);}.cls-56{fill:url(#linear-gradient-46);}.cls-57{fill:url(#linear-gradient-47);}.cls-58{fill:url(#linear-gradient-48);}.cls-59{fill:url(#linear-gradient-49);}.cls-60{fill:url(#linear-gradient-50);}.cls-61{fill:url(#linear-gradient-51);}</style><linearGradient id="linear-gradient" x1="3.05" y1="455.05" x2="3.05" y2="693.05" gradientTransform="translate(220.68 -344.94) rotate(-11.52)" gradientUnits="userSpaceOnUse"><stop offset="0" stop-color="#ff0"/><stop offset="0.16" stop-color="#feee04"/><stop offset="0.46" stop-color="#fac00d"/><stop offset="0.9" stop-color="#f4781d"/><stop offset="1" stop-color="#f26521"/></linearGradient><linearGradient id="linear-gradient-2" x1="76.29" y1="503.92" x2="-82.65" y2="707.87" gradientTransform="translate(220.68 -344.94) rotate(-11.52)" gradientUnits="userSpaceOnUse"><stop offset="0" stop-color="#ff9800"/><stop offset="0.41" stop-color="#fa8700"/><stop offset="1" stop-color="#f06700"/></linearGradient><linearGradient id="linear-gradient-3" x1="-64.48" y1="536.29" x2="-119.85" y2="587.57" gradientTransform="translate(220.68 -344.94) rotate(-11.52)" gradientUnits="userSpaceOnUse"><stop offset="0" stop-color="#ffb000"/><stop offset="0.29" stop-color="#fc9f08"/><stop offset="0.86" stop-color="#f4721b"/><stop offset="1" stop-color="#f26521"/></linearGradient><linearGradient id="linear-gradient-4" x1="-37.16" y1="537.76" x2="-92.53" y2="589.04" xlink:href="#linear-gradient-3"/><linearGradient id="linear-gradient-5" x1="-4838.82" y1="519.43" x2="-4895.3" y2="571.73" gradientTransform="matrix(-0.98, 0.2, 0.2, 0.98, -4472.26, 611.32)" xlink:href="#linear-gradient-3"/><linearGradient id="linear-gradient-6" x1="-7.67" y1="541.79" x2="-60.62" y2="590.82" xlink:href="#linear-gradient-3"/><linearGradient id="linear-gradient-7" x1="-11.62" y1="534.83" x2="-108.77" y2="534.83" xlink:href="#linear-gradient-3"/><linearGradient id="linear-gradient-8" x1="55.58" y1="554.82" x2="-124.5" y2="554.82" xlink:href="#linear-gradient-3"/><linearGradient id="linear-gradient-9" x1="48.16" y1="577.67" x2="-131.93" y2="577.67" xlink:href="#linear-gradient-3"/><linearGradient id="linear-gradient-10" x1="150.56" y1="595.39" x2="-160.54" y2="595.39" gradientTransform="translate(220.68 -344.94) rotate(-11.52)" gradientUnits="userSpaceOnUse"><stop offset="0" stop-color="#ff7f00"/><stop offset="0.23" stop-color="#ee7806"/><stop offset="0.69" stop-color="#c16717"/><stop offset="1" stop-color="#9e5923"/></linearGradient><linearGradient id="linear-gradient-11" x1="189.19" y1="571.19" x2="165.46" y2="476.24" gradientTransform="translate(220.68 -344.94) rotate(-11.52)" gradientUnits="userSpaceOnUse"><stop offset="0" stop-color="#e93326"/><stop offset="0.19" stop-color="#ec4420"/><stop offset="0.57" stop-color="#f57212"/><stop offset="1" stop-color="#ffab00"/></linearGradient><linearGradient id="linear-gradient-12" x1="769.4" y1="-601.51" x2="745.66" y2="-696.45" gradientTransform="translate(-257.76 570.94) rotate(11.2)" xlink:href="#linear-gradient-11"/><linearGradient id="linear-gradient-13" x1="-288.34" y1="662.61" x2="-297.61" y2="574.78" xlink:href="#linear-gradient-11"/><linearGradient id="linear-gradient-14" x1="798.03" y1="-578.76" x2="788.59" y2="-668.13" gradientTransform="matrix(0.98, 0.19, -0.19, 0.98, -252.41, 569.1)" xlink:href="#linear-gradient-11"/><linearGradient id="linear-gradient-15" x1="-2.91" y1="126.94" x2="-2.91" y2="1422.23" xlink:href="#linear-gradient"/><linearGradient id="linear-gradient-16" x1="-2.49" y1="129.76" x2="-2.49" y2="1425.05" xlink:href="#linear-gradient-3"/><linearGradient id="linear-gradient-17" x1="0.39" y1="685.9" x2="0.39" y2="768.2" xlink:href="#linear-gradient-10"/><linearGradient id="linear-gradient-18" x1="3.04" y1="671.49" x2="3.04" y2="810.64" gradientTransform="translate(220.68 -344.94) rotate(-11.52)" gradientUnits="userSpaceOnUse"><stop offset="0" stop-color="#9f1727"/><stop offset="0.16" stop-color="#aa2822"/><stop offset="0.48" stop-color="#c85616"/><stop offset="0.93" stop-color="#f79e03"/><stop offset="1" stop-color="#ffab00"/></linearGradient><linearGradient id="linear-gradient-19" x1="-202.54" y1="760.43" x2="-216.24" y2="630.64" xlink:href="#linear-gradient-3"/><linearGradient id="linear-gradient-20" x1="-159.61" y1="735.25" x2="-170.42" y2="632.9" xlink:href="#linear-gradient-3"/><linearGradient id="linear-gradient-21" x1="179.44" y1="749.92" x2="155.72" y2="525.2" xlink:href="#linear-gradient-3"/><linearGradient id="linear-gradient-22" x1="230.75" y1="768.79" x2="205.15" y2="526.25" xlink:href="#linear-gradient-3"/><linearGradient id="linear-gradient-23" x1="126.41" y1="711.97" x2="86.11" y2="550.74" xlink:href="#linear-gradient-3"/><linearGradient id="linear-gradient-24" x1="445.17" y1="339.61" x2="-329.08" y2="797.87" xlink:href="#linear-gradient-3"/><linearGradient id="linear-gradient-25" x1="182.49" y1="623.87" x2="179.3" y2="593.63" xlink:href="#linear-gradient-3"/><linearGradient id="linear-gradient-26" x1="-89.74" y1="611.13" x2="-259.39" y2="711.55" xlink:href="#linear-gradient-3"/><linearGradient id="linear-gradient-27" x1="282.09" y1="600.89" x2="136.42" y2="687.11" xlink:href="#linear-gradient-3"/><linearGradient id="linear-gradient-28" x1="-26.38" y1="539.02" x2="-26.38" y2="800.09" xlink:href="#linear-gradient-3"/><linearGradient id="linear-gradient-29" x1="-98.29" y1="617.48" x2="-98.29" y2="768.72" xlink:href="#linear-gradient-3"/><linearGradient id="linear-gradient-30" x1="174.22" y1="636.41" x2="-126.58" y2="814.45" xlink:href="#linear-gradient-3"/><filter id="luminosity-invert-noclip" x="213.16" y="296.73" width="1492.82" height="531.62" filterUnits="userSpaceOnUse" color-interpolation-filters="sRGB"><feColorMatrix values="-1 0 0 0 1 0 -1 0 0 1 0 0 -1 0 1 0 0 0 1 0" result="invert"/><feFlood flood-color="#fff" result="bg"/><feBlend in="invert" in2="bg"/></filter><mask id="mask" x="213.16" y="296.73" width="1492.82" height="531.62" maskUnits="userSpaceOnUse"><path class="cls-1" d="M233.09,389.13s-6.16-15.94,144.22-46.38c68.48-12.32,113.42-16.67,123.56-9.79V308L352.3,296.73l-122.84,22.1-16.3,41.31Z"/></mask><radialGradient id="radial-gradient" cx="351.25" cy="276.77" r="235.84" gradientUnits="userSpaceOnUse"><stop offset="0" stop-color="#171714"/><stop offset="1" stop-color="#fff"/></radialGradient><linearGradient id="linear-gradient-31" x1="2024.55" y1="-693.33" x2="2024.55" y2="-759.88" gradientTransform="translate(-440.75 675.52) rotate(18.3)" gradientUnits="userSpaceOnUse"><stop offset="0" stop-color="#516202"/><stop offset="1" stop-color="#898701"/></linearGradient><linearGradient id="linear-gradient-32" x1="2100.94" y1="-671.82" x2="2100.94" y2="-765.25" gradientTransform="translate(-440.75 675.52) rotate(18.3)" gradientUnits="userSpaceOnUse"><stop offset="0" stop-color="#293b0d"/><stop offset="1" stop-color="#898701"/></linearGradient><linearGradient id="linear-gradient-33" x1="2062.05" y1="-572.89" x2="2062.05" y2="-874.24" gradientTransform="translate(-440.75 675.52) rotate(18.3)" gradientUnits="userSpaceOnUse"><stop offset="0" stop-color="#f48b27"/><stop offset="1" stop-color="#fce000"/></linearGradient><linearGradient id="linear-gradient-34" x1="2057.73" y1="-460.91" x2="2057.73" y2="-527.47" xlink:href="#linear-gradient-31"/><linearGradient id="linear-gradient-35" x1="2059.17" y1="-494.74" x2="2059.17" y2="-795.87" xlink:href="#linear-gradient-31"/><linearGradient id="linear-gradient-36" x1="2054.49" y1="-496.21" x2="2054.49" y2="-756.55" xlink:href="#linear-gradient-31"/><linearGradient id="linear-gradient-37" x1="2083.37" y1="-499.06" x2="2083.37" y2="-767.59" xlink:href="#linear-gradient-31"/><linearGradient id="linear-gradient-38" x1="2083.37" y1="-501.34" x2="2083.37" y2="-706.44" xlink:href="#linear-gradient-31"/><linearGradient id="linear-gradient-39" x1="1275.74" y1="-955.92" x2="1275.74" y2="-1070.61" gradientTransform="translate(-509.45 783.29) rotate(18.98)" gradientUnits="userSpaceOnUse"><stop offset="0" stop-color="#920122"/><stop offset="1" stop-color="#ff0142"/></linearGradient><linearGradient id="linear-gradient-40" x1="1318.37" y1="-965.14" x2="1318.37" y2="-1071.88" gradientTransform="translate(-509.45 783.29) rotate(18.98)" gradientUnits="userSpaceOnUse"><stop offset="0" stop-color="#ffb500"/><stop offset="1" stop-color="#fc0"/></linearGradient><linearGradient id="linear-gradient-41" x1="1333.56" y1="-962.56" x2="1333.56" y2="-1070.06" gradientTransform="translate(-509.45 783.29) rotate(18.98)" gradientUnits="userSpaceOnUse"><stop offset="0" stop-color="#8e3326"/><stop offset="0.19" stop-color="#9e4420"/><stop offset="0.57" stop-color="#c97212"/><stop offset="1" stop-color="#ffab00"/></linearGradient><linearGradient id="linear-gradient-42" x1="1177.95" y1="-1960.04" x2="1177.95" y2="-1888.52" gradientTransform="matrix(0.85, 0.53, -0.53, 0.85, -999.21, 1222.49)" gradientUnits="userSpaceOnUse"><stop offset="0" stop-color="#3b6b00"/><stop offset="1" stop-color="#6cbf00"/></linearGradient><linearGradient id="linear-gradient-43" x1="1279.17" y1="-1237.23" x2="1279.17" y2="-1149.81" gradientTransform="translate(-596.38 879.01) rotate(21.59)" gradientUnits="userSpaceOnUse"><stop offset="0" stop-color="#6c0caa"/><stop offset="1" stop-color="#3b0361"/></linearGradient><linearGradient id="linear-gradient-44" x1="1297.03" y1="-584.67" x2="1297.03" y2="-513.28" gradientTransform="matrix(0.98, 0.21, -0.21, 0.98, -298.44, 515.26)" xlink:href="#linear-gradient-39"/><linearGradient id="linear-gradient-45" x1="1293.51" y1="-620.92" x2="1343.7" y2="-620.92" gradientTransform="translate(-321.73 548.63) rotate(12.83)" xlink:href="#linear-gradient-40"/><linearGradient id="linear-gradient-46" x1="1268.42" y1="-1094.3" x2="1268.42" y2="-1209.78" gradientTransform="translate(-509.45 783.29) rotate(18.98)" xlink:href="#linear-gradient-43"/><linearGradient id="linear-gradient-47" x1="-6409.81" y1="-1094.75" x2="-6409.81" y2="-1210.23" gradientTransform="matrix(-0.95, -0.33, -0.33, 0.95, -5304.13, -865.17)" xlink:href="#linear-gradient-39"/><linearGradient id="linear-gradient-48" x1="1285.27" y1="-1093.85" x2="1285.27" y2="-1202.88" gradientTransform="translate(-509.45 783.29) rotate(18.98)" xlink:href="#linear-gradient-42"/><linearGradient id="linear-gradient-49" x1="1322.59" y1="-1089.37" x2="1322.59" y2="-1202.11" xlink:href="#linear-gradient-40"/><linearGradient id="linear-gradient-50" x1="1232.9" y1="-1097.44" x2="1374.96" y2="-1097.44" gradientTransform="translate(-509.45 783.29) rotate(18.98)" gradientUnits="userSpaceOnUse"><stop offset="0" stop-color="#856a58"/><stop offset="1" stop-color="#a04437"/></linearGradient><linearGradient id="linear-gradient-51" x1="1303.93" y1="-1241.07" x2="1303.93" y2="-1206.68" xlink:href="#linear-gradient-41"/></defs><g class="cls-2"><g id="Layer_1" data-name="Layer 1"><path class="cls-3" d="M488.28,252.61s-62.1,70.79-275.9,46.55c0,0,.66-68,7.35-110.76v0c2.44-15.53,5.64-27.72,9.9-32.16,16-16.7,65.67-1.72,110.09-16.16s43.5-36.77,64.77-29c14.38,5.25,29.17,20.54,42.47,41C465.12,180,480.53,217.54,488.28,252.61Z"/><path class="cls-4" d="M489,255.88S426.85,326.67,213,302.43c0,0,.66-68,7.36-110.76v0c2.43-15.52,5.63-27.72,9.9-32.16,16-16.69,65.66-1.71,110.09-16.15s43.5-36.78,64.77-29c14.38,5.25,29.16,20.54,42.46,41C465.79,183.25,481.2,220.81,489,255.88Z"/><path class="cls-5" d="M234.43,176.58s-11.57,69.06,2.12,114.78C236.55,291.36,229.92,216.51,234.43,176.58Z"/><path class="cls-6" d="M261.49,172.56s-11.57,69.06,2.12,114.78C263.61,287.34,257,212.49,261.49,172.56Z"/><path class="cls-7" d="M392.8,128.59s39.56,40.58,46.92,103.5C439.72,232.09,424.36,171.24,392.8,128.59Z"/><path class="cls-8" d="M290.53,169.93s-9.79,55.62,6,112.6C296.53,282.53,286.62,210.16,290.53,169.93Z"/><path class="cls-9" d="M227,193.71s43.1,1.13,87.78-6.65C292.43,193.52,250.59,198.82,227,193.71Z"/><path class="cls-10" d="M221.87,215.4s78.77,2.54,159.25-29.23C381.12,186.17,299.71,222.86,221.87,215.4Z"/><path class="cls-11" d="M219.15,239.28s78.78,2.54,159.25-29.23C378.4,210.05,297,246.74,219.15,239.28Z"/><path class="cls-12" d="M489,255.88S426.85,326.67,213,302.43c0,0,.66-68,7.36-110.76.48,1.93,16.46,66.8,89.62,51.16C384.3,227,438.84,188.15,447.61,155.35,465.79,183.25,481.2,220.81,489,255.88Z"/><path class="cls-13" d="M497.09,104.19c-6-7.93-19.37-19.75-19.37-19.75a37.22,37.22,0,0,1-9.41,14.08s31.06,19.37,46.25,59.91l4.69-9.45S511.64,123.52,497.09,104.19Z"/><path class="cls-14" d="M620.3,56.59c-2.27-11.8-9.28-28-9.28-28s-6.73,4-14.11,9.35c0,0,21.17,29.87,19.52,73.13l8-6.9A260.46,260.46,0,0,0,620.3,56.59Z"/><path class="cls-15" d="M58.78,293.85c-3.93-7.74-13.69-20-13.69-20a32.63,32.63,0,0,1-10.26,10.71s18,16.79,26.38,52.76l9.85-1.48S68.37,312.73,58.78,293.85Z"/><path class="cls-16" d="M652.87,63c-2.78-.4-9.73-.32-17.36.56,0,0,14.5,26.22,13.75,67.48l10.36.83S664,82.75,652.87,63Z"/><path class="cls-17" d="M620.75,77.93s-7.63-12.52-24.81-29.56c-7-7-22-16.74-22-16.74a37.19,37.19,0,0,1-7.27,15.28s21.59,9.5,40.91,32.85c-7,1.25-18,3.57-32.7,7.74-.85-2.09-1.74-4.16-2.73-6.19-4.32-8.93-15.19-23.12-15.19-23.12a37.2,37.2,0,0,1-12,12s8,7.55,16.44,21.35c-12,3.76-25.78,8.59-41.38,14.75.06-2.62.05-5.25-.08-7.87-.5-9.9-5-27.21-5-27.21a37.27,37.27,0,0,1-15.67,6.4s6,13.44,7.76,34c-35.19,14.68-78.26,35.73-128.52,66C367.21,184.36,356.43,191,346,197.46c.05-2.44,0-4.89-.08-7.34-.51-9.9-5.13-27.11-5.13-27.11s-8.3,5.9-17,7c0,0,6.55,12.32,8.34,36C264,248.76,214.86,281.91,159.84,299.6c-7.38-24.33-5.49-43.23-5.49-43.23a37.14,37.14,0,0,1-16.88-1.2s1.11,17.84,3.7,27.41a127.3,127.3,0,0,0,7.66,20.32,278.47,278.47,0,0,1-28.48,6.34,125.67,125.67,0,0,0,.94-21.51c-.5-9.9-5-27.21-5-27.21s-7.51,5.33-16.18,6.45c0,0,8.43,17.88,8.75,43.95-8.09,1-16.4,1.71-25,2.06-8.44-25.7-5.53-46.17-5.53-46.17-8.58,1.63-17.7-1.12-17.7-1.12s1.11,17.84,3.71,27.41a125.59,125.59,0,0,0,7.56,20.13,371.41,371.41,0,0,1-38.07-1.94c-12.56-17-16.14-32.16-16.14-32.16C10.45,284,0,285.55,0,285.55S8.76,301.23,14.88,309c0,0,46.64,77.4,169.39,98.57,63.28,10.92,243.17-19.5,327.51-54.67C615.69,305.77,716.22,94.71,620.75,77.93Z"/><path class="cls-18" d="M621.31,80.68s-7.63-12.52-24.81-29.55c-7-7-22-16.75-22-16.75a37.2,37.2,0,0,1-7.27,15.29s21.59,9.5,40.91,32.84c-7,1.25-18,3.57-32.7,7.75-.85-2.09-1.74-4.17-2.72-6.2C568.38,75.14,557.5,61,557.5,61a37.24,37.24,0,0,1-11.94,12s8,7.54,16.43,21.34c-12,3.77-25.78,8.59-41.38,14.75.06-2.61,0-5.24-.08-7.86-.5-9.9-5-27.21-5-27.21a37.18,37.18,0,0,1-15.68,6.39s6,13.44,7.77,34c-35.2,14.68-78.27,35.73-128.53,66-11.33,6.82-22.11,13.45-32.51,19.91,0-2.44,0-4.89-.09-7.33-.5-9.9-5-27.21-5-27.21a37.27,37.27,0,0,1-15.67,6.4s6.36,14.41,7.92,36.15C265.54,251,215.42,284.66,160.4,302.35c-7.38-24.32-5.49-43.22-5.49-43.22A37.22,37.22,0,0,1,138,257.92s1.11,17.85,3.71,27.42a126.32,126.32,0,0,0,7.65,20.32A278.88,278.88,0,0,1,120.92,312a126.75,126.75,0,0,0,.93-21.51c-.5-9.91-5-27.21-5-27.21a37.18,37.18,0,0,1-15.67,6.39s7.92,17.93,8.24,44q-12.14,1.53-25,2.05C76,290,78.1,269.65,78.1,269.65a37.22,37.22,0,0,1-16.88-1.21s1.11,17.85,3.71,27.42A125.47,125.47,0,0,0,72.49,316a371.3,371.3,0,0,1-38.07-1.93c-12.56-17-17-31.53-17-31.53a37.3,37.3,0,0,1-16,5.46s8,16,14.1,23.8c0,0,46.64,77.4,169.38,98.58,63.28,10.92,243.17-19.5,327.51-54.68C616.25,308.52,716.78,97.47,621.31,80.68Z"/><path class="cls-19" d="M602.06,275.46c-25.77,35.39-57.58,65.65-89.71,80.21-84.34,35.19-264.23,65.62-327.52,54.7a303.1,303.1,0,0,1-68.4-19.95c2.44.8,31.77,11.45,58.93,6,29.32-5.89,49.2-32.28,153.62-60.55,104.59-28.32,161-16.38,204.06-19.53C572.63,313.47,598.82,279.18,602.06,275.46Z"/><path class="cls-20" d="M502.2,334.37c1.85,9.09-56.81,28.72-131,43.85s-135.87,20-137.73,10.94,56.81-28.72,131-43.85S500.35,325.29,502.2,334.37Z"/><path class="cls-21" d="M89,325.57s37.36,59.14,118.49,66.28C207.44,391.85,140.68,381.24,89,325.57Z"/><path class="cls-22" d="M217,375.37s-35.52-10.52-52.59-65.18C164.41,310.19,184.31,356.73,217,375.37Z"/><path class="cls-23" d="M519.72,116.63s22.34,101.24-36.57,191.19C483.15,307.82,522.65,247.19,519.72,116.63Z"/><path class="cls-24" d="M513.14,318.42s87.17-71,77.57-218.4C590.71,100,621,236.51,513.14,318.42Z"/><path class="cls-25" d="M451.24,308.42s5.93-76.57-17.61-147.13C433.63,161.29,467.64,223.8,451.24,308.42Z"/><path class="cls-26" d="M58.85,338.34S117.13,350.9,218.13,314C292,287.08,379,228.5,449,190.33,493.3,166.17,576.68,125,637.49,140.91c0,0-73.18-14.16-220.54,73.66-55.63,33.15-123.24,75-193.62,101.19C173.39,334.35,110.58,349.89,58.85,338.34Z"/><path class="cls-27" d="M409.43,251.63s74.35-45,140-62.45c50.3-13.36,82.61-2.3,82.61-2.3s-45.63-1.25-85.21,9.33C492.82,210.64,409.43,251.63,409.43,251.63Z"/><path class="cls-28" d="M104.42,363.12s55.94-2.85,135.76-33.34C240.18,329.78,185.87,364,104.42,363.12Z"/><path class="cls-29" d="M485,262.61s72.39-29.09,122.55-22C607.52,240.59,570,221.59,485,262.61Z"/><path class="cls-30" d="M309.6,251.33s2.17,30.44,24,59.41A624,624,0,0,1,309.6,251.33Z"/><path class="cls-31" d="M250,316.49a60.69,60.69,0,0,0,17.29,33.73S253.59,328.22,250,316.49Z"/><path class="cls-32" d="M249.37,403s85.26,4.52,245.66-53.66C495,349.38,384.62,404.55,249.37,403Z"/><g class="cls-33"><path class="cls-34" d="M1679.74,364.38c-16.43-16.2-40.37-25.5-65.74-25.51-25.13,0-47.71,8.39-65.31,24.25a77,77,0,0,0-9.09,9.82,68.12,68.12,0,0,0-13.87-17c-19.43-17.1-45.72-20.69-64.35-20.69l-2.47,0-93-.13,0,17.64c-19-17-45.58-26.75-73-26.75h-1c-27.42.24-53.21,9.24-71.22,24.7l0-20.23-112.68-.07,0,21.77c-1.15-1.09-2.34-2.14-3.57-3.13-15.44-12.4-36.67-18.68-63.11-18.68-.92,0-1.84,0-2.75,0l-92.88,0h0l-168.67,0,.95,11.78a100.73,100.73,0,0,0-47.27-11.82H730c-20.44.17-39.86,6-54.82,16.25l0-12.82-115,.13-.08,25.94c-.62-.59-1.22-1.2-1.86-1.78-19.1-17.2-45.74-27.07-73.09-27.07h-.95c-28.86.25-55.77,10.54-73.82,28.24a90.39,90.39,0,0,0-7.34,8.17,67,67,0,0,0-8.85-9.52c-19.44-17.18-45.54-20.78-64-20.78-1,0-1.93,0-2.89,0l-92.77.19v491l33.56-6.28c19.07-3.57,38.43-7.06,57.53-10.38l23.46-4.07.19-172.55a106.93,106.93,0,0,0,30.94-12.25L380,709.52l.06,3.48c.31,17.57.7,39.43,12.45,59,9.44,15.76,26.78,25.16,46.38,25.16a63.46,63.46,0,0,0,9.32-.7,78.58,78.58,0,0,0,23.53-7.5l23-2.83c21.35-2.64,42.9-5.12,64.18-7.42v.72l26.33-3.55,3.13-.34v-.09l2.77-.37c70.8-9.55,147.5-15.9,205.16-17l27.73-.52v-2.07l14.7-.32c9.73-.21,19.44-.51,29.13-.8,17.11-.51,34.8-1,52.11-1.09l26-.06v-.1h0l28,.3c19.53.2,39.11.54,58.22,1l8.52.2,8.26.26c20,.62,40.12,1.39,59.94,2.29l29.62,1.33v-1c17,.82,34.64,1.79,52.58,2.93l30.2,1.9v-4.56a65.78,65.78,0,0,0,30.35,10c1.91.15,3.85.22,5.77.22a72.9,72.9,0,0,0,18.59-2.35l22.65,2.07c22.72,2.07,45.76,4.37,68.47,6.8h.08v3.07l25,2.86c20.93,2.39,42.25,5,63.41,7.71a144.06,144.06,0,0,0,21.24,1.67c19.36,0,35.46-4.67,47.85-13.88a60,60,0,0,0,9.07-8.36,94.26,94.26,0,0,0,13.28,18.8c16,17.56,39.52,30,62.9,33.24a119.13,119.13,0,0,0,16.51,1.18c20.08,0,37.15-5.44,50.72-16.16,26.3-20.78,28.84-55.28,28.71-68.89v-301C1706.17,406.68,1696.61,381,1679.74,364.38Z"/><path class="cls-35" d="M390.83,548.59c.09,15.89-3.69,34.55-15.8,45.83-12.66,11.79-31.31,17-48.3,18.4l-5.81.58-.18,173.26q-29,5-57.9,10.44V368.58l64.76-.14c16.36-.37,35.42,2.7,47.82,13.65,12.24,10.82,15.83,28.32,15.66,44.38Q390.95,487.54,390.83,548.59ZM331.32,424.06a4.87,4.87,0,0,0-4.37-2l-5.82.14L321,559.63l5.82-.46a5.42,5.42,0,0,0,4.36-2.42q1.45-2.19,1.46-7l.15-118.93C332.78,427.7,332.29,425.43,331.32,424.06Z"/><path class="cls-35" d="M477.58,508.29q-34.41,1.65-68.81,3.48l.15-71.18c-.06-21.15,5.95-43.11,21.29-58.15,14.05-13.77,35-20,54.22-20.14,19.53-.16,40.08,6.51,54.83,19.79,15.51,14,21.9,34.36,21.72,54.82q-.47,158-.92,316.07-34.45,3.69-68.84,7.94.06-24.92.14-49.83l-1.44.16c-1.32,14.78-5.92,30.1-14.79,42-7.45,10-19,16.28-31.18,18.12-10.34,1.57-21.49-1.56-27.14-11-8.37-14-8.16-32.11-8.47-47.88q.11-51.26.22-102.49c0-11.65,1.78-23.55,6.16-34.28A73.49,73.49,0,0,1,432,551.13a124.83,124.83,0,0,1,26.2-17.77c10.54-5.53,22.22-10,33.73-14q.11-42.22.23-84.43c0-3.69-.58-6.34-1.77-7.92a6.11,6.11,0,0,0-5.37-2.32,6.41,6.41,0,0,0-5.39,2.54q-1.8,2.48-1.81,8Q477.67,471.79,477.58,508.29Zm7,73.19a40.33,40.33,0,0,0-4.69,10,49.38,49.38,0,0,0-2.18,12c-.25,4.18-.38,8.37-.39,12.54l-.21,78.56q0,4.86,1.77,7.1t5.36,1.85a7.08,7.08,0,0,0,5.38-3q1.8-2.59,1.82-8.15.16-58.81.32-117.64A20.11,20.11,0,0,0,484.55,581.48Z"/><path class="cls-35" d="M646.78,365.11c-.31,110.18-.53,222.52-.84,332.71,31.25-3.08,125.22-10.17,149.84-10.85,0,16.17,0,29.52-.07,45.7-60.67,1.15-138.9,7.87-208.41,17.24q.57-192.36,1.13-384.74Z"/><path class="cls-35" d="M724.71,473.51q-28.1.6-56.19,1.36.08-27,.14-53.91c0-16.33,5.12-32.88,17.37-44,11.72-10.63,28.74-15.17,44.19-15.3,15.79-.13,32.54,5.16,44.71,15.33,12.79,10.68,16.9,26.63,17.78,42.67q-.18,122.85-.35,245.71-28.18,1-56.34,2.44,0-19.12.08-38.26l-1.17.05c-1.07,11.22-4.85,22.88-12.09,31.48-6.31,7.49-15.92,11.54-25.54,12.25-8.49.64-17.43-2.23-22.25-9.73-6.74-10.49-6.62-24.73-6.93-36.68q.11-38.82.2-77.64c.54-8.86,1.34-17.73,5-25.8a55.56,55.56,0,0,1,14.09-18.24,90.23,90.23,0,0,1,21.4-13c9.09-3.76,18.15-7,27.54-10q.08-32.43.14-64.85c0-2.83-.48-4.87-1.45-6.1a5.19,5.19,0,0,0-4.39-1.82,5.26,5.26,0,0,0-4.39,1.9c-1,1.26-1.47,3.3-1.47,6.14Q724.78,445.54,724.71,473.51Zm5.74,56.27a28.92,28.92,0,0,0-3.83,7.57,35,35,0,0,0-1.77,9.12c-.21,3.19-.31,6.4-.32,9.59q-.06,30.11-.13,60.19c0,2.49.49,4.33,1.45,5.52a5,5,0,0,0,4.4,1.66,5.52,5.52,0,0,0,4.4-2.07c1-1.28,1.47-3.33,1.48-6.18q.09-45.16.19-90.35A15.31,15.31,0,0,0,730.45,529.78Z"/><path class="cls-35" d="M919.85,727.86c-27.35.07-54.44,1.29-81.78,1.89C828,607.36,817.77,484.08,807.84,361.68l64.18,0q3.72,122.76,7.46,245.53.87,31.66,1.72,63.33h1.18q.89-31.68,1.78-63.36,3.87-122.74,7.7-245.49h58.35Q935.11,544.77,919.85,727.86Z"/><path class="cls-35" d="M1042.94,568.32a5.38,5.38,0,0,0-4.39-1.9l-5.85-.09.18,162.68q-29.31-.69-58.6-1-.07-183.18-.14-366.35h64.76c16.19-.3,35.15,2.2,47.87,12.41,11.59,9.31,16.33,25.62,15.83,40.44l.13,75c-.23,12.14-.26,24.53-3.73,36.11-2.77,9.23-11.7,14.88-20.72,17.27V544c9.1,2.48,18,8.28,20.78,17.58,3.53,11.8,3.59,24.44,3.87,36.81l.15,84.51c0,6,.12,11.1.32,15.33s.5,8,.9,11.4a56.63,56.63,0,0,0,2.06,9.86q1.47,4.81,3.83,11.27v1.06q-30.15-1.35-60.32-2.3a89.69,89.69,0,0,1-4.42-20.09c-.84-9.06-.82-18.23-.91-27.33l-.13-107.67C1044.41,571.59,1043.91,569.56,1042.94,568.32Zm-.19-157.54a5.27,5.27,0,0,0-4.38-1.86l-5.83,0q0,55.1.11,110.2l5.85.07a5.19,5.19,0,0,0,4.38-1.79c1-1.21,1.46-3.21,1.45-6q0-47.26-.11-94.54C1044.22,414,1043.72,412,1042.75,410.78Z"/><path class="cls-35" d="M1136.14,430.46q28,.27,56,.61l.72,304q-28.1-1.77-56.2-3.1Q1136.44,581.2,1136.14,430.46Z"/><path class="cls-35" d="M1286.19,497.24q-34.47-1-68.94-1.92-.07-32.86-.16-65.73c-.16-19.88,6.1-40,21-53.49,14.36-13,35.19-18.64,54.12-18.81,19.55-.17,40.15,6.31,55,19.62,15.62,14,22.09,34.66,22,55.24l.93,317.11q-34.44-3.69-68.93-6.85-.06-24.06-.13-48.14l-1.44-.11c-1.15,13.35-5.49,27.68-14.62,37.51-7.88,8.5-19.93,11.64-31.23,10.77-11-.84-21.57-6.15-27.37-15.83-8-13.43-8.27-30.79-8.74-45.93q-.12-47.32-.23-94.65c.59-10.64,1.47-21.35,6-31a62.21,62.21,0,0,1,17.18-21.14,104.5,104.5,0,0,1,26.18-14.33c11.15-4,22.24-7.38,33.71-10.48l-.24-81.57c0-3.57-.62-6.15-1.81-7.72a6.47,6.47,0,0,0-5.39-2.41,6.26,6.26,0,0,0-5.38,2.26q-1.79,2.31-1.77,7.64Q1286.09,462.25,1286.19,497.24Zm7.38,71a33,33,0,0,0-4.64,9.12,42.28,42.28,0,0,0-2.13,11.22q-.35,6-.32,12l.21,75.3c0,3.12.62,5.49,1.82,7.13a6.92,6.92,0,0,0,5.39,2.74c2.39.18,4.19-.46,5.38-1.94s1.79-4,1.78-7.55l-.33-113.66A16.88,16.88,0,0,0,1293.57,568.22Z"/><path class="cls-35" d="M1523.47,714.06c-.81,15.55-2.47,32.31-15.6,42.07-12.9,9.59-32.65,9.26-48.26,6.89q-32-4.14-64.11-7.8-.55-194.38-1.13-388.78l64.76.09c16.37-.31,35.45,2.67,47.88,13.61,12.27,10.81,16,28.32,15.84,44.4Q1523.17,569.3,1523.47,714.06Zm-60.4-294.49a5.2,5.2,0,0,0-4.38-2.06l-5.84-.11q.4,147,.8,294l5.82.66a4.5,4.5,0,0,0,4.36-1.48q1.45-1.81,1.44-6.36-.36-139-.73-278.07Q1464.53,421.59,1463.07,419.57Z"/><path class="cls-35" d="M1677.63,738.68c.15,16.41-4.61,36.13-17.94,46.66-12.9,10.2-30.41,11.28-45.75,9.15a79,79,0,0,1-45.86-24.26c-12.15-13.33-18.5-32-18.1-50.09q-.3-143-.58-286.09c-.49-17.22,5.41-35.37,18.28-47,13.35-12,29.85-17,46.35-17,15.82,0,33.59,5.3,45.81,17.35,12.69,12.51,17.91,32.43,17.79,50Zm-59.75-312.74a5.08,5.08,0,0,0-4.37-2.18,4.84,4.84,0,0,0-4.37,2c-1,1.38-1.45,3.64-1.45,6.81q.19,149.25.37,298.51,0,4.77,1.46,7.05a5.94,5.94,0,0,0,4.36,2.74,4.26,4.26,0,0,0,4.35-1.44q1.44-1.86,1.44-6.65-.17-150-.32-299.91C1619.35,429.66,1618.85,427.36,1617.88,425.94Z"/><path class="cls-36" d="M1136.45,361.71l56,0q.07,29.34.14,58.66-28-.28-56-.51Q1136.5,390.79,1136.45,361.71Z"/><g class="cls-37"><path class="cls-38" d="M1679.74,364.38c-16.43-16.2-40.37-25.5-65.74-25.51-25.13,0-47.71,8.39-65.31,24.25a77,77,0,0,0-9.09,9.82,68.12,68.12,0,0,0-13.87-17c-19.43-17.1-45.72-20.69-64.35-20.69l-2.47,0-93-.13,0,17.64c-19-17-45.58-26.75-73-26.75h-1c-27.42.24-53.21,9.24-71.22,24.7l0-20.23-112.68-.07,0,21.77c-1.15-1.09-2.34-2.14-3.57-3.13-15.44-12.4-36.67-18.68-63.11-18.68-.92,0-1.84,0-2.75,0l-92.88,0h0l-168.67,0,.95,11.78a100.73,100.73,0,0,0-47.27-11.82H730c-20.44.17-39.86,6-54.82,16.25l0-12.82-115,.13-.08,25.94c-.62-.59-1.22-1.2-1.86-1.78-19.1-17.2-45.74-27.07-73.09-27.07h-.95c-28.86.25-55.77,10.54-73.82,28.24a90.39,90.39,0,0,0-7.34,8.17,67,67,0,0,0-8.85-9.52c-19.44-17.18-45.54-20.78-64-20.78-1,0-1.93,0-2.89,0l-92.77.19v491l33.56-6.28c19.07-3.57,38.43-7.06,57.53-10.38l23.46-4.07.19-172.55a106.93,106.93,0,0,0,30.94-12.25L380,709.52l.06,3.48c.31,17.57.7,39.43,12.45,59,9.44,15.76,26.78,25.16,46.38,25.16a63.46,63.46,0,0,0,9.32-.7,78.58,78.58,0,0,0,23.53-7.5l23-2.83c21.35-2.64,42.9-5.12,64.18-7.42v.72l26.33-3.55,3.13-.34v-.09l2.77-.37c70.8-9.55,147.5-15.9,205.16-17l27.73-.52v-2.07l14.7-.32c9.73-.21,19.44-.51,29.13-.8,17.11-.51,34.8-1,52.11-1.09l26-.06v-.1h0l28,.3c19.53.2,39.11.54,58.22,1l8.52.2,8.26.26c20,.62,40.12,1.39,59.94,2.29l29.62,1.33v-1c17,.82,34.64,1.79,52.58,2.93l30.2,1.9v-4.56a65.78,65.78,0,0,0,30.35,10c1.91.15,3.85.22,5.77.22a72.9,72.9,0,0,0,18.59-2.35l22.65,2.07c22.72,2.07,45.76,4.37,68.47,6.8h.08v3.07l25,2.86c20.93,2.39,42.25,5,63.41,7.71a144.06,144.06,0,0,0,21.24,1.67c19.36,0,35.46-4.67,47.85-13.88a60,60,0,0,0,9.07-8.36,94.26,94.26,0,0,0,13.28,18.8c16,17.56,39.52,30,62.9,33.24a119.13,119.13,0,0,0,16.51,1.18c20.08,0,37.15-5.44,50.72-16.16,26.3-20.78,28.84-55.28,28.71-68.89v-301C1706.17,406.68,1696.61,381,1679.74,364.38Z"/></g></g><path class="cls-39" d="M1717,602.83s-14.45,10.59-23.16,31.43,17.33,16.88,17.33,16.88Z"/><path class="cls-40" d="M1787.56,660.56s-.14-25.59-9.24-37.46l-7.78,72.63S1783.85,679.66,1787.56,660.56Z"/><path class="cls-41" d="M1760.94,756.55s6.56-4.08,9.25-14.31a29.34,29.34,0,0,0-1.19-18.46s6.36-3.46,7.69-13.79-2-14.91-2-14.91a39.62,39.62,0,0,0,5.81-12.33c2.18-7.62-1-12.82-1-12.82s1.22-4.81,4.44-13.47-.24-12.94-.24-12.94a113.66,113.66,0,0,0,5-15c1.45-6.47-3.68-14.08-3.68-14.08s6.34-7.63,5.38-16.28a39.7,39.7,0,0,0-3.79-13.76s1.66-7.1-2.75-17.94c-1-13.72-11.3-16.25-11.3-16.25s-9.77-4.1-18.77,6.3c-10,6.08-12.9,12.76-12.9,12.76a39.67,39.67,0,0,0-11.25,8.79c-5.93,6.38-5.39,16.29-5.39,16.29s-8.65,3-11.34,9.1a114.91,114.91,0,0,0-5,15s-5.31,1.37-7.9,10.25-4.47,13.46-4.47,13.46-5.61,2.31-8.41,9.73a39.51,39.51,0,0,0-2.68,13.36s-5.42,1.68-10.51,10.77-2,15.65-2,15.65a29.31,29.31,0,0,0-12,14.11c-3.94,9.81-1.1,17-1.1,17s-8.87,6.45-9.93,16.17.61,13.06.61,13.06l50.74,16.78L1751,785.58s3.34-1.68,8.28-10.12S1760.94,756.55,1760.94,756.55Z"/><path class="cls-42" d="M1769,723.78a3.83,3.83,0,0,0,.64-.43,10.56,10.56,0,0,1-3.8-1.38c-3.45-2.67-.76-12.2,0-16.07.46-2.32,1.46-8.95,6.89-9.53a7.34,7.34,0,0,1,2.77.38,8.11,8.11,0,0,0-.84-1.68,2,2,0,0,0,.17-.21c-2.94-.18-6.4,1.22-9.84-1-6.08-3.86-1.54-11-.85-14.38.35-1.61,1.57-9.28,8-8.64,2.71.27,5.39.66,8.08.67a10.12,10.12,0,0,0-.74-1.62l0-.14a36.3,36.3,0,0,1-17.4-2.12,7.94,7.94,0,0,1-4.39-6.08c-.29-4.54,1.37-12.21,4.75-16.68,1.26-1.66,4.41-3.06,6.45-2.62,3.36.74,6.74,1.36,10.15,1.9a48.67,48.67,0,0,0,5.24.42,6,6,0,0,0-.62-1.08s.06-.13.15-.39a14,14,0,0,1-3.74-.8c-3.64-2.12-2.24-9.62-1.13-14.44.92-4,1.28-11.48,3.45-13.45a1.61,1.61,0,0,1,1.37-.34l1.26.22c.1-.11.29-.38.56-.75a26.25,26.25,0,0,1-6.87-2c-5.41-3-4.14-10.44-3.42-15,.54-3.33.82-6.77,2-9.92A4.29,4.29,0,0,1,1782,584c1.55.22,3.12.41,4.69.55a.9.9,0,0,1-.1-.18l.09-.53c-6.88-.75-12.82.2-19.18-4.8-2.41-1.9-1.55-7,.82-10.22a4,4,0,0,1,4.16-1.35,34.5,34.5,0,0,0,12.06.84c-.17-.5-.36-1-.59-1.51a32.48,32.48,0,0,1-20.25-3.32,59.07,59.07,0,0,1-10-7c-.59.35-1.15.72-1.68,1.07a62.41,62.41,0,0,0,11.44,6.81c3.08,1.66,3.31,12.12-2.51,13.32-5.1,1.11-13.27-5.62-19.77-9.18a6.6,6.6,0,0,0-.36.73l-.25.11c2.32,1.31,6,3.62,6.23,3.79,7,4.48,2.08,18.43-3.76,25.17-1.59,1.87-6.69.7-9-.18a77.67,77.67,0,0,1-9.88-4.27c0,.29,0,.46,0,.46s-.33.12-.86.34c1.17.62,2.37,1.21,3.56,1.77,4.54,2.66,1.4,9.34-.35,13.55-1.23,3-3.23,7.69-5.42,10.51-1.8,2.37-5.71,2.47-8.38,1.15a15.56,15.56,0,0,1-4.74-3.69c-.09.32-.13.52-.13.52a5.65,5.65,0,0,0-1,.44,21.37,21.37,0,0,0,2.43,2c3.81,2.54.23,8.71-1.34,12.13-.84,1.83-3.8,9.61-7.53,10.41-1.31.3-3.43-.84-4.73-1.71a3.16,3.16,0,0,1-.16.43,6.89,6.89,0,0,0-.89.48,54,54,0,0,1,9.54,5c7.16,4.16,4,10.82,2.88,13.36-.69,1.58-3.6,8.69-8.17,9.34s-11.37-4.34-14.42-6.14c0,.67,0,1,0,1a6.44,6.44,0,0,0-1.1.51,69.87,69.87,0,0,1,6.57,3.78c1.18,1.28,3.17,4.63-.92,13.41-4.68,10.07-7.83,11.63-10.44,11a55.81,55.81,0,0,1-6.88-2.79c.14.36.22.55.22.55a15.64,15.64,0,0,0-1.56,1c18.44,8.3,37.12,16.23,56.49,22.1q3,.9,6.13,1.75a1.13,1.13,0,0,0,.49.15c12,3.29,24.11,5.84,36.17,8.7C1769.28,724.35,1769,723.78,1769,723.78Zm-11.21-56.12c6.22,2.51,5.68,6.84,5.4,10.07a26.46,26.46,0,0,1-3.62,10.89c-1,1.67-2.91,1.94-4.85,2.07-4.06.28-10.16-.11-18.49-5.07l0,0c-4.5-3.24-.18-13,3.58-18.65a6.21,6.21,0,0,1,6.52-2.38A59.26,59.26,0,0,1,1757.8,667.66Zm-29.34-11.59c-3.37-2.22-3-9.53,3.3-20.18,1.33-2.25,3.66-3,6.27-2.7,3.41.36,7.26.75,16.94,5.5,2.45,1.18,4.55,3,4.71,5.75.2,3.3-1,7-1.87,9.87-.68,2.38-1.71,6.27-3.91,8.31a5.14,5.14,0,0,1-3.66,1.24C1746,664,1737.44,661.33,1728.46,656.07ZM1727,682.53a50.85,50.85,0,0,1-20-8s0,0-.06-.06c-3.47-3.44-.59-9.08,1.35-12.59,4.15-7.46,7.44-8.52,10.76-8.13,2.14.25,8.24,2.56,12.3,5.36,3.22,2.23,6.43,4.5,3.53,14C1733.91,676.34,1731.69,683.36,1727,682.53ZM1778,613c2.29,3,1.17,10.45-.21,15.69-1.13,4.31-1.1,11-6.35,12.16a31,31,0,0,1-17.41-4.49,9.46,9.46,0,0,1-2.65-7,21.24,21.24,0,0,1,.78-3.72c.47-2,1-3.91,1.69-5.82,1.41-4.14,3.81-9.44,7.87-10.66C1767.93,608.6,1775.6,611.26,1778,613Zm-28.56-24.35c1-2.82,3.43-11.73,10.55-9.82,3.92,1.05,7.75,2.4,11.73,3.3,3.19,1,3.39,3.5,3,9-.46,2.43-1,8.31-4.42,14.47-1.1,2-3.47,2.44-5.73,2.27-7.54-.53-16-4.22-17.08-5.42C1744.12,598.83,1747.82,593.13,1749.43,588.62Zm-22.11,23.62c1.84-4.68,4.18-10.48,9.22-11.17,4.37-.43,14,2.37,17.06,7.94,1.45,2.65-.1,7.45-1.11,10.89a58.79,58.79,0,0,1-4.33,10.34c-1.18,2.12-3.61,2.52-6,2.25-4.45-.49-9.73-.78-16.71-5.9C1722.45,625,1725.64,616.56,1727.32,612.24Zm-19.59,36.18c-2-1.57-3.59-3.53-2.86-5.93a56.18,56.18,0,0,1,3.84-8.78,57.3,57.3,0,0,1,4.48-7.3c.59-.82,2-2.08,3.14-1.69,6.58.34,9.59,3.3,12.13,5.12,1,.6,1.25,2.85.7,5.71-.09.54-2.46,10.47-6.59,14.94C1719.53,653.78,1710.42,650.56,1707.73,648.42Zm3.78,44.42c-.74,2.31-2.31,8.7-5.49,10.53-2.39,1.37-11.32.14-18.18-5.47-5.21-4.27,5-19.23,5.5-20.09a7,7,0,0,1,9.09-3.17c2.45,1.1,4.91,2.19,7.37,3.25s4.85,3.94,4.39,6.52C1713.7,687.23,1712.41,690,1711.51,692.84Zm16.61,20.57c-4.12-.72-11.72-2-16.56-6.24-3.7-3.18.4-11.36,1.7-14.41.75-1.76,1.83-3.51,2.66-5.27,1.54-3.31,4.55-4.42,8.19-4.26,3.31.14,9,2.38,10.6,3.17a8.35,8.35,0,0,1,5.09,8.21,34.36,34.36,0,0,1-1.07,6.82C1737.89,704.86,1736.49,714.88,1728.12,713.41Zm33.45,4c-.44,1-1.78,3.88-9,2-2.36-.62-8.8-1.77-12.24-4-4.66-3.06,0-15.77,1.29-18.29,2.67-5.31,5.72-5.39,8.4-5.46a41.79,41.79,0,0,1,10.09.73c2.51.56,5.27,4.5,5.3,7.07C1765.5,705.65,1762.79,714.51,1761.57,717.38Z"/><path class="cls-43" d="M1754.26,560.52s-3.36-1.67-4.55.55,4.28,5.71,6.6,5.18S1758.68,563,1754.26,560.52Z"/><path class="cls-43" d="M1743,572.66s-3.36-1.66-4.54.55,3.28,5.32,5.6,4.78S1747.46,575.14,1743,572.66Z"/><path class="cls-43" d="M1759.92,580.41s-3.67-.73-4.24,1.72,4.55,4.27,6.65,3.15S1764.84,581.65,1759.92,580.41Z"/><path class="cls-43" d="M1737.87,602.57s-3.67-.73-4.24,1.71,4.55,4.28,6.65,3.16S1742.79,603.8,1737.87,602.57Z"/><path class="cls-43" d="M1718.6,626.82s-3.67-.74-4.24,1.71,4.55,4.28,6.65,3.15S1723.52,628.05,1718.6,626.82Z"/><path class="cls-43" d="M1723.57,596c-.94-.1-2.9,0-3.29,1.89-.51,2.43,3.64,3.53,5.1,2.37S1726.58,596.27,1723.57,596Z"/><path class="cls-43" d="M1737.43,634.24c-1.07-.11-3.28,0-3.71,1.86-.56,2.44,4.14,3.56,5.78,2.42S1740.83,634.57,1737.43,634.24Z"/><path class="cls-43" d="M1744.12,636.24c-.73-.22-2.28-.47-2.82.68-.7,1.5,2.43,2.9,3.71,2.39S1746.44,637,1744.12,636.24Z"/><path class="cls-43" d="M1744.54,666.35c-.73-.22-2.28-.47-2.81.68-.7,1.5,2.42,2.9,3.7,2.39S1746.86,667.06,1744.54,666.35Z"/><path class="cls-43" d="M1764.08,610.29a3.93,3.93,0,0,0-4.26,2.06c-1.34,2.85,5.55,5.52,7.2,3.67S1769,611.7,1764.08,610.29Z"/><path class="cls-44" d="M1653.8,826.71s11.35,14.09,5.75,27.87-14.1,19.06-14.1,19.06,14.17,13.41,28.87,9.54c0,0-3-13.67,2-24.49a25.65,25.65,0,0,1,17-13.84S1667.75,839.23,1653.8,826.71Z"/><path class="cls-45" d="M1730,824.13c-12.86,12.49-30,21.92-47,20.23-33.81-3.37-48.39-44.84-38.3-93.93,10.38-50.55,30.37-85.48,42.11-113.29,4.6-10.88,7.93-20.68,8.93-29.88,0,0,17.41,19.83,27.21,59.55s5.78,61.33,9.1,76.5,18.19,21.21,18.94,42.27C1751.36,796.11,1742.83,811.65,1730,824.13Z"/><path class="cls-46" d="M1730,824.13c-12.86,12.49-30,21.92-47,20.23-33.81-3.37-48.39-44.84-38.3-93.93,10.38-50.55,30.37-85.48,42.11-113.29,0,0-35.58,118.88-.31,152.44C1701.8,804.14,1718.94,815,1730,824.13Z"/><path class="cls-47" d="M1737.07,816.38c-52.87,73.2-106.84-10.11-28.73-72,0,0,41.4-23.92,68.09-60.7a70.1,70.1,0,0,0,11.13-23.07s.59,20.15-5.18,49.34C1776.46,739.84,1763.86,779.33,1737.07,816.38Z"/><path class="cls-48" d="M1737.07,816.38c-52.87,73.2-106.84-10.11-28.73-72,0,0-28.27,48.61-3.68,61.32,26.11,13.5,65.8-46.55,77.72-95.75C1776.46,739.84,1763.86,779.33,1737.07,816.38Z"/><path class="cls-49" d="M1054,199.28c-3.41,14.4-6.71,39.08-27.16,41.26-6.56.7-14.23-4-18.5-8.65.17,3.12.46,8.21.92,11.16,25.24,17,44.75-17.67,49.24-36.64.49-2-4.9-5.44-4.5-7.13Z"/><path class="cls-50" d="M1064.81,204.24A292,292,0,0,0,1052,238.41c-2.74,9.27-5.62,19.17-5.13,29,.75,15.17,9.27,29.32,22.11,38.75a73.06,73.06,0,0,1-.79-9.91c-5.45-2.82-12-6.84-15.34-12.82-5.22-9.19-2.72-19.4-.43-28.72,3.64-14.8,9.1-29,15.2-43,.84-1.93-2.84-7.44-2.81-7.52Z"/><path class="cls-51" d="M1093.28,258.13c-2.87,14.48-13,12.29-13.24,12.23a22.09,22.09,0,0,1-7.22-9.25c-2.1-5.2-2-10.82-1-16.09,2.22-11.37,7.37-22.46,11.28-33.31.09-.26-8.05-2.1-8.63-.48-2.76,7.66-5.6,15.29-8.27,23-2.47,7.1-4.79,14.64-3.25,22.33,2.2,11.06,12.37,16.35,19.41,17.3,14.94,2.52,19.79-8.73,19.79-8.73Z"/><path class="cls-52" d="M1046.32,196.63c-4.86,33.18-26,54.44-31.94,57.13-6.3,2.86-15.14-4.62-18.72-10.36a68.77,68.77,0,0,1-9,3.89c30.69,31.91,65.25-17.61,67.76-44.33.17-1.87-6.79-6.07-6.81-5.87Z"/><path class="cls-53" d="M1058,200.9c-5.23,18.59-10.71,42.63-24.45,58.58-9,10.46-22.53,16.94-38.5,17.92,1.31,2.6,3.86,8.82,4.71,10.65,40.44-2.48,56.8-48.92,65.46-79.68.58-2.05-4.61-7.05-4.56-7.25Z"/><path class="cls-54" d="M1068.33,207c-6.13,19.05-15.32,44.16-5.89,64.26,6.56,14,22.54,23.39,38.3,23.82a104.67,104.67,0,0,1-9.11-5.37c-18.53-.5-23.78-22-23.75-35.23,0-15.3,4.72-29.88,9.33-44.21.33-1-8.61-4.1-8.88-3.27Z"/><path class="cls-55" d="M1086.59,203.25c-6,12-12.38,27.7-6.2,41.09,7.25,15.68,22.46,26.92,40.62,20.09a46,46,0,0,1-4.21-7.28c-13.61,5.12-35.29-.47-35-17.43.16-9.63,4.77-20.75,9-29.19.88-1.75-4.68-6.35-4.21-7.28Z"/><path class="cls-56" d="M1123.17,45.34l-57.39,166.87c-4.24-1.46-8.15-3-11.47-4.4-6.2-2.66-10.33-5-10.63-6.26,0-.07,0-.14,0-.22-2.9-48.51-15.74-97.45-15.74-97.45,45.19-28.91,64.87-69,64.87-69Z"/><path class="cls-57" d="M1123.17,45.34l-57.39,166.87c4.23,1.46,8.24,2.68,11.74,3.59,6.52,1.71,11.24,2.38,12.23,1.6l.15-.16c32.13-36.47,72.36-67.15,72.36-67.15-17.85-50.6-8.71-94.3-8.71-94.3Z"/><path class="cls-58" d="M1123.17,45.34l-57.39,166.87c-4.24-1.46-8.15-3-11.47-4.4.21-1.83.43-3.65.63-5.46A574.88,574.88,0,0,0,1058,120v0c30.23-34.07,49.17-80.13,49.17-80.13Z"/><path class="cls-59" d="M1128.61,144.25l0,0a575.72,575.72,0,0,0-48.21,66.82q-1.43,2.33-2.86,4.7c-3.5-.91-7.51-2.13-11.74-3.59l57.39-166.87,16,5.49S1125.73,98.8,1128.61,144.25Z"/><path class="cls-60" d="M1128.58,144.28a340.58,340.58,0,0,1-36-10.09l0,0,0,0A340.81,340.81,0,0,1,1058,120a305.35,305.35,0,0,1-30.11-16.14s12.84,48.94,15.74,97.45c0,.08,0,.15,0,.22.3,1.23,4.43,3.6,10.63,6.26,3.32,1.44,7.22,2.94,11.45,4.4l0-.06v.06c4.24,1.46,8.23,2.68,11.74,3.58,6.52,1.72,11.24,2.39,12.23,1.61l.15-.17c32.12-36.46,72.35-67.14,72.35-67.14A307.31,307.31,0,0,1,1128.58,144.28Z"/><path class="cls-61" d="M1153.48,56c-.75,2.17-15-.76-31.74-6.53s-29.77-12.2-29-14.37,15,.75,31.73,6.53S1154.22,53.83,1153.48,56Z"/></g></g></svg>