<svg xmlns="http://www.w3.org/2000/svg" xmlns:xlink="http://www.w3.org/1999/xlink" viewBox="0 0 1606.94 856.81"><defs><style>.cls-1{fill:#fff;stroke:#1d1d1b;stroke-miterlimit:10;filter:url(#luminosity-invert-noclip);}.cls-2{isolation:isolate;}.cls-3{fill:url(#linear-gradient);}.cls-4{fill:url(#linear-gradient-2);}.cls-10,.cls-11,.cls-12,.cls-19,.cls-21,.cls-22,.cls-23,.cls-24,.cls-25,.cls-26,.cls-27,.cls-28,.cls-29,.cls-30,.cls-31,.cls-32,.cls-41,.cls-45,.cls-47,.cls-5,.cls-59,.cls-6,.cls-61,.cls-7,.cls-8,.cls-9{mix-blend-mode:multiply;}.cls-10,.cls-11,.cls-21,.cls-22,.cls-23,.cls-24,.cls-25,.cls-26,.cls-27,.cls-28,.cls-29,.cls-30,.cls-31,.cls-32,.cls-5,.cls-6,.cls-7,.cls-8,.cls-9{opacity:0.4;}.cls-5{fill:url(#linear-gradient-3);}.cls-6{fill:url(#linear-gradient-4);}.cls-7{fill:url(#linear-gradient-5);}.cls-8{fill:url(#linear-gradient-6);}.cls-9{fill:url(#linear-gradient-7);}.cls-10{fill:url(#linear-gradient-8);}.cls-11{fill:url(#linear-gradient-9);}.cls-12,.cls-19,.cls-59{opacity:0.3;}.cls-12{fill:url(#linear-gradient-10);}.cls-13{fill:url(#linear-gradient-11);}.cls-14{fill:url(#linear-gradient-12);}.cls-15{fill:url(#linear-gradient-13);}.cls-16{fill:url(#linear-gradient-14);}.cls-17{fill:url(#linear-gradient-15);}.cls-18{fill:url(#linear-gradient-16);}.cls-19{fill:url(#linear-gradient-17);}.cls-20{fill:url(#linear-gradient-18);}.cls-21{fill:url(#linear-gradient-19);}.cls-22{fill:url(#linear-gradient-20);}.cls-23{fill:url(#linear-gradient-21);}.cls-24{fill:url(#linear-gradient-22);}.cls-25{fill:url(#linear-gradient-23);}.cls-26{fill:url(#linear-gradient-24);}.cls-27{fill:url(#linear-gradient-25);}.cls-28{fill:url(#linear-gradient-26);}.cls-29{fill:url(#linear-gradient-27);}.cls-30{fill:url(#linear-gradient-28);}.cls-31{fill:url(#linear-gradient-29);}.cls-32{fill:url(#linear-gradient-30);}.cls-33{mask:url(#mask);}.cls-34{fill:#5d14a6;}.cls-35{fill:#eee;}.cls-36{fill:#6a8700;}.cls-37{fill:#8abf17;}.cls-38{fill:url(#linear-gradient-31);}.cls-39{fill:url(#linear-gradient-32);}.cls-40{fill:url(#linear-gradient-33);}.cls-41,.cls-42{fill:#fce000;}.cls-43{fill:url(#linear-gradient-34);}.cls-44{fill:url(#linear-gradient-35);}.cls-45{opacity:0.25;fill:url(#linear-gradient-36);}.cls-46{fill:url(#linear-gradient-37);}.cls-47{opacity:0.2;fill:url(#linear-gradient-38);}.cls-48{fill:url(#linear-gradient-39);}.cls-49{fill:url(#linear-gradient-40);}.cls-50{fill:url(#linear-gradient-41);}.cls-51{fill:url(#linear-gradient-42);}.cls-52{fill:url(#linear-gradient-43);}.cls-53{fill:url(#linear-gradient-44);}.cls-54{fill:url(#linear-gradient-45);}.cls-55{fill:url(#linear-gradient-46);}.cls-56{fill:url(#linear-gradient-47);}.cls-57{fill:url(#linear-gradient-48);}.cls-58{fill:url(#linear-gradient-49);}.cls-59{fill:url(#linear-gradient-50);}.cls-60{fill:url(#linear-gradient-51);}.cls-61{fill:url(#radial-gradient);}</style><linearGradient id="linear-gradient" x1="-894.13" y1="421.83" x2="-894.13" y2="614.7" gradientTransform="translate(1202.56 -407.38) rotate(-2.89)" gradientUnits="userSpaceOnUse"><stop offset="0" stop-color="#ff0"/><stop offset="0.16" stop-color="#feee04"/><stop offset="0.46" stop-color="#fac00d"/><stop offset="0.9" stop-color="#f4781d"/><stop offset="1" stop-color="#f26521"/></linearGradient><linearGradient id="linear-gradient-2" x1="-834.77" y1="461.43" x2="-963.57" y2="626.71" gradientTransform="translate(1202.56 -407.38) rotate(-2.89)" gradientUnits="userSpaceOnUse"><stop offset="0" stop-color="#ff9800"/><stop offset="0.41" stop-color="#fa8700"/><stop offset="1" stop-color="#f06700"/></linearGradient><linearGradient id="linear-gradient-3" x1="-948.84" y1="487.67" x2="-993.72" y2="529.22" gradientTransform="translate(1202.56 -407.38) rotate(-2.89)" gradientUnits="userSpaceOnUse"><stop offset="0" stop-color="#ffb000"/><stop offset="0.29" stop-color="#fc9f08"/><stop offset="0.86" stop-color="#f4721b"/><stop offset="1" stop-color="#f26521"/></linearGradient><linearGradient id="linear-gradient-4" x1="-926.71" y1="488.86" x2="-971.58" y2="530.41" xlink:href="#linear-gradient-3"/><linearGradient id="linear-gradient-5" x1="-4974.47" y1="474.05" x2="-5020.24" y2="516.43" gradientTransform="matrix(-1, 0.05, 0.05, 1, -4621.02, -114.01)" xlink:href="#linear-gradient-3"/><linearGradient id="linear-gradient-6" x1="-902.81" y1="492.12" x2="-945.72" y2="531.85" xlink:href="#linear-gradient-3"/><linearGradient id="linear-gradient-7" x1="-906.01" y1="486.49" x2="-984.74" y2="486.49" xlink:href="#linear-gradient-3"/><linearGradient id="linear-gradient-8" x1="-851.55" y1="502.68" x2="-997.49" y2="502.68" xlink:href="#linear-gradient-3"/><linearGradient id="linear-gradient-9" x1="-857.57" y1="521.2" x2="-1003.51" y2="521.2" xlink:href="#linear-gradient-3"/><linearGradient id="linear-gradient-10" x1="-774.59" y1="535.56" x2="-1026.69" y2="535.56" gradientTransform="translate(1202.56 -407.38) rotate(-2.89)" gradientUnits="userSpaceOnUse"><stop offset="0" stop-color="#ff7f00"/><stop offset="0.23" stop-color="#ee7806"/><stop offset="0.69" stop-color="#c16717"/><stop offset="1" stop-color="#9e5923"/></linearGradient><linearGradient id="linear-gradient-11" x1="-743.28" y1="515.94" x2="-762.52" y2="439" gradientTransform="translate(1202.56 -407.38) rotate(-2.89)" gradientUnits="userSpaceOnUse"><stop offset="0" stop-color="#e93326"/><stop offset="0.19" stop-color="#ec4420"/><stop offset="0.57" stop-color="#f57212"/><stop offset="1" stop-color="#ffab00"/></linearGradient><linearGradient id="linear-gradient-12" x1="1572.88" y1="-831.08" x2="1553.65" y2="-908.02" gradientTransform="translate(-1194.58 367.48) rotate(19.83)" xlink:href="#linear-gradient-11"/><linearGradient id="linear-gradient-13" x1="-1130.26" y1="590.03" x2="-1137.77" y2="518.86" xlink:href="#linear-gradient-11"/><linearGradient id="linear-gradient-14" x1="1591.29" y1="-810.55" x2="1583.64" y2="-882.97" gradientTransform="translate(-1184.82 367.27) rotate(19.78)" xlink:href="#linear-gradient-11"/><linearGradient id="linear-gradient-15" x1="-898.95" y1="155.94" x2="-898.95" y2="1205.6" xlink:href="#linear-gradient"/><linearGradient id="linear-gradient-16" x1="-898.61" y1="158.22" x2="-898.61" y2="1207.88" xlink:href="#linear-gradient-3"/><linearGradient id="linear-gradient-17" x1="-896.28" y1="608.91" x2="-896.28" y2="675.6" xlink:href="#linear-gradient-10"/><linearGradient id="linear-gradient-18" x1="-894.14" y1="597.23" x2="-894.14" y2="709.99" gradientTransform="translate(1202.56 -407.38) rotate(-2.89)" gradientUnits="userSpaceOnUse"><stop offset="0" stop-color="#9f1727"/><stop offset="0.16" stop-color="#aa2822"/><stop offset="0.48" stop-color="#c85616"/><stop offset="0.93" stop-color="#f79e03"/><stop offset="1" stop-color="#ffab00"/></linearGradient><linearGradient id="linear-gradient-19" x1="-1060.73" y1="669.3" x2="-1071.83" y2="564.13" xlink:href="#linear-gradient-3"/><linearGradient id="linear-gradient-20" x1="-1025.94" y1="648.89" x2="-1034.7" y2="565.96" xlink:href="#linear-gradient-3"/><linearGradient id="linear-gradient-21" x1="-751.19" y1="660.79" x2="-770.41" y2="478.68" xlink:href="#linear-gradient-3"/><linearGradient id="linear-gradient-22" x1="-709.61" y1="676.07" x2="-730.35" y2="479.53" xlink:href="#linear-gradient-3"/><linearGradient id="linear-gradient-23" x1="-794.15" y1="630.03" x2="-826.82" y2="499.37" xlink:href="#linear-gradient-3"/><linearGradient id="linear-gradient-24" x1="-535.85" y1="328.28" x2="-1163.27" y2="699.64" xlink:href="#linear-gradient-3"/><linearGradient id="linear-gradient-25" x1="-748.71" y1="558.64" x2="-751.3" y2="534.13" xlink:href="#linear-gradient-3"/><linearGradient id="linear-gradient-26" x1="-969.32" y1="548.31" x2="-1106.8" y2="629.69" xlink:href="#linear-gradient-3"/><linearGradient id="linear-gradient-27" x1="-668" y1="540.01" x2="-786.05" y2="609.88" xlink:href="#linear-gradient-3"/><linearGradient id="linear-gradient-28" x1="-917.97" y1="489.87" x2="-917.97" y2="701.44" xlink:href="#linear-gradient-3"/><linearGradient id="linear-gradient-29" x1="-976.25" y1="553.46" x2="-976.25" y2="676.02" xlink:href="#linear-gradient-3"/><linearGradient id="linear-gradient-30" x1="-755.42" y1="568.8" x2="-999.17" y2="713.07" xlink:href="#linear-gradient-3"/><filter id="luminosity-invert-noclip" x="45.2" y="219.87" width="1475.51" height="546.43" filterUnits="userSpaceOnUse" color-interpolation-filters="sRGB"><feColorMatrix values="-1 0 0 0 1 0 -1 0 0 1 0 0 -1 0 1 0 0 0 1 0" result="invert"/><feFlood flood-color="#fff" result="bg"/><feBlend in="invert" in2="bg"/></filter><mask id="mask" x="45.2" y="219.87" width="1475.51" height="546.43" maskUnits="userSpaceOnUse"><path class="cls-1" d="M447,258.84c0-14.08-51.3-41.24-110.88-38.24s-100.9,34.33-100.9,48.7c0,7.51,46.17-5,105.76-8S447,266.35,447,258.84Z"/></mask><linearGradient id="linear-gradient-31" x1="3183.98" y1="-1067.66" x2="3183.98" y2="-1134.22" gradientTransform="translate(-1882.52 610.96) rotate(18.3)" gradientUnits="userSpaceOnUse"><stop offset="0" stop-color="#516202"/><stop offset="1" stop-color="#898701"/></linearGradient><linearGradient id="linear-gradient-32" x1="3260.36" y1="-1046.15" x2="3260.36" y2="-1139.59" gradientTransform="translate(-1882.52 610.96) rotate(18.3)" gradientUnits="userSpaceOnUse"><stop offset="0" stop-color="#293b0d"/><stop offset="1" stop-color="#898701"/></linearGradient><linearGradient id="linear-gradient-33" x1="3221.48" y1="-947.23" x2="3221.48" y2="-1248.58" gradientTransform="translate(-1882.52 610.96) rotate(18.3)" gradientUnits="userSpaceOnUse"><stop offset="0" stop-color="#f48b27"/><stop offset="1" stop-color="#fce000"/></linearGradient><linearGradient id="linear-gradient-34" x1="3217.16" y1="-835.25" x2="3217.16" y2="-901.8" xlink:href="#linear-gradient-31"/><linearGradient id="linear-gradient-35" x1="3218.59" y1="-869.08" x2="3218.59" y2="-1170.21" xlink:href="#linear-gradient-31"/><linearGradient id="linear-gradient-36" x1="3213.91" y1="-870.55" x2="3213.91" y2="-1130.88" xlink:href="#linear-gradient-31"/><linearGradient id="linear-gradient-37" x1="3242.79" y1="-873.39" x2="3242.79" y2="-1141.92" xlink:href="#linear-gradient-31"/><linearGradient id="linear-gradient-38" x1="3242.79" y1="-875.68" x2="3242.79" y2="-1080.77" xlink:href="#linear-gradient-31"/><linearGradient id="linear-gradient-39" x1="2770.7" y1="-1387.92" x2="2770.7" y2="-1502.61" gradientTransform="translate(-2003.69 707.44) rotate(18.98)" gradientUnits="userSpaceOnUse"><stop offset="0" stop-color="#920122"/><stop offset="1" stop-color="#ff0142"/></linearGradient><linearGradient id="linear-gradient-40" x1="2813.33" y1="-1397.14" x2="2813.33" y2="-1503.88" gradientTransform="translate(-2003.69 707.44) rotate(18.98)" gradientUnits="userSpaceOnUse"><stop offset="0" stop-color="#ffb500"/><stop offset="1" stop-color="#fc0"/></linearGradient><linearGradient id="linear-gradient-41" x1="2828.52" y1="-1394.56" x2="2828.52" y2="-1502.06" gradientTransform="translate(-2003.69 707.44) rotate(18.98)" gradientUnits="userSpaceOnUse"><stop offset="0" stop-color="#8e3326"/><stop offset="0.19" stop-color="#9e4420"/><stop offset="0.57" stop-color="#c97212"/><stop offset="1" stop-color="#ffab00"/></linearGradient><linearGradient id="linear-gradient-42" x1="3556.7" y1="-2965.42" x2="3556.7" y2="-2893.91" gradientTransform="matrix(0.85, 0.53, -0.53, 0.85, -3487.29, 803.76)" gradientUnits="userSpaceOnUse"><stop offset="0" stop-color="#3b6b00"/><stop offset="1" stop-color="#6cbf00"/></linearGradient><linearGradient id="linear-gradient-43" x1="2957.26" y1="-1765.43" x2="2957.26" y2="-1678.01" gradientTransform="translate(-2291.27 754.62) rotate(21.59)" gradientUnits="userSpaceOnUse"><stop offset="0" stop-color="#6c0caa"/><stop offset="1" stop-color="#3b0361"/></linearGradient><linearGradient id="linear-gradient-44" x1="2280.08" y1="-801.37" x2="2280.08" y2="-729.98" gradientTransform="matrix(0.98, 0.21, -0.21, 0.98, -1245.14, 525.06)" xlink:href="#linear-gradient-39"/><linearGradient id="linear-gradient-45" x1="2340.13" y1="-860.37" x2="2390.32" y2="-860.37" gradientTransform="translate(-1335.46 551.55) rotate(12.83)" xlink:href="#linear-gradient-40"/><linearGradient id="linear-gradient-46" x1="2763.38" y1="-1526.3" x2="2763.38" y2="-1641.78" gradientTransform="translate(-2003.69 707.44) rotate(18.98)" xlink:href="#linear-gradient-43"/><linearGradient id="linear-gradient-47" x1="-8946.38" y1="-1526.75" x2="-8946.38" y2="-1642.23" gradientTransform="matrix(-0.95, -0.33, -0.33, 0.95, -7783.31, -1279.75)" xlink:href="#linear-gradient-39"/><linearGradient id="linear-gradient-48" x1="2780.23" y1="-1525.85" x2="2780.23" y2="-1634.88" gradientTransform="translate(-2003.69 707.44) rotate(18.98)" xlink:href="#linear-gradient-42"/><linearGradient id="linear-gradient-49" x1="2817.55" y1="-1521.37" x2="2817.55" y2="-1634.11" xlink:href="#linear-gradient-40"/><linearGradient id="linear-gradient-50" x1="2727.86" y1="-1529.44" x2="2869.92" y2="-1529.44" gradientTransform="translate(-2003.69 707.44) rotate(18.98)" gradientUnits="userSpaceOnUse"><stop offset="0" stop-color="#856a58"/><stop offset="1" stop-color="#a04437"/></linearGradient><linearGradient id="linear-gradient-51" x1="2798.89" y1="-1673.07" x2="2798.89" y2="-1638.68" xlink:href="#linear-gradient-41"/><radialGradient id="radial-gradient" cx="350.78" cy="161.91" r="248.42" gradientUnits="userSpaceOnUse"><stop offset="0" stop-color="#1d1d1b"/><stop offset="1" stop-color="#fff"/></radialGradient></defs><g class="cls-2"><g id="Layer_1" data-name="Layer 1"><path class="cls-3" d="M451.49,202.07s-58.36,49.17-226.71,3.73c0,0,8.79-54.37,19.36-87.84v0C248,105.78,252,96.4,256,93.36c14.83-11.43,52.82,6.62,90.18.45s39.31-24.17,55.41-15.32c10.88,6,20.87,20,29,38C441.77,141.07,449.55,173,451.49,202.07Z"/><path class="cls-4" d="M451.63,204.77s-58.37,49.17-226.72,3.73c0,0,8.8-54.36,19.37-87.84v0c3.84-12.14,7.88-21.52,11.84-24.56,14.83-11.43,52.82,6.61,90.17.45s39.32-24.17,55.41-15.33c10.88,6,20.87,20,29,38C441.91,143.77,449.68,175.73,451.63,204.77Z"/><path class="cls-5" d="M257.36,110.27s-17.68,53.93-12.26,92.22C245.1,202.49,248.89,141.72,257.36,110.27Z"/><path class="cls-6" d="M279.53,110.35s-17.68,53.92-12.26,92.22C267.27,202.57,271.06,141.79,279.53,110.35Z"/><path class="cls-7" d="M390.08,91.09s26.76,37.33,25,88.64C415.08,179.73,410.17,129.11,390.08,91.09Z"/><path class="cls-8" d="M303.11,111.78s-14.61,43.36-8.89,90.94C294.22,202.72,295.09,143.53,303.11,111.78Z"/><path class="cls-9" d="M249.35,123.1s34.39,6.15,71.13,5.35C301.77,130.91,267.6,130.06,249.35,123.1Z"/><path class="cls-10" d="M242.57,139.85s62.8,11.62,131.14-4C373.71,135.8,304,155.3,242.57,139.85Z"/><path class="cls-11" d="M237.49,158.65s62.8,11.62,131.14-4C368.63,154.61,299,174.1,237.49,158.65Z"/><path class="cls-12" d="M451.63,204.77s-58.37,49.17-226.72,3.73c0,0,8.8-54.36,19.37-87.84.15,1.61,5.06,55.52,65.58,51.89,61.45-3.68,109.86-28.14,120.88-53.35C441.91,143.77,449.68,175.73,451.63,204.77Z"/><path class="cls-13" d="M476.6,84.23c-3.81-7.07-13.12-18.18-13.12-18.18a30.13,30.13,0,0,1-9.24,10.14s22.52,19.3,29.76,53.62l4.91-7S485.9,101.49,476.6,84.23Z"/><path class="cls-14" d="M581.11,61.08c-.38-9.72-4-23.55-4-23.55s-5.88,2.4-12.45,5.78c0,0,13.33,26.5,6.75,61l7.23-4.56A211.08,211.08,0,0,0,581.11,61.08Z"/><path class="cls-15" d="M102.36,182.86c-2.2-6.68-8.54-17.67-8.54-17.67a26.38,26.38,0,0,1-9.51,7.32S96.66,188.15,99,218l8.07,0S107.75,199.16,102.36,182.86Z"/><path class="cls-16" d="M606.42,70.14a70.59,70.59,0,0,0-14-1.66s8.43,22.77,2.81,55.74l8.2,1.92S612.91,87.36,606.42,70.14Z"/><path class="cls-17" d="M578.87,78.24s-4.59-11-16.28-26.7C557.8,45.09,547,35.45,547,35.45A30.09,30.09,0,0,1,539.3,46.8S555.44,57,568.08,78.1c-5.77.15-14.85.67-27.14,2.22-.43-1.77-.89-3.54-1.43-5.29-2.37-7.68-9.36-20.37-9.36-20.37a30.1,30.1,0,0,1-11,8.15,89.76,89.76,0,0,1,10.57,19.1c-10,1.57-21.7,3.75-35,6.79.37-2.09.68-4.2.9-6.31.8-8-.7-22.41-.7-22.41a30.1,30.1,0,0,1-13.33,3.22s3.14,11.49,2.09,28.16c-30,7.48-67.06,19.1-111,37.22-9.91,4.08-19.35,8.08-28.47,12,.33-2,.62-3.91.82-5.89.8-8-.81-22.35-.81-22.35s-7.37,3.73-14.45,3.57c0,0,3.75,10.67,2.31,29.84-59.85,25.95-103.24,46.53-149.47,54-2.95-20.38.86-35.29.86-35.29a30.25,30.25,0,0,1-13.38-3s-1.28,14.43-.36,22.41a102.26,102.26,0,0,0,3.66,17.21,225.8,225.8,0,0,1-23.59,1.62,101.54,101.54,0,0,0,3.37-17.12c.8-8-.69-22.41-.69-22.41a33.14,33.14,0,0,1-13.74,3.2s4.58,15.35,1.66,36.28c-6.61-.17-13.35-.63-20.26-1.4-3.64-21.61,1.18-37.66,1.18-37.66-7.07.27-14-3.05-14-3.05S106,175,106.93,182.94A102.34,102.34,0,0,0,110.54,200a300.91,300.91,0,0,1-30.26-6.18c-8-15.17-9-27.74-9-27.74-6.42,3-15,3-15,3s5.11,13.62,9.07,20.62c0,0,28,67.68,123.72,99.58,49.37,16.44,197.19,14,269-4C547.1,260.16,653.32,103.3,578.87,78.24Z"/><path class="cls-18" d="M579,80.51s-4.59-11-16.29-26.69c-4.79-6.45-15.6-16.1-15.6-16.1a30.17,30.17,0,0,1-7.69,11.36s16.15,10.24,28.79,31.29c-5.77.15-14.85.68-27.15,2.23-.42-1.77-.88-3.55-1.42-5.29-2.38-7.68-9.37-20.37-9.37-20.37a30.1,30.1,0,0,1-11,8.15,89.76,89.76,0,0,1,10.57,19.1c-10,1.56-21.7,3.75-34.94,6.79.36-2.09.68-4.2.89-6.32.8-8-.69-22.4-.69-22.4a30.08,30.08,0,0,1-13.34,3.21s3.14,11.5,2.09,28.16c-30,7.48-67.05,19.11-111,37.23-9.91,4.08-19.35,8.08-28.47,12,.33-2,.62-3.92.82-5.89.8-8-.69-22.4-.69-22.4a30.22,30.22,0,0,1-13.33,3.21s3.34,12.32,1.94,29.93C273.23,173.66,229,194.56,182.74,202c-3-20.38.87-35.3.87-35.3a30,30,0,0,1-13.38-3s-1.29,14.43-.37,22.42a103.25,103.25,0,0,0,3.66,17.21A222.93,222.93,0,0,1,149.94,205a103.56,103.56,0,0,0,3.37-17.12c.8-8-.69-22.4-.69-22.4a30.08,30.08,0,0,1-13.34,3.21s4.17,15.33,1.25,36.27c-6.6-.17-13.34-.63-20.26-1.4-3.64-21.62.52-37.69.52-37.69a30.25,30.25,0,0,1-13.38-3s-1.28,14.43-.36,22.41a101.77,101.77,0,0,0,3.61,17.05,301.78,301.78,0,0,1-30.27-6.19c-8-15.16-9.82-27.33-9.82-27.33a30.14,30.14,0,0,1-13.5,2.43S61.51,185,65.46,192c0,0,28,67.69,123.72,99.58,49.37,16.45,197.2,14,269.05-4C547.22,262.44,653.43,105.57,579,80.51Z"/><path class="cls-19" d="M539.87,234.22c-25,25.22-54.12,45.6-81.64,53.35-71.85,17.94-219.67,20.43-269,4a246,246,0,0,1-52.38-24.31c1.86.93,24.07,13,46.49,12,24.2-1.15,43.34-19.88,130.45-29.83s130.93,6.46,165.86,9.18C511.67,261.1,536.82,236.8,539.87,234.22Z"/><path class="cls-20" d="M452.69,269.27c.38,7.51-49,16.1-110.3,19.19s-111.3-.48-111.68-8,49-16.1,110.31-19.19S452.32,261.77,452.69,269.27Z"/><path class="cls-21" d="M122.68,212s22.73,51.92,86.86,67.52C209.54,279.47,157.35,262.84,122.68,212Z"/><path class="cls-22" d="M219.21,267.43S192,254.67,185,208.81C185,208.81,195.29,248.52,219.21,267.43Z"/><path class="cls-23" d="M493.22,97s5.58,83.83-52.56,148.73C440.66,245.68,479.68,201.91,493.22,97Z"/><path class="cls-24" d="M463.4,257.82s78.47-46.26,88.72-165.54C552.12,92.28,559.74,205.31,463.4,257.82Z"/><path class="cls-25" d="M415,242.29s14.06-60.63,3.78-120C418.81,122.26,438.45,176.48,415,242.29Z"/><path class="cls-26" d="M97,218.52s45.16,17.15,130.57-.09c62.47-12.61,139.32-49,200-71,38.42-14,110.24-36.85,157-16.67,0,0-56.91-20.24-185.65,32.19-48.6,19.79-107.86,45.1-167.44,57.52C189.26,229.25,137.05,234.06,97,218.52Z"/><path class="cls-27" d="M388.44,191.7s65-27,119.73-33c41.93-4.58,66.47,8.21,66.47,8.21s-36.41-6.56-69.41-2.9C460.23,169,388.44,191.7,388.44,191.7Z"/><path class="cls-28" d="M130.5,243.92s45.17,4.52,112.83-10.2C243.33,233.72,195.66,254.49,130.5,243.92Z"/><path class="cls-29" d="M447.62,209.68s61.54-14.5,100.87-2.73C548.49,207,520.74,187.16,447.62,209.68Z"/><path class="cls-30" d="M308.49,179.31s-2,24.65,12,50.52A507.94,507.94,0,0,1,308.49,179.31Z"/><path class="cls-31" d="M252.84,224.27a49.21,49.21,0,0,0,9.74,29.13S254.26,234.1,252.84,224.27Z"/><path class="cls-32" d="M241.78,293.54s67.76,14,203.34-13.11C445.12,280.43,350,311.19,241.78,293.54Z"/><g class="cls-33"><path class="cls-34" d="M1477.17,272.37c-24.28-15.15-54.14-22.91-88.76-23.06h-1.08c-33.94,0-63.5,7.14-87.85,21.22a96.7,96.7,0,0,0-18.4,13.78,77.14,77.14,0,0,0-19.53-14.75c-28.7-15.19-61.14-17.09-89.29-17.68h-.59q-50.14-.18-100.29-.33l-34.2-.09,0,16.82c-1.16-.72-2.33-1.44-3.52-2.12-27.84-16-62.51-24.16-103-24.19h-.21c-40.24,0-73.38,7.6-101.32,23.23-1,.54-1.91,1.08-2.84,1.64V251.18H667.92v13.16c-26.93-11.22-56.29-12.63-82-13h-.57q-50.15.1-100.28.24l-33.83.09-.07,23.69c-1.42-.94-2.86-1.85-4.34-2.73-26.13-15.47-58.84-23.31-97.29-23.31-38.65,0-71.9,8.36-98.85,24.83a106.3,106.3,0,0,0-15.44,11.48l0-31.54-34.27.21-6.9,0c-14.32,0-33.87-.21-52.78-.4-19.27-.2-39.2-.41-54.15-.41-2.92,0-5.68,0-8.2,0l-33.79.22V766.3L86.64,757C244,721.83,354,713.3,419.72,708.2c11.72-.91,21.72-1.69,30.29-2.49v.83l36.74-2.84c29.79-2.3,60-4.32,89.86-6l12.83-.72,13.11-.61c30.72-1.43,61.89-2.54,92.65-3.31l5.31-.13,1.59,0c28.79-.42,58-.63,86.91-.63h37.32v-3.6c15.83,7,31.7,8.33,41.73,8.33l1.57,0c12.63-.17,26.43-1.07,40.09-4.9V694l32.47,1.43c35.66,1.57,71.81,3.62,107.45,6.1l10,.69,10,.78c32.8,2.57,66,5.55,98.7,8.86l.45,0c11.92,1,23.63,2,35.83,2,21.29,0,39.19-3,54.72-9.27a69.14,69.14,0,0,0,19-11.48,110.13,110.13,0,0,0,18.62,17c23.68,17.18,53.44,28.82,86.07,33.66a232.67,232.67,0,0,0,34.16,2.74c20.69,0,38.71-3.42,55.11-10.45,29.77-12.77,48.74-43.08,48.38-77.28V352.49C1520.92,320,1504.25,289.26,1477.17,272.37Z"/><path class="cls-35" d="M201.23,288.3c-.19,122.31-.35,234.62-.54,356.92C276,633,452,618.09,464.63,616.4l-.11,53.39c-42.58,6.61-173.3,6.63-385.31,54.05V287.54C109.31,287.34,171.13,288.48,201.23,288.3Z"/><path class="cls-35" d="M356.26,345.48c-1.76-1.52-4.42-2.25-7.94-2.19-4.24.08-7.07.92-8.49,2.5s-2.13,4.17-2.14,7.73c-.23,82.89-.47,113.61-.7,196.51q0,5.36,2.09,7.47c1.4,1.41,4.23,1.91,8.47,1.49,3.52-.36,6.17-1.39,7.95-3.12s2.66-4.34,2.67-7.89c.08-27.46.16-33.75.24-61.2q50.86-3.5,101.77-6.18c-.07,25.65-.14,30.14-.21,55.79.06,24.5-13.41,42.08-32,55.44-23,16.5-52.88,23.86-80.61,27.13-26.54,3.13-55.12,2.79-80.34-9.07-20.74-9.76-31.83-29.33-31.57-52,.18-83.53.36-114.88.54-198.41-.07-23.77,12.34-44,32.43-56.31,24.61-15,53.37-19.83,81.12-19.84,26.86,0,56.05,4.42,80,18.57,19,11.26,31.34,30,31.11,52.57-.12,44.41-.25,57.8-.37,102.21q-66.81,3.16-133.55,7.59c.06-20.12.11-9.23.17-29.35q15.88-.75,31.78-1.47.12-40.18.23-80.37C358.89,349.53,358,347,356.26,345.48Z"/><path class="cls-35" d="M590.87,497.57c-1.5-1.21-3.78-1.77-6.79-1.68l-9.05.28q-.16,83.77-.35,167.55-45.31,2.56-90.56,6.07.53-192.1,1-384.2,50.13-.15,100.26-.24c24.76.36,51.62,1.6,74.05,12.47,15.44,7.48,24.57,23.76,24.35,40.83l-.09,75.89c-.42,12.5-.54,25.75-5.92,36.68-5.52,11.22-20.21,15.77-32.15,18.44v1.07c11.8,2.67,26.47,5.24,32.11,16.85,5.4,11.11,5.45,24.45,5.84,37.05l-.09,85.51q0,9.09.43,15.49a112.35,112.35,0,0,0,1.35,11.45,38.61,38.61,0,0,0,3.16,9.81q2.26,4.74,5.89,11.08V659q-46.73,1.15-93.39,3.33a62.77,62.77,0,0,1-6.76-20.15c-1.26-9.23-1.2-18.66-1.3-28q.11-55.26.22-110.53C593.12,500.83,592.36,498.78,590.87,497.57Zm.32-161.8c-1.5-1.25-3.77-1.86-6.77-1.84l-9,.08-.24,113.51,9-.22c3-.07,5.28-.75,6.79-2s2.27-3.37,2.27-6.26q.1-48.53.2-97.05C593.44,339.08,592.68,337,591.19,335.77Z"/><path class="cls-35" d="M792.3,658.24q-45.36,0-90.71.63.18-137.62.34-275.27l90.33,0Q792.29,520.91,792.3,658.24Z"/><path class="cls-35" d="M920.73,416.17q-54.08-.71-108.14-.89l0-66.35c-.17-23.51,13-42.77,33.17-54.05,26-14.57,56.13-18.92,84.91-18.9,29,0,60.2,4.75,86.09,19.65,20.25,11.65,34.54,31.1,34.45,55.19l.81,316.73q-54.12-3.75-108.32-6.14,0-24.09-.08-48.18l-2.25-.08a56.79,56.79,0,0,1-23.08,37.92c-14.3,10.14-32.33,11.67-49.11,11.9-15,.21-32-3.86-42.93-14.68-11.81-11.67-12.86-30.3-13.57-45.91l0-95.54c1-11.26,2.45-22.23,9.57-31.47a78.09,78.09,0,0,1,27-21.72c13.15-6.57,27.11-11.15,41.11-14.87,17.22-4.57,35.17-7.82,52.93-10.9q-.06-40.81-.14-81.64c0-3.56-1-6.14-2.82-7.71s-4.7-2.38-8.45-2.4-6.57.74-8.44,2.28-2.8,4.1-2.8,7.66Q920.68,381.13,920.73,416.17Zm11.38,71a32,32,0,0,0-7.32,9.19,29.73,29.73,0,0,0-3.36,11.28c-.37,4-.55,8-.55,12l.12,75.44c0,3.12,1,5.48,2.83,7.1s4.69,2.49,8.47,2.61,6.57-.54,8.45-2,2.82-4,2.81-7.6q-.09-56.88-.19-113.75A28.21,28.21,0,0,0,932.11,487.18Z"/><path class="cls-35" d="M1270.91,631.93c.29,17-7.85,34.5-24.23,41.08-23,9.24-50.48,7.11-74.89,5q-49.69-5-99.48-8.93l-1-383.49q50.13.13,100.25.33c24.85.52,51.91,2,74.1,13.74,16,8.49,24.65,26.43,24.5,44.28Q1270.53,487.91,1270.91,631.93Zm-93.34-293.56c-1.51-1.33-3.78-2-6.78-2.07l-9-.15q.42,145.31.85,290.61l9,.81c3,.27,5.27-.17,6.77-1.35s2.25-3.25,2.24-6.25l-.81-275.1C1179.83,341.88,1179.07,339.7,1177.57,338.37Z"/><path class="cls-35" d="M1486.69,659c.26,19.25-9.77,38.1-27.77,45.82-22.24,9.54-47.44,8.79-70.87,5.32-25-3.7-50.32-12.48-71.08-27.54-16.14-11.71-28.66-30.3-28-51q-.37-142.51-.74-285c-.79-19.83,11.77-37.09,28.32-46.66,22-12.72,47.43-16.76,71.76-16.66,24.17.11,49.64,4.65,70.89,17.91,17.32,10.8,27.7,30.69,27.53,51.13Zm-92.47-319.48c-1.5-1.43-3.77-2.19-6.77-2.27s-5.27.58-6.76,1.93-2.25,3.64-2.25,6.82q.25,150,.52,300c0,3.19.76,5.58,2.26,7.19a11,11,0,0,0,6.74,3.05c3,.42,5.24,0,6.74-1.14s2.24-3.38,2.24-6.59l-.45-302Q1396.48,341.71,1394.22,339.54Z"/><rect class="cls-36" x="701.93" y="285.19" width="90.34" height="90.34"/><rect class="cls-37" x="704.04" y="287.29" width="86.13" height="86.13"/></g><path class="cls-38" d="M1493.54,546.93s-14.45,10.6-23.17,31.43,17.34,16.89,17.34,16.89Z"/><path class="cls-39" d="M1564.09,604.67s-.14-25.59-9.24-37.46l-7.78,72.63S1560.38,623.76,1564.09,604.67Z"/><path class="cls-40" d="M1537.47,700.66s6.56-4.08,9.25-14.31a29.38,29.38,0,0,0-1.19-18.47s6.35-3.45,7.69-13.78-2-14.92-2-14.92a39.48,39.48,0,0,0,5.81-12.32c2.17-7.62-1-12.82-1-12.82s1.22-4.81,4.44-13.48-.24-12.93-.24-12.93a115.09,115.09,0,0,0,5-15c1.44-6.47-3.69-14.07-3.69-14.07s6.35-7.63,5.39-16.29a39.8,39.8,0,0,0-3.79-13.76s1.66-7.1-2.75-17.93c-1-13.72-11.31-16.25-11.31-16.25s-9.76-4.1-18.76,6.3c-10,6.08-12.91,12.76-12.91,12.76a39.72,39.72,0,0,0-11.24,8.79c-5.93,6.38-5.39,16.29-5.39,16.29s-8.65,3-11.35,9.1a115.33,115.33,0,0,0-5,15s-5.32,1.37-7.9,10.24-4.47,13.47-4.47,13.47-5.61,2.31-8.41,9.72a39.55,39.55,0,0,0-2.68,13.36s-5.42,1.68-10.51,10.77-2,15.65-2,15.65a29.37,29.37,0,0,0-12,14.12c-3.94,9.81-1.11,17-1.11,17s-8.86,6.45-9.92,16.18.6,13,.6,13l50.74,16.78,50.74,16.78s3.34-1.67,8.28-10.11S1537.47,700.66,1537.47,700.66Z"/><path class="cls-41" d="M1545.54,667.89a4.86,4.86,0,0,0,.64-.43,10.49,10.49,0,0,1-3.8-1.38c-3.45-2.67-.76-12.2,0-16.08.45-2.31,1.46-8.94,6.88-9.52a7.56,7.56,0,0,1,2.78.37,7.81,7.81,0,0,0-.85-1.67,2.08,2.08,0,0,0,.18-.22c-2.94-.18-6.4,1.22-9.84-1-6.09-3.86-1.54-11-.85-14.38.35-1.62,1.57-9.28,8-8.64,2.7.26,5.39.65,8.07.66a9.78,9.78,0,0,0-.73-1.61,1.13,1.13,0,0,0,0-.14,36.17,36.17,0,0,1-17.39-2.13,7.91,7.91,0,0,1-4.39-6.08c-.29-4.53,1.37-12.2,4.74-16.67,1.26-1.67,4.42-3.06,6.46-2.62,3.36.74,6.74,1.36,10.15,1.9a51.14,51.14,0,0,0,5.24.42,6,6,0,0,0-.62-1.08,3.46,3.46,0,0,0,.14-.39,14.92,14.92,0,0,1-3.73-.8c-3.64-2.12-2.24-9.62-1.13-14.44.92-4,1.28-11.49,3.45-13.46a1.62,1.62,0,0,1,1.36-.34l1.26.23c.1-.11.3-.38.56-.75a26.37,26.37,0,0,1-6.87-2c-5.4-3-4.13-10.44-3.41-15,.54-3.33.82-6.78,2-9.92a4.29,4.29,0,0,1,4.7-2.74c1.55.22,3.11.4,4.69.55a1.41,1.41,0,0,1-.1-.18l.09-.53c-6.88-.76-12.82.2-19.18-4.8-2.41-1.9-1.56-7,.82-10.22a4,4,0,0,1,4.15-1.36,34.56,34.56,0,0,0,12.07.85c-.17-.5-.36-1-.59-1.51a32.62,32.62,0,0,1-20.25-3.32,59.65,59.65,0,0,1-10-7c-.59.34-1.15.72-1.69,1.07a62.24,62.24,0,0,0,11.45,6.8c3.08,1.67,3.31,12.13-2.51,13.33-5.1,1.11-13.28-5.62-19.77-9.19-.26.48-.37.74-.37.74a1.65,1.65,0,0,1-.24.1c2.32,1.31,6,3.63,6.23,3.8,7,4.48,2.08,18.42-3.76,25.17-1.6,1.87-6.69.7-9-.18a79.15,79.15,0,0,1-9.88-4.27c0,.29,0,.46,0,.46s-.33.12-.86.34c1.17.62,2.37,1.2,3.56,1.76,4.54,2.67,1.39,9.34-.35,13.56-1.24,3-3.23,7.69-5.42,10.51-1.8,2.36-5.71,2.47-8.38,1.15a15.71,15.71,0,0,1-4.74-3.7c-.09.33-.13.52-.13.52a5.38,5.38,0,0,0-1,.45,21.57,21.57,0,0,0,2.43,2c3.81,2.53.23,8.71-1.34,12.13-.84,1.83-3.81,9.6-7.53,10.41-1.31.3-3.44-.84-4.73-1.71-.1.28-.17.43-.17.43a7.32,7.32,0,0,0-.88.48,53.69,53.69,0,0,1,9.54,5c7.15,4.15,4,10.82,2.88,13.35-.69,1.59-3.6,8.69-8.18,9.35s-11.36-4.34-14.41-6.15c0,.68,0,1.06,0,1.06a6.44,6.44,0,0,0-1.1.51,70.85,70.85,0,0,1,6.56,3.77c1.18,1.29,3.18,4.64-.91,13.42-4.68,10.06-7.83,11.63-10.45,11a56.41,56.41,0,0,1-6.87-2.79c.13.35.22.55.22.55a16.48,16.48,0,0,0-1.56,1c18.43,8.31,37.12,16.24,56.48,22.1,2,.61,4.08,1.18,6.14,1.76a1.08,1.08,0,0,0,.49.14c12,3.29,24.11,5.85,36.17,8.71C1545.81,668.46,1545.54,667.89,1545.54,667.89Zm-11.22-56.12c6.23,2.51,5.68,6.84,5.41,10.07a26.51,26.51,0,0,1-3.62,10.89c-1,1.67-2.91,1.93-4.86,2.06-4,.29-10.15-.1-18.48-5.07l0-.05c-4.5-3.23-.18-13,3.58-18.64a6.2,6.2,0,0,1,6.52-2.39A59.7,59.7,0,0,1,1534.32,611.77ZM1505,600.17c-3.37-2.22-3-9.52,3.3-20.17,1.32-2.25,3.66-3,6.27-2.7,3.4.35,7.25.75,16.94,5.5,2.45,1.18,4.55,3,4.71,5.74.2,3.3-1,7-1.87,9.87-.68,2.38-1.72,6.27-3.92,8.32a5.14,5.14,0,0,1-3.65,1.24C1522.52,608.1,1514,605.43,1505,600.17Zm-1.43,26.46a50.73,50.73,0,0,1-20-8s0,0-.06-.06c-3.47-3.44-.59-9.08,1.35-12.59,4.15-7.46,7.44-8.52,10.75-8.14,2.15.26,8.25,2.56,12.3,5.36,3.23,2.24,6.44,4.51,3.54,14C1510.44,620.45,1508.22,627.47,1503.56,626.63Zm51-69.56c2.29,3,1.17,10.46-.21,15.7-1.13,4.31-1.11,11-6.35,12.15a30.85,30.85,0,0,1-17.41-4.48,9.47,9.47,0,0,1-2.65-7,22.07,22.07,0,0,1,.77-3.73c.48-2,1-3.91,1.7-5.82,1.41-4.14,3.81-9.43,7.87-10.66C1544.46,552.7,1552.12,555.36,1554.52,557.07ZM1526,532.72c1-2.81,3.42-11.73,10.55-9.81,3.92,1.05,7.75,2.4,11.73,3.3,3.18,1,3.39,3.49,2.94,9-.45,2.43-1,8.3-4.41,14.47-1.1,2-3.47,2.43-5.73,2.27-7.54-.53-16-4.23-17.08-5.42C1520.65,542.93,1524.35,537.23,1526,532.72Zm-22.11,23.63c1.84-4.69,4.17-10.48,9.22-11.17,4.37-.43,14,2.36,17,7.93,1.46,2.65-.1,7.46-1.1,10.9a59.21,59.21,0,0,1-4.34,10.34c-1.17,2.11-3.6,2.52-6,2.25-4.45-.49-9.73-.78-16.71-5.9C1499,569.06,1502.17,560.67,1503.85,556.35Zm-19.59,36.17c-2-1.56-3.59-3.52-2.86-5.92a54,54,0,0,1,3.84-8.78,55.52,55.52,0,0,1,4.48-7.3c.58-.83,2-2.08,3.14-1.69,6.58.34,9.59,3.3,12.13,5.12,1,.6,1.25,2.85.7,5.71-.1.53-2.46,10.46-6.59,14.94C1496.05,597.88,1487,594.66,1484.26,592.52ZM1488,637c-.74,2.31-2.3,8.7-5.48,10.53-2.39,1.37-11.32.14-18.18-5.47-5.22-4.27,5-19.23,5.5-20.1a7.05,7.05,0,0,1,9.09-3.16q3.68,1.65,7.37,3.25c2.41,1,4.85,3.94,4.39,6.52C1490.22,631.33,1488.94,634.12,1488,637Zm16.61,20.56c-4.12-.71-11.71-2-16.56-6.23-3.7-3.18.41-11.37,1.71-14.42.75-1.75,1.83-3.5,2.66-5.27,1.53-3.31,4.55-4.41,8.19-4.25,3.31.13,9,2.38,10.6,3.17a8.31,8.31,0,0,1,5.08,8.21,34.24,34.24,0,0,1-1.06,6.81C1514.41,649,1513,659,1504.64,657.51Zm33.46,4c-.44,1-1.78,3.87-9,2-2.36-.61-8.79-1.76-12.24-4-4.65-3.07,0-15.78,1.3-18.3,2.67-5.3,5.72-5.38,8.39-5.46a41.34,41.34,0,0,1,10.1.74c2.51.56,5.27,4.49,5.29,7.06C1542,649.76,1539.32,658.62,1538.1,661.49Z"/><path class="cls-42" d="M1530.79,504.63s-3.36-1.67-4.55.54,4.28,5.72,6.6,5.19S1535.21,507.1,1530.79,504.63Z"/><path class="cls-42" d="M1519.56,516.77s-3.36-1.66-4.55.55,3.28,5.31,5.61,4.78S1524,519.25,1519.56,516.77Z"/><path class="cls-42" d="M1536.45,524.52s-3.67-.73-4.24,1.71,4.55,4.28,6.65,3.16S1541.37,525.76,1536.45,524.52Z"/><path class="cls-42" d="M1514.4,546.67s-3.67-.73-4.25,1.72,4.55,4.27,6.66,3.15S1519.32,547.91,1514.4,546.67Z"/><path class="cls-42" d="M1495.13,570.92s-3.67-.73-4.25,1.71,4.56,4.28,6.66,3.16S1500.05,572.16,1495.13,570.92Z"/><path class="cls-42" d="M1500.1,540.06c-.94-.1-2.9,0-3.29,1.89-.51,2.44,3.64,3.53,5.1,2.38S1503.11,540.38,1500.1,540.06Z"/><path class="cls-42" d="M1514,578.34c-1.06-.1-3.27,0-3.7,1.87-.56,2.44,4.14,3.56,5.78,2.41S1517.36,578.68,1514,578.34Z"/><path class="cls-42" d="M1520.64,580.35c-.72-.22-2.27-.47-2.81.68-.7,1.5,2.42,2.9,3.71,2.39S1523,581.06,1520.64,580.35Z"/><path class="cls-42" d="M1521.07,610.46c-.73-.22-2.28-.47-2.81.68-.7,1.49,2.42,2.89,3.7,2.39S1523.39,611.16,1521.07,610.46Z"/><path class="cls-42" d="M1540.61,554.39a4,4,0,0,0-4.27,2.07c-1.33,2.84,5.56,5.51,7.21,3.67S1545.52,555.8,1540.61,554.39Z"/><path class="cls-43" d="M1430.32,770.82s11.36,14.09,5.76,27.87-14.1,19-14.1,19,14.17,13.42,28.87,9.55c0,0-3-13.68,2-24.49a25.63,25.63,0,0,1,17-13.84S1444.28,783.34,1430.32,770.82Z"/><path class="cls-44" d="M1506.49,768.24c-12.87,12.49-30.06,21.92-47,20.22-33.8-3.36-48.38-44.83-38.29-93.93,10.38-50.54,30.37-85.47,42.11-113.28,4.6-10.88,7.93-20.69,8.93-29.88,0,0,17.41,19.83,27.21,59.55s5.77,61.33,9.1,76.5,18.19,21.21,18.94,42.27C1527.89,740.21,1519.35,755.76,1506.49,768.24Z"/><path class="cls-45" d="M1506.49,768.24c-12.87,12.49-30.06,21.92-47,20.22-33.8-3.36-48.38-44.83-38.29-93.93,10.38-50.54,30.37-85.47,42.11-113.28,0,0-35.58,118.88-.31,152.44C1478.32,748.24,1495.46,759.09,1506.49,768.24Z"/><path class="cls-46" d="M1513.6,760.48c-52.87,73.2-106.84-10.11-28.73-72,0,0,41.4-23.92,68.09-60.7a70.3,70.3,0,0,0,11.13-23.07s.59,20.14-5.19,49.34C1553,684,1540.38,723.43,1513.6,760.48Z"/><path class="cls-47" d="M1513.6,760.48c-52.87,73.2-106.84-10.11-28.73-72,0,0-28.27,48.61-3.69,61.32,26.12,13.5,65.81-46.55,77.72-95.75C1553,684,1540.38,723.43,1513.6,760.48Z"/><path class="cls-48" d="M1113.89,201.08c-3.41,14.41-6.71,39.08-27.17,41.27-6.56.7-14.23-4-18.5-8.65.18,3.11.46,8.21.92,11.15,25.25,17,44.76-17.67,49.25-36.63.48-2-4.9-5.44-4.5-7.14Z"/><path class="cls-49" d="M1124.7,206.05a292.08,292.08,0,0,0-12.82,34.17c-2.73,9.27-5.62,19.17-5.13,29,.75,15.17,9.28,29.32,22.11,38.74a73.2,73.2,0,0,1-.78-9.9c-5.45-2.83-11.95-6.84-15.35-12.82-5.21-9.19-2.71-19.41-.42-28.72,3.63-14.8,9.1-29,15.19-43,.85-1.94-2.84-7.44-2.8-7.52Z"/><path class="cls-50" d="M1153.16,259.93c-2.87,14.49-13,12.3-13.24,12.23a22.23,22.23,0,0,1-7.22-9.24c-2.1-5.21-2-10.83-1-16.1,2.22-11.36,7.37-22.45,11.28-33.31.09-.25-8-2.09-8.63-.47-2.76,7.66-5.6,15.29-8.27,23-2.46,7.1-4.78,14.64-3.25,22.33,2.21,11.06,12.37,16.35,19.42,17.3,14.94,2.52,19.79-8.73,19.79-8.73Z"/><path class="cls-51" d="M1106.2,198.44c-4.86,33.18-26,54.43-31.93,57.12-6.31,2.87-15.14-4.61-18.73-10.35a68.77,68.77,0,0,1-9,3.89c30.69,31.91,65.26-17.61,67.76-44.33.18-1.87-6.79-6.07-6.81-5.88Z"/><path class="cls-52" d="M1117.87,202.71c-5.24,18.59-10.71,42.63-24.46,58.58-9,10.46-22.53,16.94-38.5,17.91,1.31,2.61,3.87,8.82,4.72,10.65,40.44-2.47,56.8-48.91,65.46-79.67.58-2.05-4.62-7.05-4.56-7.25Z"/><path class="cls-53" d="M1128.22,208.75c-6.13,19.06-15.32,44.17-5.89,64.27,6.56,14,22.53,23.38,38.29,23.81-1.94-.94-6.08-3.38-9.1-5.36-18.53-.51-23.78-22-23.76-35.23,0-15.3,4.73-29.88,9.34-44.21.32-1-8.61-4.11-8.88-3.28Z"/><path class="cls-54" d="M1146.48,205.06c-6,12-12.39,27.7-6.2,41.09,7.24,15.68,22.45,26.92,40.61,20.09a46.39,46.39,0,0,1-4.2-7.28c-13.62,5.12-35.3-.48-35-17.44.15-9.62,4.77-20.74,9-29.18.89-1.76-4.67-6.35-4.2-7.28Z"/><path class="cls-55" d="M1183.05,47.14,1125.66,214c-4.23-1.46-8.15-3-11.47-4.4-6.2-2.66-10.33-5-10.63-6.26,0-.07,0-.15,0-.22-2.9-48.52-15.75-97.45-15.75-97.45,45.2-28.91,64.87-69,64.87-69Z"/><path class="cls-56" d="M1183.05,47.14,1125.66,214c4.24,1.45,8.24,2.68,11.75,3.58,6.52,1.72,11.24,2.39,12.23,1.61l.15-.17c32.13-36.46,72.35-67.14,72.35-67.14-17.85-50.6-8.7-94.31-8.7-94.31Z"/><path class="cls-57" d="M1183.05,47.14,1125.66,214c-4.23-1.46-8.15-3-11.47-4.4q.33-2.75.64-5.46a576.59,576.59,0,0,0,3.09-82.33.07.07,0,0,1,0,0c30.23-34.06,49.17-80.13,49.17-80.13Z"/><path class="cls-58" d="M1188.5,146.06l0,0a577.08,577.08,0,0,0-48.21,66.82l-2.85,4.69c-3.51-.9-7.51-2.13-11.75-3.58l57.39-166.88,16,5.5S1185.62,100.61,1188.5,146.06Z"/><path class="cls-59" d="M1188.47,146.09a342.46,342.46,0,0,1-36-10.09l0,0,0,0a341.53,341.53,0,0,1-34.56-14.16,304.91,304.91,0,0,1-30.12-16.14s12.85,48.93,15.75,97.45c0,.07,0,.15,0,.22.3,1.23,4.43,3.6,10.63,6.26,3.32,1.44,7.22,2.94,11.46,4.39l0,0V214c4.23,1.46,8.23,2.67,11.73,3.58,6.52,1.72,11.24,2.39,12.23,1.6l.15-.16c32.13-36.47,72.35-67.15,72.35-67.15A305.16,305.16,0,0,1,1188.47,146.09Z"/><path class="cls-60" d="M1213.36,57.81c-.74,2.16-14.95-.76-31.73-6.53s-29.78-12.21-29-14.37,15,.75,31.73,6.52S1214.11,55.64,1213.36,57.81Z"/><path class="cls-61" d="M45.2,253.75s.13,6,.27,14.64c.63,36.6,13.1,132,133.81,132,57.7,0,309,18.74,336.54,0C576,359.4,592.45,252.06,592.45,252.06l-141.21.2-.07,23.68s-14.55-9.91-27.26-13.71c-16.21-2.44-63.68-2-93.77-.3-24,1.39-57.26,6.15-71.81,8.44-11,5.09-23.08,15.84-23.08,15.84l0-32.8Z"/></g></g></svg>