<svg width="24" height="25" viewBox="0 0 24 25" fill="none" xmlns="http://www.w3.org/2000/svg">
<g clip-path="url(#clip0_345_5053)">
<path fill-rule="evenodd" clip-rule="evenodd" d="M3 2H21C21.3978 2 21.7794 2.15804 22.0607 2.43934C22.342 2.72064 22.5 3.10218 22.5 3.5V20.879L19.5 17.879C18.9375 17.3164 18.1746 17.0002 17.379 17H3C2.60218 17 2.22064 16.842 1.93934 16.5607C1.65804 16.2794 1.5 15.8978 1.5 15.5V3.5C1.5 3.10218 1.65804 2.72064 1.93934 2.43934C2.22064 2.15804 2.60218 2 3 2ZM21 0.5C21.7956 0.5 22.5587 0.816071 23.1213 1.37868C23.6839 1.94129 24 2.70435 24 3.5V22.6895C24 22.8379 23.9559 22.983 23.8734 23.1063C23.7909 23.2297 23.6737 23.3258 23.5365 23.3825C23.3994 23.4392 23.2485 23.4539 23.1029 23.4248C22.9574 23.3957 22.8238 23.3241 22.719 23.219L18.4395 18.9395C18.1583 18.6582 17.7768 18.5001 17.379 18.5H3C2.20435 18.5 1.44129 18.1839 0.87868 17.6213C0.316071 17.0587 0 16.2957 0 15.5V3.5C0 2.70435 0.316071 1.94129 0.87868 1.37868C1.44129 0.816071 2.20435 0.5 3 0.5L21 0.5Z" fill="#1D1D1D"/>
<path fill-rule="evenodd" clip-rule="evenodd" d="M10.599 7.63997C10.3068 7.18495 9.87486 6.83705 9.368 6.64856C8.86115 6.46008 8.30681 6.4412 7.78831 6.59475C7.2698 6.74831 6.81515 7.06601 6.49267 7.5001C6.17019 7.93419 5.99732 8.46122 6.00003 9.00197C6.0003 9.44978 6.12082 9.88929 6.34899 10.2746C6.57717 10.6599 6.90463 10.9769 7.29717 11.1924C7.68971 11.4079 8.13291 11.514 8.58048 11.4997C9.02806 11.4854 9.46357 11.3511 9.84153 11.111C9.64503 11.6945 9.27903 12.317 8.67603 12.941C8.56066 13.0603 8.49743 13.2206 8.50024 13.3866C8.50306 13.5525 8.57168 13.7106 8.69103 13.826C8.81038 13.9413 8.97067 14.0046 9.13664 14.0018C9.30261 13.9989 9.46066 13.9303 9.57603 13.811C11.805 11.501 11.5155 8.98997 10.599 7.64297V7.63997ZM16.599 7.63997C16.3068 7.18495 15.8749 6.83705 15.368 6.64856C14.8612 6.46008 14.3068 6.4412 13.7883 6.59475C13.2698 6.74831 12.8151 7.06601 12.4927 7.5001C12.1702 7.93419 11.9973 8.46122 12 9.00197C12.0003 9.44978 12.1208 9.88929 12.349 10.2746C12.5772 10.6599 12.9046 10.9769 13.2972 11.1924C13.6897 11.4079 14.1329 11.514 14.5805 11.4997C15.0281 11.4854 15.4636 11.3511 15.8415 11.111C15.645 11.6945 15.279 12.317 14.676 12.941C14.5607 13.0603 14.4974 13.2206 14.5002 13.3866C14.5031 13.5525 14.5717 13.7106 14.691 13.826C14.8104 13.9413 14.9707 14.0046 15.1366 14.0018C15.3026 13.9989 15.4607 13.9303 15.576 13.811C17.805 11.501 17.5155 8.98997 16.599 7.64297V7.63997Z" fill="#1D1D1D"/>
</g>
<defs>
<clipPath id="clip0_345_5053">
<rect width="24" height="24" fill="white" transform="translate(0 0.5)"/>
</clipPath>
</defs>
</svg>
