<svg width="14" height="19" viewBox="0 0 14 19" fill="none" xmlns="http://www.w3.org/2000/svg">
<path fill-rule="evenodd" clip-rule="evenodd" d="M2.5 0.780029C1.90326 0.780029 1.33097 1.01708 0.90901 1.43904C0.487053 1.861 0.25 2.43329 0.25 3.03003V18.2175C0.249929 18.3152 0.275295 18.4112 0.323603 18.4961C0.37191 18.581 0.441494 18.6519 0.525503 18.7017C0.609513 18.7516 0.705053 18.7787 0.802718 18.7804C0.900384 18.7821 0.996808 18.7583 1.0825 18.7114L7 15.4827L12.9175 18.7114C13.0032 18.7583 13.0996 18.7821 13.1973 18.7804C13.2949 18.7787 13.3905 18.7516 13.4745 18.7017C13.5585 18.6519 13.6281 18.581 13.6764 18.4961C13.7247 18.4112 13.7501 18.3152 13.75 18.2175V3.03003C13.75 2.43329 13.5129 1.861 13.091 1.43904C12.669 1.01708 12.0967 0.780029 11.5 0.780029L2.5 0.780029ZM10.2108 7.36578C10.3164 7.26016 10.3757 7.1169 10.3757 6.96753C10.3757 6.81816 10.3164 6.6749 10.2108 6.56928C10.1051 6.46366 9.96187 6.40432 9.8125 6.40432C9.66313 6.40432 9.51987 6.46366 9.41425 6.56928L6.4375 9.54715L5.14825 8.25678C5.09595 8.20448 5.03386 8.16299 4.96553 8.13469C4.8972 8.10639 4.82396 8.09182 4.75 8.09182C4.67604 8.09182 4.6028 8.10639 4.53447 8.13469C4.46614 8.16299 4.40405 8.20448 4.35175 8.25678C4.29945 8.30908 4.25797 8.37117 4.22966 8.4395C4.20136 8.50783 4.18679 8.58107 4.18679 8.65503C4.18679 8.72899 4.20136 8.80223 4.22966 8.87056C4.25797 8.93889 4.29945 9.00098 4.35175 9.05328L6.03925 10.7408C6.0915 10.7932 6.15357 10.8347 6.22191 10.8631C6.29025 10.8914 6.36351 10.906 6.4375 10.906C6.51149 10.906 6.58475 10.8914 6.65309 10.8631C6.72143 10.8347 6.7835 10.7932 6.83575 10.7408L10.2108 7.36578V7.36578Z" fill="#F2E8FC"/>
</svg>
