<svg xmlns="http://www.w3.org/2000/svg" xmlns:xlink="http://www.w3.org/1999/xlink" viewBox="0 0 2177.36 959.72"><defs><style>.cls-1,.cls-64{fill:#fff;}.cls-1{stroke:#1d1d1b;stroke-miterlimit:10;filter:url(#luminosity-invert-noclip);}.cls-2{fill:none;}.cls-3{isolation:isolate;}.cls-4{fill:url(#linear-gradient);}.cls-5{fill:url(#linear-gradient-2);}.cls-10,.cls-11,.cls-12,.cls-13,.cls-20,.cls-22,.cls-23,.cls-24,.cls-25,.cls-26,.cls-27,.cls-28,.cls-29,.cls-30,.cls-31,.cls-32,.cls-33,.cls-42,.cls-46,.cls-48,.cls-6,.cls-60,.cls-62,.cls-7,.cls-8,.cls-9{mix-blend-mode:multiply;}.cls-10,.cls-11,.cls-12,.cls-22,.cls-23,.cls-24,.cls-25,.cls-26,.cls-27,.cls-28,.cls-29,.cls-30,.cls-31,.cls-32,.cls-33,.cls-6,.cls-7,.cls-8,.cls-9{opacity:0.4;}.cls-6{fill:url(#linear-gradient-3);}.cls-7{fill:url(#linear-gradient-4);}.cls-8{fill:url(#linear-gradient-5);}.cls-9{fill:url(#linear-gradient-6);}.cls-10{fill:url(#linear-gradient-7);}.cls-11{fill:url(#linear-gradient-8);}.cls-12{fill:url(#linear-gradient-9);}.cls-13,.cls-20,.cls-60{opacity:0.3;}.cls-13{fill:url(#linear-gradient-10);}.cls-14{fill:url(#linear-gradient-11);}.cls-15{fill:url(#linear-gradient-12);}.cls-16{fill:url(#linear-gradient-13);}.cls-17{fill:url(#linear-gradient-14);}.cls-18{fill:url(#linear-gradient-15);}.cls-19{fill:url(#linear-gradient-16);}.cls-20{fill:url(#linear-gradient-17);}.cls-21{fill:url(#linear-gradient-18);}.cls-22{fill:url(#linear-gradient-19);}.cls-23{fill:url(#linear-gradient-20);}.cls-24{fill:url(#linear-gradient-21);}.cls-25{fill:url(#linear-gradient-22);}.cls-26{fill:url(#linear-gradient-23);}.cls-27{fill:url(#linear-gradient-24);}.cls-28{fill:url(#linear-gradient-25);}.cls-29{fill:url(#linear-gradient-26);}.cls-30{fill:url(#linear-gradient-27);}.cls-31{fill:url(#linear-gradient-28);}.cls-32{fill:url(#linear-gradient-29);}.cls-33{fill:url(#linear-gradient-30);}.cls-34{mask:url(#mask);}.cls-35{fill:#5d14a6;}.cls-36{fill:#eee;}.cls-37{fill:#6a8700;}.cls-38{fill:#8abf17;}.cls-39{fill:url(#linear-gradient-31);}.cls-40{fill:url(#linear-gradient-32);}.cls-41{fill:url(#linear-gradient-33);}.cls-42,.cls-43{fill:#fce000;}.cls-44{fill:url(#linear-gradient-34);}.cls-45{fill:url(#linear-gradient-35);}.cls-46{opacity:0.25;fill:url(#linear-gradient-36);}.cls-47{fill:url(#linear-gradient-37);}.cls-48{opacity:0.2;fill:url(#linear-gradient-38);}.cls-49{fill:url(#linear-gradient-39);}.cls-50{fill:url(#linear-gradient-40);}.cls-51{fill:url(#linear-gradient-41);}.cls-52{fill:url(#linear-gradient-42);}.cls-53{fill:url(#linear-gradient-43);}.cls-54{fill:url(#linear-gradient-44);}.cls-55{fill:url(#linear-gradient-45);}.cls-56{fill:url(#linear-gradient-46);}.cls-57{fill:url(#linear-gradient-47);}.cls-58{fill:url(#linear-gradient-48);}.cls-59{fill:url(#linear-gradient-49);}.cls-60{fill:url(#linear-gradient-50);}.cls-61{fill:url(#linear-gradient-51);}.cls-62{fill:url(#radial-gradient);}.cls-63{fill:#ca0276;}.cls-65{clip-path:url(#clip-path);}.cls-66{fill:#1f1a3c;}</style><linearGradient id="linear-gradient" x1="-645.26" y1="384.21" x2="-645.26" y2="577.08" gradientTransform="matrix(1, -0.05, 0.05, 1, 1262.39, -392.73)" gradientUnits="userSpaceOnUse"><stop offset="0" stop-color="#ff0"/><stop offset="0.16" stop-color="#feee04"/><stop offset="0.46" stop-color="#fac00d"/><stop offset="0.9" stop-color="#f4781d"/><stop offset="1" stop-color="#f26521"/></linearGradient><linearGradient id="linear-gradient-2" x1="-585.91" y1="423.81" x2="-714.71" y2="589.09" gradientTransform="matrix(1, -0.05, 0.05, 1, 1262.39, -392.73)" gradientUnits="userSpaceOnUse"><stop offset="0" stop-color="#ff9800"/><stop offset="0.41" stop-color="#fa8700"/><stop offset="1" stop-color="#f06700"/></linearGradient><linearGradient id="linear-gradient-3" x1="-699.98" y1="450.05" x2="-744.86" y2="491.6" gradientTransform="matrix(1, -0.05, 0.05, 1, 1262.39, -392.73)" gradientUnits="userSpaceOnUse"><stop offset="0" stop-color="#ffb000"/><stop offset="0.29" stop-color="#fc9f08"/><stop offset="0.86" stop-color="#f4721b"/><stop offset="1" stop-color="#f26521"/></linearGradient><linearGradient id="linear-gradient-4" x1="-677.84" y1="451.24" x2="-722.72" y2="492.79" xlink:href="#linear-gradient-3"/><linearGradient id="linear-gradient-5" x1="-4581.14" y1="436.43" x2="-4626.92" y2="478.82" gradientTransform="matrix(-1, 0.05, 0.05, 1, -3919.83, -131.69)" xlink:href="#linear-gradient-3"/><linearGradient id="linear-gradient-6" x1="-653.95" y1="454.51" x2="-696.85" y2="494.24" xlink:href="#linear-gradient-3"/><linearGradient id="linear-gradient-7" x1="-657.15" y1="448.87" x2="-735.88" y2="448.87" xlink:href="#linear-gradient-3"/><linearGradient id="linear-gradient-8" x1="-602.69" y1="465.06" x2="-748.62" y2="465.06" xlink:href="#linear-gradient-3"/><linearGradient id="linear-gradient-9" x1="-608.71" y1="483.58" x2="-754.65" y2="483.58" xlink:href="#linear-gradient-3"/><linearGradient id="linear-gradient-10" x1="-525.72" y1="497.94" x2="-777.82" y2="497.94" gradientTransform="matrix(1, -0.05, 0.05, 1, 1262.39, -392.73)" gradientUnits="userSpaceOnUse"><stop offset="0" stop-color="#ff7f00"/><stop offset="0.23" stop-color="#ee7806"/><stop offset="0.69" stop-color="#c16717"/><stop offset="1" stop-color="#9e5923"/></linearGradient><linearGradient id="linear-gradient-11" x1="-494.42" y1="478.33" x2="-513.65" y2="401.39" gradientTransform="matrix(1, -0.05, 0.05, 1, 1262.39, -392.73)" gradientUnits="userSpaceOnUse"><stop offset="0" stop-color="#e93326"/><stop offset="0.19" stop-color="#ec4420"/><stop offset="0.57" stop-color="#f57212"/><stop offset="1" stop-color="#ffab00"/></linearGradient><linearGradient id="linear-gradient-12" x1="2268.54" y1="-929.42" x2="2249.3" y2="-1006.36" gradientTransform="translate(-1575.85 188.52) rotate(19.83)" xlink:href="#linear-gradient-11"/><linearGradient id="linear-gradient-13" x1="-881.4" y1="552.41" x2="-888.91" y2="481.24" xlink:href="#linear-gradient-11"/><linearGradient id="linear-gradient-14" x1="2285.94" y1="-908.49" x2="2278.3" y2="-980.91" gradientTransform="translate(-1565.1 188.92) rotate(19.78)" xlink:href="#linear-gradient-11"/><linearGradient id="linear-gradient-15" x1="-650.09" y1="118.33" x2="-650.09" y2="1167.99" xlink:href="#linear-gradient"/><linearGradient id="linear-gradient-16" x1="-649.75" y1="120.61" x2="-649.75" y2="1170.27" xlink:href="#linear-gradient-3"/><linearGradient id="linear-gradient-17" x1="-647.42" y1="571.29" x2="-647.42" y2="637.98" xlink:href="#linear-gradient-10"/><linearGradient id="linear-gradient-18" x1="-645.27" y1="559.61" x2="-645.27" y2="672.38" gradientTransform="matrix(1, -0.05, 0.05, 1, 1262.39, -392.73)" gradientUnits="userSpaceOnUse"><stop offset="0" stop-color="#9f1727"/><stop offset="0.16" stop-color="#aa2822"/><stop offset="0.48" stop-color="#c85616"/><stop offset="0.93" stop-color="#f79e03"/><stop offset="1" stop-color="#ffab00"/></linearGradient><linearGradient id="linear-gradient-19" x1="-811.87" y1="631.69" x2="-822.97" y2="526.51" xlink:href="#linear-gradient-3"/><linearGradient id="linear-gradient-20" x1="-777.08" y1="611.28" x2="-785.83" y2="528.34" xlink:href="#linear-gradient-3"/><linearGradient id="linear-gradient-21" x1="-502.32" y1="623.17" x2="-521.55" y2="441.07" xlink:href="#linear-gradient-3"/><linearGradient id="linear-gradient-22" x1="-460.74" y1="638.46" x2="-481.49" y2="441.91" xlink:href="#linear-gradient-3"/><linearGradient id="linear-gradient-23" x1="-545.29" y1="592.41" x2="-577.95" y2="461.76" xlink:href="#linear-gradient-3"/><linearGradient id="linear-gradient-24" x1="-286.98" y1="290.66" x2="-914.41" y2="662.03" xlink:href="#linear-gradient-3"/><linearGradient id="linear-gradient-25" x1="-499.85" y1="521.02" x2="-502.43" y2="496.51" xlink:href="#linear-gradient-3"/><linearGradient id="linear-gradient-26" x1="-720.45" y1="510.7" x2="-857.94" y2="592.07" xlink:href="#linear-gradient-3"/><linearGradient id="linear-gradient-27" x1="-419.14" y1="502.4" x2="-537.18" y2="572.27" xlink:href="#linear-gradient-3"/><linearGradient id="linear-gradient-28" x1="-669.11" y1="452.26" x2="-669.11" y2="663.82" xlink:href="#linear-gradient-3"/><linearGradient id="linear-gradient-29" x1="-727.38" y1="515.84" x2="-727.38" y2="638.41" xlink:href="#linear-gradient-3"/><linearGradient id="linear-gradient-30" x1="-506.55" y1="531.18" x2="-750.31" y2="675.46" xlink:href="#linear-gradient-3"/><filter id="luminosity-invert-noclip" x="351.68" y="184.43" width="1475.51" height="546.43" filterUnits="userSpaceOnUse" color-interpolation-filters="sRGB"><feColorMatrix values="-1 0 0 0 1 0 -1 0 0 1 0 0 -1 0 1 0 0 0 1 0" result="invert"/><feFlood flood-color="#fff" result="bg"/><feBlend in="invert" in2="bg"/></filter><mask id="mask" x="351.68" y="184.43" width="1475.51" height="546.43" maskUnits="userSpaceOnUse"><path class="cls-1" d="M753.51,223.39c0-14.07-51.29-41.24-110.87-38.23s-100.9,34.33-100.9,48.69c0,7.52,46.17-5,105.75-8S753.51,230.91,753.51,223.39Z"/></mask><linearGradient id="linear-gradient-31" x1="3850.56" y1="-1156.38" x2="3850.56" y2="-1222.93" gradientTransform="translate(-2236.76 450.43) rotate(18.3)" gradientUnits="userSpaceOnUse"><stop offset="0" stop-color="#516202"/><stop offset="1" stop-color="#898701"/></linearGradient><linearGradient id="linear-gradient-32" x1="3926.94" y1="-1134.87" x2="3926.94" y2="-1228.31" gradientTransform="translate(-2236.76 450.43) rotate(18.3)" gradientUnits="userSpaceOnUse"><stop offset="0" stop-color="#293b0d"/><stop offset="1" stop-color="#898701"/></linearGradient><linearGradient id="linear-gradient-33" x1="3888.06" y1="-1035.94" x2="3888.06" y2="-1337.3" gradientTransform="translate(-2236.76 450.43) rotate(18.3)" gradientUnits="userSpaceOnUse"><stop offset="0" stop-color="#f48b27"/><stop offset="1" stop-color="#fce000"/></linearGradient><linearGradient id="linear-gradient-34" x1="3883.74" y1="-923.97" x2="3883.74" y2="-990.52" xlink:href="#linear-gradient-31"/><linearGradient id="linear-gradient-35" x1="3885.18" y1="-957.79" x2="3885.18" y2="-1258.93" xlink:href="#linear-gradient-31"/><linearGradient id="linear-gradient-36" x1="3880.5" y1="-959.26" x2="3880.5" y2="-1219.6" xlink:href="#linear-gradient-31"/><linearGradient id="linear-gradient-37" x1="3909.38" y1="-962.11" x2="3909.38" y2="-1230.64" xlink:href="#linear-gradient-31"/><linearGradient id="linear-gradient-38" x1="3909.38" y1="-964.39" x2="3909.38" y2="-1169.49" xlink:href="#linear-gradient-31"/><linearGradient id="linear-gradient-39" x1="3525.33" y1="-1450.98" x2="3525.33" y2="-1565.68" gradientTransform="translate(-2369.92 538.84) rotate(18.98)" gradientUnits="userSpaceOnUse"><stop offset="0" stop-color="#920122"/><stop offset="1" stop-color="#ff0142"/></linearGradient><linearGradient id="linear-gradient-40" x1="3567.96" y1="-1460.21" x2="3567.96" y2="-1566.95" gradientTransform="translate(-2369.92 538.84) rotate(18.98)" gradientUnits="userSpaceOnUse"><stop offset="0" stop-color="#ffb500"/><stop offset="1" stop-color="#fc0"/></linearGradient><linearGradient id="linear-gradient-41" x1="3583.15" y1="-1457.63" x2="3583.15" y2="-1565.12" gradientTransform="translate(-2369.92 538.84) rotate(18.98)" gradientUnits="userSpaceOnUse"><stop offset="0" stop-color="#8e3326"/><stop offset="0.19" stop-color="#9e4420"/><stop offset="0.57" stop-color="#c97212"/><stop offset="1" stop-color="#ffab00"/></linearGradient><linearGradient id="linear-gradient-42" x1="4556.7" y1="-3158.26" x2="4556.7" y2="-3086.74" gradientTransform="matrix(0.85, 0.53, -0.53, 0.85, -4067.82, 449.85)" gradientUnits="userSpaceOnUse"><stop offset="0" stop-color="#3b6b00"/><stop offset="1" stop-color="#6cbf00"/></linearGradient><linearGradient id="linear-gradient-43" x1="3762.2" y1="-1849.45" x2="3762.2" y2="-1762.03" gradientTransform="translate(-2702.84 553.78) rotate(21.59)" gradientUnits="userSpaceOnUse"><stop offset="0" stop-color="#6c0caa"/><stop offset="1" stop-color="#3b0361"/></linearGradient><linearGradient id="linear-gradient-44" x1="2895.33" y1="-819.92" x2="2895.33" y2="-748.53" gradientTransform="matrix(0.98, 0.21, -0.21, 0.98, -1482.96, 432.71)" xlink:href="#linear-gradient-39"/><linearGradient id="linear-gradient-45" x1="2972.59" y1="-883.41" x2="3022.78" y2="-883.41" gradientTransform="translate(-1589.36 450.78) rotate(12.83)" xlink:href="#linear-gradient-40"/><linearGradient id="linear-gradient-46" x1="3518.01" y1="-1589.37" x2="3518.01" y2="-1704.85" gradientTransform="translate(-2369.92 538.84) rotate(18.98)" xlink:href="#linear-gradient-43"/><linearGradient id="linear-gradient-47" x1="-9058.83" y1="-1589.81" x2="-9058.83" y2="-1705.29" gradientTransform="matrix(-0.95, -0.33, -0.33, 0.95, -7542.29, -1239.52)" xlink:href="#linear-gradient-39"/><linearGradient id="linear-gradient-48" x1="3534.87" y1="-1588.92" x2="3534.87" y2="-1697.94" gradientTransform="translate(-2369.92 538.84) rotate(18.98)" xlink:href="#linear-gradient-42"/><linearGradient id="linear-gradient-49" x1="3572.19" y1="-1584.43" x2="3572.19" y2="-1697.17" xlink:href="#linear-gradient-40"/><linearGradient id="linear-gradient-50" x1="3482.49" y1="-1592.5" x2="3624.55" y2="-1592.5" gradientTransform="translate(-2369.92 538.84) rotate(18.98)" gradientUnits="userSpaceOnUse"><stop offset="0" stop-color="#856a58"/><stop offset="1" stop-color="#a04437"/></linearGradient><linearGradient id="linear-gradient-51" x1="3553.53" y1="-1736.13" x2="3553.53" y2="-1701.75" xlink:href="#linear-gradient-41"/><radialGradient id="radial-gradient" cx="657.26" cy="126.46" r="248.42" gradientUnits="userSpaceOnUse"><stop offset="0" stop-color="#1d1d1b"/><stop offset="1" stop-color="#fff"/></radialGradient><clipPath id="clip-path"><rect class="cls-2" x="-88.88" y="75.94" width="644.27" height="805.33"/></clipPath></defs><g class="cls-3"><g id="Layer_1" data-name="Layer 1"><path class="cls-4" d="M758,166.62s-58.37,49.17-226.71,3.74c0,0,8.79-54.37,19.36-87.84v0c3.84-12.14,7.88-21.52,11.84-24.56,14.83-11.43,52.82,6.61,90.17.45S692,34.2,708,43c10.88,6,20.87,20,29,38C748.25,105.62,756,137.59,758,166.62Z"/><path class="cls-5" d="M758.1,169.33s-58.36,49.16-226.71,3.73c0,0,8.8-54.37,19.37-87.84v0c3.83-12.15,7.88-21.53,11.84-24.57,14.83-11.43,52.82,6.62,90.17.45s39.32-24.17,55.41-15.32c10.88,6,20.87,20,29,38C748.38,108.33,756.16,140.29,758.1,169.33Z"/><path class="cls-6" d="M563.84,74.83s-17.68,53.92-12.27,92.22C551.57,167.05,555.37,106.27,563.84,74.83Z"/><path class="cls-7" d="M586,74.91s-17.68,53.92-12.27,92.21C573.74,167.12,577.54,106.35,586,74.91Z"/><path class="cls-8" d="M696.56,55.65s26.76,37.33,25,88.63C721.56,144.28,716.65,93.66,696.56,55.65Z"/><path class="cls-9" d="M609.59,76.33S595,119.7,600.7,167.27C600.7,167.27,601.56,108.09,609.59,76.33Z"/><path class="cls-10" d="M555.83,87.66S590.21,93.8,627,93C608.24,95.46,574.07,94.62,555.83,87.66Z"/><path class="cls-11" d="M549.05,104.41s62.8,11.61,131.14-4C680.19,100.36,610.5,119.85,549.05,104.41Z"/><path class="cls-12" d="M544,123.21s62.8,11.62,131.14-4C675.11,119.16,605.42,138.65,544,123.21Z"/><path class="cls-13" d="M758.1,169.33s-58.36,49.16-226.71,3.73c0,0,8.8-54.37,19.37-87.84.15,1.6,5.06,55.52,65.58,51.88C677.78,133.42,726.2,109,737.22,83.76,748.38,108.33,756.16,140.29,758.1,169.33Z"/><path class="cls-14" d="M783.08,48.79C779.27,41.71,770,30.61,770,30.61a30.11,30.11,0,0,1-9.25,10.13S783.24,60,790.47,94.37l4.92-7S792.38,66,783.08,48.79Z"/><path class="cls-15" d="M887.59,25.64c-.39-9.73-4-23.55-4-23.55s-5.88,2.39-12.44,5.77c0,0,13.33,26.51,6.74,61l7.24-4.56A211.08,211.08,0,0,0,887.59,25.64Z"/><path class="cls-16" d="M408.84,147.42c-2.21-6.68-8.54-17.68-8.54-17.68a26.33,26.33,0,0,1-9.52,7.33s12.35,15.64,14.72,45.48l8.07,0S414.23,163.72,408.84,147.42Z"/><path class="cls-17" d="M912.9,34.7a69.07,69.07,0,0,0-14-1.66s8.42,22.76,2.81,55.73l8.2,1.93S919.39,51.91,912.9,34.7Z"/><path class="cls-18" d="M885.35,42.79s-4.59-11-16.28-26.7C864.27,9.65,853.46,0,853.46,0a30.17,30.17,0,0,1-7.69,11.36s16.15,10.24,28.79,31.29c-5.77.15-14.85.67-27.14,2.23-.43-1.78-.89-3.55-1.43-5.3-2.38-7.67-9.36-20.37-9.36-20.37a30.18,30.18,0,0,1-11,8.16,90.29,90.29,0,0,1,10.57,19.1c-10,1.56-21.7,3.75-34.95,6.78.37-2.08.68-4.19.89-6.31.8-8-.69-22.4-.69-22.4a30.22,30.22,0,0,1-13.33,3.21s3.13,11.49,2.08,28.16c-30,7.48-67,19.11-111,37.22-9.9,4.09-19.35,8.09-28.47,12,.34-1.94.63-3.91.82-5.88.81-8-.8-22.35-.8-22.35s-7.37,3.72-14.45,3.56c0,0,3.75,10.67,2.31,29.84-59.85,26-103.24,46.54-149.47,54-3-20.39.86-35.3.86-35.3a30.09,30.09,0,0,1-13.38-3s-1.28,14.43-.36,22.41a102.17,102.17,0,0,0,3.66,17.22,226,226,0,0,1-23.59,1.61,101.54,101.54,0,0,0,3.37-17.12c.8-8-.69-22.4-.69-22.4a33.21,33.21,0,0,1-13.74,3.19s4.57,15.35,1.66,36.28c-6.61-.16-13.35-.62-20.26-1.39-3.65-21.62,1.18-37.66,1.18-37.66-7.08.26-14.05-3.06-14.05-3.06s-1.28,14.44-.36,22.42A102.77,102.77,0,0,0,417,164.55a303.86,303.86,0,0,1-30.26-6.19c-8-15.17-9-27.73-9-27.73-6.41,3-15,3-15,3s5.11,13.63,9.07,20.62c0,0,27.95,67.69,123.71,99.58,49.37,16.45,197.2,14,269.05-4C853.58,224.72,959.8,67.85,885.35,42.79Z"/><path class="cls-19" d="M885.46,45.07s-4.59-11-16.28-26.7c-4.79-6.45-15.6-16.09-15.6-16.09a30.17,30.17,0,0,1-7.69,11.36S862,23.87,874.67,44.93c-5.77.15-14.85.67-27.14,2.23-.43-1.78-.89-3.55-1.43-5.3-2.37-7.68-9.36-20.37-9.36-20.37a30.18,30.18,0,0,1-11,8.16,89.76,89.76,0,0,1,10.57,19.1c-10,1.56-21.7,3.74-34.95,6.78.37-2.09.68-4.2.9-6.31.8-8-.69-22.41-.69-22.41A30.17,30.17,0,0,1,788.2,30s3.14,11.49,2.09,28.16c-30,7.48-67,19.1-111,37.22-9.91,4.09-19.35,8.09-28.47,12,.33-2,.62-3.91.82-5.88.8-8-.69-22.41-.69-22.41a30.17,30.17,0,0,1-13.34,3.22s3.34,12.32,1.95,29.93c-59.85,26-104.1,46.85-150.34,54.32-3-20.38.86-35.29.86-35.29a30.25,30.25,0,0,1-13.38-3s-1.28,14.43-.36,22.41A102,102,0,0,0,480,167.9a225.61,225.61,0,0,1-23.58,1.62,102.54,102.54,0,0,0,3.36-17.12c.81-8-.69-22.41-.69-22.41a30.15,30.15,0,0,1-13.33,3.22s4.17,15.33,1.25,36.26q-9.9-.25-20.26-1.39c-3.64-21.62.52-37.7.52-37.7a30,30,0,0,1-13.38-3s-1.29,14.43-.37,22.41a102.34,102.34,0,0,0,3.62,17,301.08,301.08,0,0,1-30.27-6.18c-8-15.17-9.82-27.34-9.82-27.34a30.14,30.14,0,0,1-13.5,2.43s4.44,13.79,8.39,20.79c0,0,27.95,67.68,123.72,99.58,49.37,16.44,197.19,14,269-4C853.7,227,959.91,70.13,885.46,45.07Z"/><path class="cls-20" d="M846.35,198.77c-25,25.23-54.13,45.6-81.64,53.36-71.85,17.93-219.67,20.42-269,4a246,246,0,0,1-52.38-24.3c1.86.93,24.06,13,46.48,12C514,242.62,533.11,223.89,620.21,214s130.94,6.45,165.86,9.18C818.15,225.65,843.29,201.36,846.35,198.77Z"/><path class="cls-21" d="M759.17,233.83c.38,7.5-49,16.09-110.31,19.19s-111.3-.49-111.68-8,49-16.1,110.31-19.19S758.79,226.32,759.17,233.83Z"/><path class="cls-22" d="M429.16,176.5S451.89,228.43,516,244C516,244,463.82,227.4,429.16,176.5Z"/><path class="cls-23" d="M525.68,232s-27.17-12.75-34.2-58.62C491.48,173.36,501.76,213.07,525.68,232Z"/><path class="cls-24" d="M799.7,61.51s5.58,83.83-52.56,148.73C747.14,210.24,786.16,166.46,799.7,61.51Z"/><path class="cls-25" d="M769.87,222.38s78.48-46.26,88.72-165.54C858.59,56.84,866.22,169.87,769.87,222.38Z"/><path class="cls-26" d="M721.5,206.84s14.06-60.63,3.79-120C725.29,86.81,744.93,141,721.5,206.84Z"/><path class="cls-27" d="M403.49,183.08s45.16,17.14,130.57-.1c62.47-12.61,139.31-48.95,200-71,38.43-14,110.24-36.85,157-16.67,0,0-56.91-20.24-185.66,32.19C656.84,147.27,597.58,172.57,538,185,495.74,193.81,443.52,198.62,403.49,183.08Z"/><path class="cls-28" d="M694.91,156.25s65.05-27,119.74-33c41.93-4.58,66.47,8.21,66.47,8.21s-36.41-6.55-69.41-2.89C766.71,133.56,694.91,156.25,694.91,156.25Z"/><path class="cls-29" d="M437,208.47s45.16,4.52,112.83-10.2C549.81,198.27,502.13,219.05,437,208.47Z"/><path class="cls-30" d="M754.1,174.24s61.54-14.5,100.86-2.74C855,171.5,827.22,151.72,754.1,174.24Z"/><path class="cls-31" d="M615,143.86s-2,24.66,12,50.52A507.1,507.1,0,0,1,615,143.86Z"/><path class="cls-32" d="M559.32,188.83A49.11,49.11,0,0,0,569.06,218S560.74,198.66,559.32,188.83Z"/><path class="cls-33" d="M548.26,258.09S616,272.08,751.6,245C751.6,245,656.43,275.75,548.26,258.09Z"/><g class="cls-34"><path class="cls-35" d="M1783.64,236.92c-24.28-15.15-54.14-22.9-88.75-23.06h-1.08c-33.94,0-63.5,7.14-87.85,21.23a96.67,96.67,0,0,0-18.41,13.78A77,77,0,0,0,1568,234.12c-28.7-15.19-61.14-17.1-89.3-17.69h-.59q-50.13-.19-100.28-.33l-34.2-.1,0,16.82c-1.16-.72-2.33-1.43-3.53-2.12-27.83-16-62.5-24.16-103-24.18h-.22c-40.23,0-73.37,7.59-101.32,23.22-.95.54-1.9,1.09-2.83,1.65V215.73H974.4V228.9c-26.94-11.23-56.29-12.63-82-13h-.57q-50.15.09-100.29.24l-33.83.09-.06,23.68c-1.42-.93-2.86-1.85-4.34-2.72-26.13-15.47-58.84-23.32-97.29-23.32-38.65,0-71.91,8.37-98.85,24.83a106.94,106.94,0,0,0-15.45,11.48l0-31.53-34.27.2c-2.14,0-4.45,0-6.91,0-14.31,0-33.87-.2-52.78-.4-19.27-.2-39.19-.4-54.14-.4-2.93,0-5.68,0-8.21,0l-33.78.23V730.86l41.44-9.27c157.39-35.2,267.37-43.74,333.08-48.84,11.72-.91,21.71-1.68,30.28-2.48v.83l36.74-2.84c29.79-2.31,60-4.33,89.86-6l12.83-.73,13.1-.61c30.72-1.42,61.9-2.54,92.66-3.3l5.3-.13,1.6,0c28.79-.42,58-.63,86.9-.63l37.33,0v-3.61c15.82,7,31.7,8.33,41.73,8.33h1.57c12.63-.18,26.43-1.07,40.09-4.9v1.88l32.47,1.43c35.66,1.57,71.81,3.62,107.45,6.09l10.05.7,10,.78c32.8,2.56,66,5.54,98.7,8.86l.45,0c11.92,1.05,23.62,2,35.83,2,21.29,0,39.19-3,54.72-9.27a69.09,69.09,0,0,0,19-11.48,110.21,110.21,0,0,0,18.63,17.06c23.68,17.18,53.44,28.81,86.07,33.65a231.4,231.4,0,0,0,34.16,2.75c20.69,0,38.71-3.42,55.1-10.45,29.77-12.77,48.74-43.09,48.38-77.29V317C1827.4,284.51,1810.72,253.82,1783.64,236.92Z"/><path class="cls-36" d="M507.7,252.86c-.18,122.31-.35,234.61-.53,356.92,75.28-12.24,251.34-27.13,263.94-28.83L771,634.34c-42.58,6.62-173.3,6.63-385.31,54V252.1C415.79,251.9,477.61,253,507.7,252.86Z"/><path class="cls-36" d="M662.73,310c-1.75-1.51-4.41-2.25-7.94-2.18-4.23.08-7.07.91-8.48,2.49s-2.13,4.17-2.14,7.73c-.24,82.9-.47,113.62-.71,196.51,0,3.58.7,6.06,2.1,7.48s4.23,1.9,8.46,1.48c3.53-.35,6.18-1.38,8-3.11s2.66-4.35,2.67-7.9c.08-27.45.16-33.74.24-61.2q50.86-3.48,101.78-6.18c-.07,25.66-.14,30.15-.21,55.8.06,24.5-13.41,42.08-32,55.43-23,16.5-52.89,23.86-80.61,27.13-26.54,3.13-55.13,2.79-80.34-9.07-20.74-9.75-31.83-29.33-31.57-52,.18-83.53.36-114.88.53-198.41-.06-23.76,12.35-44,32.44-56.3,24.61-15,53.37-19.83,81.12-19.84,26.85,0,56.05,4.42,80,18.57,19,11.25,31.34,30,31.12,52.57-.12,44.4-.25,57.8-.37,102.2q-66.81,3.16-133.55,7.6c.05-20.12.11-9.23.17-29.35q15.89-.77,31.78-1.48.12-40.19.23-80.37C665.37,314.08,664.49,311.54,662.73,310Z"/><path class="cls-36" d="M897.34,462.13c-1.5-1.22-3.77-1.78-6.78-1.69l-9,.28-.36,167.56q-45.31,2.57-90.55,6.06.51-192.09,1-384.2l100.26-.24c24.75.37,51.62,1.6,74.05,12.47,15.44,7.49,24.57,23.76,24.35,40.84l-.09,75.88c-.42,12.51-.54,25.76-5.92,36.69-5.52,11.21-20.22,15.77-32.15,18.43v1.08c11.8,2.67,26.46,5.24,32.11,16.84,5.4,11.11,5.45,24.45,5.84,37.06q0,42.75-.1,85.5,0,9.1.44,15.49a109.81,109.81,0,0,0,1.35,11.46,38.87,38.87,0,0,0,3.16,9.81c1.5,3.16,3.47,6.86,5.88,11.07v1.07q-46.71,1.17-93.38,3.33a62.53,62.53,0,0,1-6.76-20.15c-1.26-9.23-1.2-18.66-1.31-28q.12-55.27.22-110.54C899.6,465.39,898.84,463.34,897.34,462.13Zm.33-161.81c-1.5-1.24-3.77-1.86-6.78-1.83l-9,.08-.24,113.5,9-.21c3-.08,5.28-.75,6.79-2.05s2.27-3.37,2.27-6.25q.1-48.53.19-97.06C899.92,303.63,899.16,301.56,897.67,300.32Z"/><path class="cls-36" d="M1098.78,622.8q-45.36,0-90.71.63.16-137.64.34-275.27,45.17,0,90.33,0Q1098.77,485.47,1098.78,622.8Z"/><path class="cls-36" d="M1227.21,380.73q-54.07-.71-108.15-.9,0-33.16,0-66.35c-.17-23.51,13-42.76,33.17-54.05,26-14.57,56.13-18.92,84.91-18.9,29,0,60.2,4.75,86.09,19.65,20.25,11.66,34.53,31.1,34.45,55.2l.81,316.73q-54.13-3.76-108.32-6.15,0-24.09-.08-48.18l-2.26-.08a56.79,56.79,0,0,1-23.08,37.93c-14.29,10.13-32.32,11.66-49.1,11.9-15.06.21-32-3.86-42.94-14.68-11.81-11.68-12.86-30.3-13.56-45.91q0-47.78,0-95.54c1-11.27,2.46-22.23,9.57-31.47a78.42,78.42,0,0,1,27-21.73c13.16-6.56,27.12-11.15,41.12-14.87,17.21-4.57,35.16-7.82,52.93-10.9q-.07-40.81-.14-81.63c0-3.57-1-6.15-2.83-7.72s-4.7-2.37-8.44-2.4-6.58.75-8.44,2.29-2.81,4.1-2.8,7.66Q1227.15,345.67,1227.21,380.73Zm11.37,71a31.92,31.92,0,0,0-7.31,9.19,29.73,29.73,0,0,0-3.36,11.28q-.57,6-.55,12,.06,37.71.11,75.44c0,3.12,1,5.48,2.84,7.1s4.69,2.48,8.46,2.61,6.58-.55,8.46-2.05,2.81-4,2.81-7.59q-.11-56.88-.2-113.76A28.41,28.41,0,0,0,1238.58,451.73Z"/><path class="cls-36" d="M1577.39,596.48c.29,17-7.85,34.51-24.23,41.09-23,9.24-50.49,7.11-74.89,5q-49.69-5-99.48-8.92-.51-191.75-1-383.5,50.13.15,100.26.33c24.85.52,51.9,2,74.09,13.74,16.05,8.5,24.65,26.44,24.5,44.28ZM1484,302.93c-1.5-1.34-3.77-2-6.78-2.08l-9-.15q.43,145.31.85,290.62c3.62.31,5.43.48,9,.8,3,.27,5.26-.17,6.77-1.35s2.25-3.24,2.24-6.25l-.81-275.1C1486.31,306.43,1485.54,304.26,1484,302.93Z"/><path class="cls-36" d="M1793.17,623.57c.25,19.26-9.77,38.1-27.77,45.83-22.24,9.53-47.45,8.79-70.87,5.31-25-3.7-50.33-12.47-71.08-27.53-16.15-11.72-28.66-30.3-28-51q-.36-142.52-.73-285c-.79-19.82,11.76-37.08,28.32-46.66,22-12.72,47.42-16.76,71.75-16.65,24.17.11,49.65,4.64,70.9,17.9,17.31,10.81,27.7,30.69,27.53,51.14ZM1700.7,304.1c-1.5-1.44-3.77-2.2-6.77-2.27s-5.27.58-6.77,1.93-2.25,3.63-2.24,6.81q.25,150,.52,300c0,3.2.76,5.59,2.26,7.19a11,11,0,0,0,6.74,3c3,.43,5.24.06,6.74-1.13s2.24-3.39,2.23-6.6l-.45-302C1703,307.87,1702.19,305.53,1700.7,304.1Z"/><rect class="cls-37" x="1008.41" y="249.75" width="90.34" height="90.34"/><rect class="cls-38" x="1010.51" y="251.85" width="86.13" height="86.13"/></g><path class="cls-39" d="M1800,511.49s-14.45,10.6-23.16,31.43,17.34,16.88,17.34,16.88Z"/><path class="cls-40" d="M1870.57,569.22s-.14-25.58-9.25-37.45l-7.77,72.62S1866.85,588.32,1870.57,569.22Z"/><path class="cls-41" d="M1844,665.22s6.56-4.09,9.25-14.32a29.34,29.34,0,0,0-1.19-18.46s6.35-3.46,7.68-13.79-2-14.91-2-14.91a39.48,39.48,0,0,0,5.81-12.32c2.17-7.63-1-12.83-1-12.83s1.22-4.81,4.43-13.47-.24-12.94-.24-12.94a114.65,114.65,0,0,0,5-15c1.44-6.47-3.69-14.08-3.69-14.08s6.35-7.63,5.39-16.28a39.7,39.7,0,0,0-3.79-13.76s1.65-7.1-2.75-17.94c-1-13.72-11.31-16.25-11.31-16.25s-9.76-4.09-18.76,6.31c-10,6.07-12.91,12.75-12.91,12.75a40,40,0,0,0-11.24,8.79c-5.93,6.38-5.39,16.29-5.39,16.29s-8.65,3-11.35,9.1a114.1,114.1,0,0,0-5,15s-5.32,1.37-7.91,10.24-4.47,13.46-4.47,13.46-5.61,2.31-8.41,9.73a39.51,39.51,0,0,0-2.68,13.36s-5.42,1.68-10.51,10.77-2,15.65-2,15.65a29.38,29.38,0,0,0-12,14.11c-3.94,9.82-1.11,17-1.11,17s-8.86,6.45-9.93,16.17.61,13.06.61,13.06l50.74,16.78L1834,694.24s3.33-1.68,8.27-10.12S1844,665.22,1844,665.22Z"/><path class="cls-42" d="M1852,632.44a4.1,4.1,0,0,0,.65-.43,10.49,10.49,0,0,1-3.8-1.38c-3.46-2.66-.76-12.2,0-16.07.45-2.31,1.46-8.94,6.88-9.53a7.55,7.55,0,0,1,2.77.38,8.11,8.11,0,0,0-.84-1.68l.18-.21c-2.95-.18-6.41,1.22-9.84-1-6.09-3.85-1.55-11-.85-14.38.34-1.61,1.56-9.28,8-8.64,2.7.27,5.39.66,8.07.67a10.22,10.22,0,0,0-.73-1.62,1.13,1.13,0,0,0,0-.14,36.14,36.14,0,0,1-17.39-2.12,7.92,7.92,0,0,1-4.39-6.08c-.29-4.54,1.36-12.2,4.74-16.67,1.26-1.67,4.41-3.07,6.45-2.62,3.37.73,6.75,1.35,10.15,1.89a46.43,46.43,0,0,0,5.24.42,5.34,5.34,0,0,0-.62-1.08,3.33,3.33,0,0,0,.15-.39,14.12,14.12,0,0,1-3.74-.8c-3.63-2.11-2.24-9.62-1.12-14.44.92-4,1.27-11.48,3.45-13.45a1.59,1.59,0,0,1,1.36-.34l1.26.23c.1-.12.29-.39.56-.76a26.25,26.25,0,0,1-6.87-2c-5.4-3-4.14-10.43-3.41-14.95.53-3.32.82-6.77,2-9.92a4.32,4.32,0,0,1,4.7-2.74c1.56.22,3.12.41,4.7.55a1.59,1.59,0,0,1-.11-.18s0-.17.09-.53c-6.88-.75-12.81.21-19.17-4.8-2.42-1.9-1.56-7,.81-10.22a4,4,0,0,1,4.16-1.35,34.5,34.5,0,0,0,12.06.84c-.17-.49-.35-1-.58-1.51a32.48,32.48,0,0,1-20.25-3.32,59.07,59.07,0,0,1-10-7c-.59.35-1.16.73-1.69,1.07a62.27,62.27,0,0,0,11.45,6.81c3.07,1.66,3.31,12.12-2.51,13.32-5.1,1.11-13.28-5.62-19.77-9.18-.26.48-.37.73-.37.73l-.24.11c2.32,1.31,6,3.62,6.23,3.79,7,4.48,2.07,18.43-3.76,25.17-1.6,1.87-6.7.71-9-.18a77.13,77.13,0,0,1-9.89-4.27c0,.3,0,.46,0,.46s-.34.12-.87.34c1.18.62,2.38,1.21,3.57,1.77,4.54,2.67,1.39,9.34-.36,13.56-1.23,3-3.23,7.68-5.41,10.51-1.8,2.36-5.72,2.46-8.39,1.14a15.69,15.69,0,0,1-4.74-3.69l-.13.52a5.78,5.78,0,0,0-1,.44,21.67,21.67,0,0,0,2.43,2c3.81,2.53.22,8.7-1.35,12.12-.83,1.83-3.8,9.61-7.53,10.42-1.3.29-3.43-.85-4.73-1.71a3.29,3.29,0,0,1-.16.42,6.89,6.89,0,0,0-.89.48,54.47,54.47,0,0,1,9.55,5c7.15,4.16,4,10.83,2.88,13.36-.69,1.58-3.61,8.69-8.18,9.34s-11.36-4.34-14.42-6.14c0,.68,0,1,0,1a6.69,6.69,0,0,0-1.11.51,68.53,68.53,0,0,1,6.57,3.78c1.18,1.29,3.18,4.64-.91,13.41-4.69,10.07-7.83,11.63-10.45,11a58.42,58.42,0,0,1-6.87-2.8c.13.36.21.55.21.55a16.43,16.43,0,0,0-1.55,1c18.43,8.3,37.11,16.24,56.48,22.1,2,.61,4.07,1.18,6.13,1.75a1.17,1.17,0,0,0,.5.15c12,3.29,24.1,5.84,36.17,8.71C1852.28,633,1852,632.44,1852,632.44Zm-11.21-56.11c6.23,2.5,5.68,6.84,5.41,10.06a26.28,26.28,0,0,1-3.63,10.89c-1,1.67-2.91,1.94-4.85,2.07-4,.28-10.16-.11-18.48-5.07l0,0c-4.49-3.24-.17-13,3.58-18.64a6.22,6.22,0,0,1,6.53-2.39A58.48,58.48,0,0,1,1840.8,576.33Zm-29.33-11.6c-3.37-2.22-3-9.53,3.29-20.18,1.33-2.25,3.67-2.95,6.27-2.7,3.41.36,7.26.76,17,5.5,2.44,1.19,4.54,3,4.71,5.75.2,3.3-1,7-1.87,9.87-.68,2.38-1.72,6.27-3.92,8.31a5.13,5.13,0,0,1-3.65,1.24C1829,572.66,1820.44,570,1811.47,564.73ZM1810,591.19a50.71,50.71,0,0,1-20-8s0-.05-.07-.06c-3.46-3.44-.58-9.07,1.35-12.58,4.16-7.47,7.45-8.53,10.76-8.14,2.15.25,8.24,2.56,12.3,5.36,3.22,2.23,6.43,4.5,3.53,14C1816.92,585,1814.7,592,1810,591.19Zm51-69.56c2.29,3,1.17,10.46-.21,15.69-1.14,4.32-1.11,11-6.36,12.16A30.91,30.91,0,0,1,1837,545a9.44,9.44,0,0,1-2.65-7,22.16,22.16,0,0,1,.77-3.72c.48-1.95,1-3.91,1.7-5.82,1.41-4.14,3.81-9.44,7.86-10.66C1850.93,517.26,1858.6,519.92,1861,521.63Zm-28.56-24.35c1-2.81,3.42-11.73,10.54-9.81,3.93,1,7.76,2.39,11.73,3.29,3.19,1.06,3.4,3.5,3,9-.45,2.44-1,8.31-4.41,14.47-1.1,2-3.48,2.44-5.74,2.27-7.53-.53-16-4.22-17.07-5.41C1827.12,507.49,1830.82,501.79,1832.44,497.28Zm-22.11,23.62c1.84-4.68,4.17-10.48,9.21-11.17,4.38-.43,14,2.37,17.06,7.94,1.46,2.65-.1,7.45-1.1,10.89a59.74,59.74,0,0,1-4.34,10.35c-1.18,2.11-3.6,2.51-6,2.24-4.44-.49-9.72-.77-16.7-5.9C1805.45,533.62,1808.65,525.23,1810.33,520.9Zm-19.6,36.18c-2-1.57-3.59-3.52-2.85-5.93a54.36,54.36,0,0,1,3.84-8.78,57.11,57.11,0,0,1,4.47-7.29c.59-.83,2-2.09,3.15-1.69,6.58.34,9.58,3.29,12.13,5.11,1,.61,1.24,2.85.69,5.71-.09.54-2.46,10.47-6.58,14.94C1802.53,562.44,1793.42,559.22,1790.73,557.08Zm3.78,44.42c-.74,2.31-2.3,8.71-5.48,10.53-2.4,1.37-11.33.14-18.19-5.47-5.21-4.26,5-19.23,5.5-20.09a7.07,7.07,0,0,1,9.1-3.17q3.68,1.66,7.36,3.25c2.42,1,4.85,3.94,4.4,6.52C1796.7,595.89,1795.42,598.68,1794.51,601.5Zm16.61,20.57c-4.12-.72-11.72-2-16.56-6.23-3.7-3.19.41-11.37,1.71-14.42.75-1.76,1.83-3.51,2.66-5.27,1.53-3.31,4.55-4.42,8.18-4.26,3.31.14,9,2.38,10.61,3.17a8.34,8.34,0,0,1,5.08,8.21,34.36,34.36,0,0,1-1.07,6.82C1820.89,613.52,1819.49,623.55,1811.12,622.07Zm33.46,4c-.44,1-1.78,3.87-9,2-2.36-.62-8.8-1.77-12.24-4-4.66-3.06,0-15.77,1.3-18.29,2.67-5.31,5.72-5.39,8.39-5.46a41.84,41.84,0,0,1,10.1.73c2.5.56,5.27,4.5,5.29,7.07C1848.5,614.31,1845.8,623.18,1844.58,626.05Z"/><path class="cls-43" d="M1837.26,469.18s-3.36-1.66-4.54.55,4.27,5.71,6.6,5.18S1841.69,471.65,1837.26,469.18Z"/><path class="cls-43" d="M1826,481.33s-3.36-1.67-4.55.55,3.28,5.31,5.61,4.78S1830.46,483.8,1826,481.33Z"/><path class="cls-43" d="M1842.93,489.07s-3.68-.73-4.25,1.72,4.55,4.28,6.66,3.15S1847.85,490.31,1842.93,489.07Z"/><path class="cls-43" d="M1820.88,511.23s-3.68-.73-4.25,1.71,4.55,4.28,6.66,3.16S1825.8,512.47,1820.88,511.23Z"/><path class="cls-43" d="M1801.61,535.48s-3.68-.74-4.25,1.71,4.55,4.28,6.66,3.16S1806.53,536.71,1801.61,535.48Z"/><path class="cls-43" d="M1806.58,504.62c-.95-.1-2.9,0-3.29,1.89-.51,2.44,3.64,3.53,5.1,2.37S1809.59,504.93,1806.58,504.62Z"/><path class="cls-43" d="M1820.43,542.9c-1.07-.11-3.28,0-3.7,1.87-.56,2.43,4.14,3.55,5.78,2.41S1823.83,543.24,1820.43,542.9Z"/><path class="cls-43" d="M1827.12,544.91c-.73-.23-2.28-.48-2.81.67-.7,1.5,2.42,2.9,3.71,2.39S1829.44,545.61,1827.12,544.91Z"/><path class="cls-43" d="M1827.55,575c-.73-.22-2.28-.47-2.82.68-.7,1.5,2.42,2.9,3.71,2.39S1829.87,575.72,1827.55,575Z"/><path class="cls-43" d="M1847.09,519a4,4,0,0,0-4.27,2.06c-1.34,2.85,5.55,5.52,7.21,3.68S1852,520.36,1847.09,519Z"/><path class="cls-44" d="M1736.8,735.37s11.35,14.09,5.75,27.87-14.09,19.06-14.09,19.06,14.17,13.41,28.87,9.55c0,0-3-13.68,2-24.5a25.66,25.66,0,0,1,17-13.84S1750.76,747.89,1736.8,735.37Z"/><path class="cls-45" d="M1813,732.8c-12.87,12.48-30.06,21.91-47,20.22-33.81-3.36-48.38-44.84-38.3-93.93,10.38-50.54,30.38-85.48,42.12-113.29,4.6-10.88,7.92-20.68,8.92-29.88,0,0,17.42,19.83,27.21,59.56s5.78,61.32,9.1,76.49,18.19,21.22,18.94,42.27C1834.37,704.77,1825.83,720.31,1813,732.8Z"/><path class="cls-46" d="M1813,732.8c-12.87,12.48-30.06,21.91-47,20.22-33.81-3.36-48.38-44.84-38.3-93.93,10.38-50.54,30.38-85.48,42.12-113.29,0,0-35.58,118.88-.32,152.44C1784.8,712.8,1801.94,723.65,1813,732.8Z"/><path class="cls-47" d="M1820.08,725c-52.88,73.2-106.84-10.11-28.73-72,0,0,41.4-23.91,68.08-60.7a70.13,70.13,0,0,0,11.14-23.07s.59,20.15-5.19,49.34C1859.46,648.5,1846.86,688,1820.08,725Z"/><path class="cls-48" d="M1820.08,725c-52.88,73.2-106.84-10.11-28.73-72,0,0-28.28,48.61-3.69,61.33,26.11,13.5,65.81-46.56,77.72-95.76C1859.46,648.5,1846.86,688,1820.08,725Z"/><path class="cls-49" d="M1481.75,218.25c-3.41,14.41-6.71,39.08-27.17,41.26-6.56.7-14.23-4-18.5-8.64.18,3.11.46,8.21.92,11.15,25.25,17,44.76-17.67,49.25-36.63.48-2-4.9-5.44-4.5-7.14Z"/><path class="cls-50" d="M1492.56,223.22a292.08,292.08,0,0,0-12.82,34.17c-2.73,9.27-5.62,19.17-5.13,29,.75,15.17,9.28,29.32,22.11,38.74a73.2,73.2,0,0,1-.78-9.9c-5.45-2.83-12-6.84-15.35-12.82-5.21-9.19-2.71-19.41-.42-28.72,3.63-14.8,9.1-29,15.19-43,.85-1.93-2.84-7.43-2.8-7.51Z"/><path class="cls-51" d="M1521,277.1c-2.87,14.49-13,12.3-13.24,12.23a22.12,22.12,0,0,1-7.21-9.24c-2.1-5.21-2-10.83-1-16.1,2.22-11.36,7.37-22.45,11.28-33.31.09-.26-8-2.1-8.63-.47-2.75,7.65-5.6,15.29-8.26,23-2.47,7.11-4.79,14.65-3.26,22.34,2.21,11.06,12.37,16.35,19.42,17.3,14.94,2.52,19.79-8.73,19.79-8.73Z"/><path class="cls-52" d="M1474.06,215.61c-4.86,33.18-26,54.43-31.93,57.12-6.31,2.87-15.14-4.61-18.73-10.35a68.77,68.77,0,0,1-9,3.89c30.69,31.91,65.26-17.61,67.76-44.33.18-1.87-6.79-6.07-6.8-5.88Z"/><path class="cls-53" d="M1485.73,219.88c-5.24,18.59-10.71,42.62-24.46,58.58-9,10.46-22.53,16.94-38.5,17.91,1.31,2.61,3.87,8.82,4.72,10.65,40.44-2.47,56.8-48.91,65.46-79.67.58-2-4.62-7-4.56-7.25Z"/><path class="cls-54" d="M1496.08,225.92c-6.13,19.05-15.32,44.17-5.89,64.27,6.56,14,22.53,23.38,38.29,23.81-1.94-.94-6.08-3.38-9.1-5.36-18.53-.51-23.78-22-23.76-35.23,0-15.3,4.73-29.88,9.34-44.21.32-1-8.61-4.11-8.88-3.28Z"/><path class="cls-55" d="M1514.34,222.23c-6,12-12.39,27.7-6.2,41.09,7.24,15.67,22.45,26.92,40.61,20.09a46.39,46.39,0,0,1-4.2-7.28c-13.62,5.11-35.3-.48-35-17.44.15-9.62,4.77-20.74,9-29.18.89-1.76-4.67-6.35-4.2-7.28Z"/><path class="cls-56" d="M1550.92,64.31l-57.4,166.88c-4.23-1.46-8.15-3-11.47-4.4-6.19-2.66-10.33-5-10.63-6.26,0-.07,0-.15,0-.22-2.9-48.52-15.75-97.45-15.75-97.45,45.2-28.91,64.87-69,64.87-69Z"/><path class="cls-57" d="M1550.92,64.31l-57.4,166.88c4.24,1.45,8.24,2.68,11.75,3.58,6.52,1.72,11.24,2.39,12.23,1.61l.15-.17c32.13-36.46,72.35-67.15,72.35-67.15-17.85-50.59-8.7-94.3-8.7-94.3Z"/><path class="cls-58" d="M1550.92,64.31l-57.4,166.88c-4.23-1.46-8.15-3-11.47-4.4q.33-2.74.64-5.46a576.61,576.61,0,0,0,3.09-82.33s0-.05,0-.05C1516,104.89,1535,58.82,1535,58.82Z"/><path class="cls-59" d="M1556.36,163.23s0,0,0,0a578.45,578.45,0,0,0-48.21,66.82l-2.85,4.69c-3.51-.9-7.51-2.13-11.75-3.58l57.4-166.88,16,5.49S1553.48,117.78,1556.36,163.23Z"/><path class="cls-60" d="M1556.33,163.26a342.46,342.46,0,0,1-36-10.09l0,0,0-.05A341.53,341.53,0,0,1,1485.78,139a304.91,304.91,0,0,1-30.12-16.14s12.85,48.93,15.75,97.45c0,.07,0,.15,0,.22.3,1.23,4.44,3.6,10.63,6.26,3.32,1.44,7.22,2.94,11.46,4.39l0-.05v.06c4.23,1.46,8.23,2.67,11.73,3.58,6.52,1.72,11.24,2.39,12.23,1.6l.15-.16c32.13-36.47,72.35-67.15,72.35-67.15A305.16,305.16,0,0,1,1556.33,163.26Z"/><path class="cls-61" d="M1581.22,75c-.74,2.16-15-.76-31.73-6.53s-29.78-12.21-29-14.37,15,.75,31.73,6.52S1582,72.81,1581.22,75Z"/><path class="cls-62" d="M351.68,218.31s.12,6,.27,14.64c.62,36.59,13.1,131.94,133.81,131.94,57.69,0,309,18.75,336.54,0,60.17-40.93,76.63-148.27,76.63-148.27l-141.22.19-.06,23.68s-14.55-9.91-27.27-13.71c-16.2-2.44-63.68-2-93.77-.29-24,1.38-57.25,6.15-71.81,8.44-11,5.09-23.08,15.83-23.08,15.83l0-32.79Z"/><path class="cls-63" d="M132.71,715.09l59.59,6.77,85.77-13.09L362.49,669l31.61-42.89L316,402.69l3.61-18.51-8.13-17.61L295.23,358a7.64,7.64,0,0,0-1.14-2C271.31,327.17,11.12,369.3,14,382.82l16.7,51L79.89,548.51,57.32,591.84l-14,52.82,29.8-4.06,23-38.82L121,670.4Z"/><path class="cls-63" d="M360,456.92l36.85,9.82S385.69,504.66,366.22,503s-.85,0-.85,0l-25.56-34.25Z"/><path class="cls-63" d="M14,382.82,5.4,343.55C35.2,296.6,69.05,293,139,299.76s122.34-28,122.34-28L295.23,358Z"/><path class="cls-64" d="M165.66,445.12l16.26-11.28,19.86-3.61s-.45-42.89-36.12-61c0,0-22.57-2.71-18,35.67C147.61,405,149.66,430.33,165.66,445.12Z"/><path class="cls-64" d="M228,420.29s13.66-12.23,29.91-13.11c0,0-4.06-53.7-38.6-61.15C219.27,346,185.53,361.15,228,420.29Z"/><path class="cls-64" d="M398.61,470s27.1-.11,20.32-16.25,19-37.92,19-37.92.45-19.86-16.71-23.93c0,0,29.35-32.05,11.29-52.36s-33.41,29.75-33.41,29.75-5.55-46.51-19-37.43-9.48,51.35-9.48,51.35-12.41,6.62-14,24,7.22,28.46,7.22,28.46a39.76,39.76,0,0,0-8.58,18.06C358.87,462.1,397.83,465.83,398.61,470Z"/><path class="cls-64" d="M56,642s35.67-8.13,29.35,16.7c0,0,24.71,26.63,20,46.5s-11.46,26.63-11.46,26.63L46,735S19.39,712.38,30.68,674C30.68,674,16.69,645.12,56,642Z"/><path class="cls-64" d="M33.39,189.15l-14.9-54.62s52.82-52.82,103.38-28.89L147,154.84s25.5,4.59,8.27,23.48c-36.11,10-94,59.53-134.53,35.21l-2.26-.9s-2.62-8-2.06-10C18.32,195.79,28.25,191.77,33.39,189.15Z"/><path class="cls-64" d="M269.05,794.09a29.45,29.45,0,0,0,13.09,28.44c16.25,10.84,24.38,11.74,24.38,11.74l33.29-21.67,7.34-10.38s58.68-49.66,55.52-84.87c0,0-28.6-50.46-62.86-14l-23.08,12.19v13.54l-8,13.55,1.36,11.28L302.45,767Z"/><path class="cls-64" d="M199.07,800.86s28,10.84,10.38,31.15-56.61-1.8-56.61-1.8-27.36-27.09-4.33-80.81l46.28,1.88c-1.41,1.75-10.65,13.63-7.58,29.43A36,36,0,0,0,199.07,800.86Z"/><g class="cls-65"><path class="cls-66" d="M94,611.26a3.12,3.12,0,0,0-.8.57,91.48,91.48,0,0,0-10.91,21.79c-.7,2.1-1,2.36,1.61,3.43,8,3.33,11.29,12.15,7.48,20.11-.64,1.33-.86,2.14.73,2.72A5.94,5.94,0,0,1,94,661.32c2.84,2.64,5.53,5.47,8.6,7.82,3.82,2.94,6,6.82,7.48,11.21,2.48,7.28,3.46,14.67,1.56,22.26-.56,2.25-1.3,4.43-3.06,6a2.22,2.22,0,0,0-.53,2.66,27.08,27.08,0,0,1,.59,10.94,10.55,10.55,0,0,1-2.73,6.14c-4.38,4.82-9.29,8.59-16.05,9.48-3.59.48-6.9-.31-10.22-1.24-1.14-.31-1.84-.29-2.47.79-2.7,4.63-11.24,7.27-17.43,4.59a18.16,18.16,0,0,1-2.94-1.43,3.8,3.8,0,0,0-4.12-.38,8.24,8.24,0,0,1-6.41.13,35.13,35.13,0,0,1-18.35-14.95A43.13,43.13,0,0,1,22,706.47c-.14-1.58-.4-3.15-.54-4.74A51.92,51.92,0,0,1,26.61,674a2.72,2.72,0,0,0-.37-3.41,16.6,16.6,0,0,1-1.36-19.71c2.78-4.6,6.36-8.43,11.5-10.41a1.77,1.77,0,0,0,1.26-2,103.26,103.26,0,0,1,1.94-16.26,109.7,109.7,0,0,1,7.19-23.3,187.09,187.09,0,0,1,23.09-39.55c1.55-2.07,3.75-4,4.19-6.42s-1.48-4.61-2.41-6.89C54.37,503.8,36.87,461.69,19.92,419.36c-1.66-4.16-4-8-6-12-.88-1.79-1.76-3.57-2.67-5.33a17,17,0,0,1-1-14.12c.52-1.44.33-2.22-1.16-2.7a15,15,0,0,1-2.14-1C2.3,381.82.18,378.1-.32,372.8c-.86-9.21-1.73-18.39-1.55-27.66.28-14.82,3.8-28.91,9.31-42.55a288.91,288.91,0,0,1,12.63-27c6.82-12.88,15.55-24.24,26.93-33.45,2.52-2,2-1.63,1-4.13-1.62-3.85-3.05-7.77-4.4-11.72-.68-1.95-.74-2-2.77-1.5a27.44,27.44,0,0,1-15.3-.29c-6.57-2.14-11.29-6.21-12.71-13.3a17.69,17.69,0,0,1,1.33-10.49,32.25,32.25,0,0,1,11-13.45c2.21-1.65,2.14-1.54,1.08-4.11a137.61,137.61,0,0,1-8.77-32.73c-.64-4.42-1.87-8.74-2-13.25a20.18,20.18,0,0,1,6.43-16,71.87,71.87,0,0,1,22-14.59c11.93-5,24.08-9.43,37-11.2,10.86-1.49,21.78-2,32.69-.35a53.65,53.65,0,0,1,7.19,1.9,7.09,7.09,0,0,1,3.65,2.45,94.86,94.86,0,0,1,13.43,22.45c2.72,6.71,5.24,13.52,7.81,20.29.88,2.32,1.75,4.66,2.44,7a2.41,2.41,0,0,0,2.51,2A19.43,19.43,0,0,1,158.3,153c5.74,2.75,8.41,8,7.87,14.38-.64,7.52-5.08,12.53-10.48,17-3.59,2.95-3.65,2.86-2.11,7.07,2,5.61,4.86,10.88,7.14,16.39a1.71,1.71,0,0,0,2.09,1.13c28.71-3.21,53.07,7.12,74.93,24.56,14.94,11.92,26,27,34.14,44.25,1.19,2.53,1.92,5,.53,7.69a1.83,1.83,0,0,0,.11,1.95c8.27,14.6,13.35,30.55,19.38,46.09,2.59,6.67,5.12,13.36,7.5,20.1A3.69,3.69,0,0,0,303,356.4c12.6,1.44,21.51,11.8,23.64,21.85a29,29,0,0,1-.51,13.59c-1.1,4-2.06,8.1-3.91,11.87a3.53,3.53,0,0,0,.1,3.12c4.17,10.21,8.23,20.46,12.45,30.65,2.33,5.6,4.41,11.28,6.37,17a25,25,0,0,0,2.51,5.05c.63,1,1.27,1,2.18.35a45.16,45.16,0,0,0,5.36-5.17c.47-.48.46-.91.12-1.56-4.79-9.11-2.17-16.73,7.2-21.25.43-.21-.12-.87-.35-1.26A44.79,44.79,0,0,1,352,400.3c1.18-8.08,4.91-14.89,12.37-19a2.17,2.17,0,0,0,1.28-2.82c-1.94-9.43-1.9-19-1.07-28.5a34.83,34.83,0,0,1,6.91-17.86,17.16,17.16,0,0,1,11.08-7c5.89-1.05,10.28,1.09,13.49,6a37.92,37.92,0,0,1,5.95,15.76c.07.48.15,1,.23,1.47,1.13-.14,1.08-1.15,1.45-1.77,4.12-7,9.48-12.43,17.7-14.47s15.59.68,19.76,7.36a23.34,23.34,0,0,1,3.09,9.58,32.13,32.13,0,0,1-.82,13c-2.79,9.69-6.47,19-12.15,27.39a4.68,4.68,0,0,0-.33.79c.7.87,1.75,1,2.63,1.35a20.25,20.25,0,0,1,7.65,31.86c-3.7,4.31-7.55,8.48-12.7,11.12a2.3,2.3,0,0,0-1.37,2.61,18.73,18.73,0,0,1-3.28,12.14,1.93,1.93,0,0,0-.09,2.4c2.68,4.66,1.68,9-1.46,13a18.53,18.53,0,0,1-13.91,7.66,33.54,33.54,0,0,1-3.86.27c-1.41-.07-1.89.5-2.12,1.81a40.23,40.23,0,0,1-10.32,20.16c-3.07,3.38-6,6.92-9.37,10-7.12,6.47-15.75,9.78-25,12-.13.46.22,1,.44,1.51,8,19.17,14.69,38.83,21.61,58.4,1,2.89,1.63,5.93,2.4,8.9a2.53,2.53,0,0,1,.15,1.46c-1.13,2.59.35,3.67,2.39,4.66a8.69,8.69,0,0,1,3.31,3.36,34.54,34.54,0,0,1,3,5.81c3,7.46,6.28,14.8,9.07,22.35a7.09,7.09,0,0,1-.39,6c-5.83,12.38-14,23.09-23.55,32.77-12.61,12.75-27.11,23-42.71,31.72a265.86,265.86,0,0,1-26.79,13c-2.39,1-2.39,1-2.12,3.67a15.13,15.13,0,0,1-.08,3.86c-2,12.71-8.62,22.43-18.87,29.91-.72.52-1.45,1-2.49,1.75l17.5,16.66c.92-.64.46-1.49.53-2.2.29-3.17,1.54-5.81,4.46-7.26,1.38-.68,1.62-1.27,1.14-2.71a22.79,22.79,0,0,1-.88-12.62,12.34,12.34,0,0,1,5.91-8.23c1.34-.77,1.6-1.49,1.21-2.81a16.29,16.29,0,0,1-.15-8c1.16-5.8,5.7-9.24,11.61-8.69a1.67,1.67,0,0,0,2-1.19c4.16-8.87,11.51-14.59,19.6-19.43,9.94-5.94,20.48-5.43,31.12-2.17a59.4,59.4,0,0,1,17.54,8.73c5.09,3.68,8.88,8.48,12.18,13.74a16.33,16.33,0,0,1,2.13,12.32c-2.24,10.95-5.5,21.54-11.41,31.17-3.06,5-6.18,10-9.43,14.84a89,89,0,0,1-11.7,13.5c-5.91,5.89-11.88,11.73-18.09,17.32a54.39,54.39,0,0,1-8.68,6.27c-1.16.69-1.43,1.23-.77,2.56,1.31,2.67,1,3.36-1.45,5.21-1,.72-1.92,1.42-2.93,2.05-9.18,5.78-18,12.11-26.56,18.72-3.18,2.45-6.84,4-10.22,6.11a4.53,4.53,0,0,1-3.19.36c-3.34-.49-6.67-1.08-10-1.47a7.19,7.19,0,0,1-3.75-1.57A87.45,87.45,0,0,1,275,820.48a11,11,0,0,0-4.54-3.54c-7.3-3.26-10.84-11.15-7.83-19.19,1-2.61,1.05-2.62-1.15-4.2C255.11,789,250,783.21,245.29,777c-.65-.87-1.29-1.75-2.06-2.79-1.15.84-2.23,1.65-3.33,2.42-6.34,4.43-13.55,7.06-20.61,10-6.78,2.8-13.92,4-21.17,4.65-.56,0-1.32-.12-1.39.71,0,.53.51.8,1,1,.64.27,1.27.55,1.93.79a43.35,43.35,0,0,1,17.86,12.53,26,26,0,0,1,2.28,3.12,10.2,10.2,0,0,1,1.45,8.52,61.34,61.34,0,0,1-4.44,12.61c-2.17,4.31-5.87,6.92-10,9.09a45.44,45.44,0,0,1-27.43,4.85,12.5,12.5,0,0,1-2.32-.51c-7.89-2.39-15.71-5-23.35-8.11-3.57-1.46-5.78-4.26-7.62-7.26-5.92-9.64-10.43-19.79-11.47-31.31-1.33-14.67-.08-29,4.91-42.87.84-2.33,1.59-4.73,3.34-6.6a15.43,15.43,0,0,1,7.31-4.37c9.61-2.72,19.05-2.59,28.27,1.49a4.92,4.92,0,0,0,4.71,0c3.4-1.69,6.8-.9,9.89,1.11a18.12,18.12,0,0,1,3.17,2.7,1.92,1.92,0,0,0,2.75.51c7.12-3.58,14-7.58,20.7-11.84,1.42-.91,1.34-1.61.55-2.81a25.21,25.21,0,0,1-2.21-3.88c-.71-1.62-1.78-2.06-3.5-1.9a225.41,225.41,0,0,1-35.15.42c-14.9-.93-29.68-2.72-44-7.07-.67-.2-1.33-.43-2-.63a8.93,8.93,0,0,1-6-5.31,179,179,0,0,1-10.58-32.54c-.66-3-.78-5.92.76-8.7.39-.71.44-1.28-.29-1.8a4.22,4.22,0,0,1-1.27-2.29q-10.61-29-21.22-57.93C94.54,612.38,94.27,611.86,94,611.26ZM48.62,640.84c1-.22,1.61-.33,2.18-.47,6.29-1.56,12.63-2.79,19.16-2.33,1.36.1,1.66-.58,1.82-1.7a42.57,42.57,0,0,1,3.33-10.79,204.4,204.4,0,0,1,37.17-56.9,60.44,60.44,0,0,1,9.67-8.83c1.23-.86,2.52-2.58,4.17-1.41s.52,3.13.06,4.64c-.76,2.46-1.85,4.82-2.66,7.27-6.61,20.07-10.57,40.55-9.6,61.79a13.68,13.68,0,0,0,.39,3.54q4.84,15.81,9.63,31.64a3.78,3.78,0,0,0,3.08,2.84c1.06.24,2.14.41,3.22.59,7.55,1.29,15.15,2.14,22.77,2.81,8.82.78,17.66,1.25,26.5.31a21.13,21.13,0,0,1,2.39-.08,1.33,1.33,0,0,1,1.48,1.17c.12.85-.48,1.24-1.15,1.52a9.2,9.2,0,0,1-1.14.32,63.54,63.54,0,0,1-9.68,1.73,164.13,164.13,0,0,1-41-1.53c-3.64-.56-4.56.07-5.16,3.73a7,7,0,0,0,.34,3.52c.57,1.59,1.13,3.19,1.76,4.75,2.6,6.45,5.38,12.84,7.76,19.37,1.08,2.95,2.79,4.35,5.81,4.57,5,.36,9.89,1,14.85,1.2a364.37,364.37,0,0,0,58.06-1.78,384.7,384.7,0,0,0,67.38-13.62c21.5-6.36,42.31-14.41,61.78-25.66,10.8-6.24,21-13.32,29.78-22.24,6.2-6.28,11.37-13.26,14.7-21.52a6.42,6.42,0,0,0,.08-5.39,125.16,125.16,0,0,1-7.24-20.16,22.18,22.18,0,0,0-2.66-6.29c-.87-1.43-1.34-1.46-2.53-.4-2.59,2.32-5.23,4.59-7.72,7-9.73,9.51-20.81,17.23-32.29,24.41a81.06,81.06,0,0,1-15.7,7.84c-1.18.42-2.71,1.33-3.5-.08-1-1.78,1-2.32,2-3,9.77-6.52,19.14-13.57,28.51-20.62a151.6,151.6,0,0,0,16.07-13.77,42,42,0,0,0,6.17-7.63,8.53,8.53,0,0,0,1.07-8c-4.51-13.57-8.62-27.27-12.8-41-3.13-10.26-5.91-20.63-9.28-30.81-4.44-13.38-9.09-26.7-13.42-40.12q-9.79-30.35-19.51-60.71c-.78-2.43-1.2-4.71-4.71-4.29-1.55.19-2-1.08-1.06-2.45a13.51,13.51,0,0,1,1.73-2.05c3.62-3.56,5-7.85,5-12.92-.05-10.86-6.47-18.82-17.11-20.86a17.17,17.17,0,0,0-8.24.63c-2.28.68-4.54,1.43-6.81,2.18-.79.26-1.57.44-2.2-.26s-.38-1.67.11-2.46a10.5,10.5,0,0,1,4-3.5c1-.53,2-1,2.89-1.55,2.4-1.51,2.34-1.52,1.33-4.24-4.08-10.87-8.69-21.57-11.9-32.75a179.93,179.93,0,0,0-12.08-32c-.27-.53-.56-1.06-.79-1.61-.47-1.15-1.1-1.17-2-.47a55.46,55.46,0,0,1-7.34,4.56c-6.08,3.19-12.32,6-18.68,8.59-9.76,3.94-19.35,8.33-29.35,11.68-1,.34-2.07,1.13-3.79.41,2.22-1.4,4-2.73,6-3.78,13.37-7,26.23-15,39.51-22.18a86.57,86.57,0,0,0,8.78-5.06c5.75-4.07,4.84-2.62,2.15-8.19-.47-1-1-1.92-1.6-2.86-14.56-23.8-34.83-40.85-60.87-50.83-13.76-5.27-28-7.47-42.73-4.88-2.31.41-3.46-.31-4.3-2.62-2.6-7.2-5.37-14.33-7.58-21.66a4.67,4.67,0,0,0-1.24-2.36,16.13,16.13,0,0,1-1.16,1.63,137.43,137.43,0,0,1-34.4,26.39c-10,5.5-20.18,10.72-30.2,16.21a160.71,160.71,0,0,0-15.34,9.14,75.08,75.08,0,0,0-15.27,14.58c-12.75,15.87-21.55,33.78-27.64,53.1-4.48,14.21-7.26,28.69-6.49,43.7a82.63,82.63,0,0,0,2.9,17.31c.28,1.05.59,1.84,1.83,2,3.75.35,7.52,1.11,11.27.63a172.49,172.49,0,0,0,25.36-5.27c9.36-2.67,18.8-5.05,28-8.17.86-.28,1.77-.82,2.72-.07-3.13,3.63-20.57,11.39-31.87,14.32s-22.34,6.87-34.18,7.86a47.29,47.29,0,0,0,3.26,9.42c3.89,7.63,7.17,15.51,10.43,23.41q25,60.6,50,121.23a9.5,9.5,0,0,0,1.59,3.18c3.08-2,6.11-4.11,9.22-6,.94-.59,2.2-1.69,3.2-.61s0,2.22-.68,3.21c-1.54,2.32-3.07,4.63-4.63,6.94-4.58,6.74-9.35,13.36-13.7,20.25-9.57,15.18-17.87,31-22.65,48.42A190.71,190.71,0,0,0,48.62,640.84ZM120.67,111.7a41.81,41.81,0,0,1-11.33,10.5,116.14,116.14,0,0,1-16.15,9c-18.94,8.73-38.6,14.6-59.7,14.61-1.87,0-2,.11-2,2.05a67.27,67.27,0,0,0,2.25,16.8,130.73,130.73,0,0,0,14.14,33,4.79,4.79,0,0,0,4.51,2.67c8.26-.07,16.48-.4,24.55-2.37,20.55-5,39-14.46,56.26-26.51a29.05,29.05,0,0,0,3.12-2.76,3.47,3.47,0,0,0,.94-3.27,195.11,195.11,0,0,0-9-35.77A105.93,105.93,0,0,0,120.67,111.7Zm295,326c-1.12-.5-2.32-.08-3.49-.17-3.45-.25-5.94-2-6.91-5.21a24.61,24.61,0,0,1-.24-13.82,5.74,5.74,0,0,1,1.56-2.84,1.6,1.6,0,0,1,2.76.83,12.85,12.85,0,0,1,.2,2.07,40.4,40.4,0,0,0,1.43,8.81c.77,2.44,1.7,2.94,4,2,7-2.95,12.24-7.72,14.73-15.07a9.11,9.11,0,0,0-1.87-9.72,34.87,34.87,0,0,0-5.2-4.89c-2.64-1.89-2.64-1.88-5.26.11a5.34,5.34,0,0,1-.72.53c-.86.52-1.74,1.08-2.74.33a2.47,2.47,0,0,1-.76-2.69,16,16,0,0,1,1.86-5.32c3-5.17,5.18-10.73,8-16,3.25-6.05,6.24-12.21,7.91-18.92a21.63,21.63,0,0,0,.92-7.06,8.11,8.11,0,0,0-2.32-5.34,4.17,4.17,0,0,0-4.63-1.11,19.58,19.58,0,0,0-5.69,3.2,37.86,37.86,0,0,0-9.88,12.18A105.4,105.4,0,0,0,402,377.53c-1,3.12-1.68,6.36-3.69,9.06a.76.76,0,0,0,.14,1.24c.71.54,1.46,1,2.18,1.56a25.79,25.79,0,0,1,6.12,5.62c2.16,3,1.87,6-.79,8.57a12.06,12.06,0,0,1-4.82,2.9,51.54,51.54,0,0,1-11.05,2.34,19.45,19.45,0,0,1-7.4-.46c-1.07-.32-2.19-.65-2.27-2s1.08-1.77,2.15-2c2.89-.71,5.71-1.65,8.66-2.17a34.45,34.45,0,0,0,6.91-1.8c.95-.39,2.09-.59,2.66-1.73-1.87-2.15-4.27-3.39-6.56-4.74-3.95-2.3-7.9-4.67-12.48-5.5-5.36-1-10,.29-13.77,4.46-3,3.31-3.81,7.4-4,11.61A56.11,56.11,0,0,0,370,433c.87,1.7,1.85,2.59,3.82,2.67a19.46,19.46,0,0,1,7.44,2,1.73,1.73,0,0,1,1.12,1.91,1.76,1.76,0,0,1-1.68,1.44,15.22,15.22,0,0,1-1.79.09c-1.59.05-3.18,0-4.77.15-4,.33-7.93.74-11.62,2.38-2.57,1.15-2.9,2.68-1.25,5a17.09,17.09,0,0,0,4.41,4,43.13,43.13,0,0,0,14.44,6.16C388,460.64,395.89,462.1,404,462a25.42,25.42,0,0,0,8.79-1.4c2.81-1.07,3.25-3.52,1-5.57a31.58,31.58,0,0,0-4-3c-4.06-2.7-8.34-5-12.63-7.32a9.71,9.71,0,0,1-2.24-1.46,1.64,1.64,0,0,1,.83-2.93,7.09,7.09,0,0,1,2.06,0A39.54,39.54,0,0,1,408.77,443c1.41.51,2.79,2.26,4.24,1.26,1.22-.84,1.65-2.65,2.2-4.15A3.45,3.45,0,0,0,415.63,437.73ZM51.15,729.05c0-1.19-.85-1.84-1.35-2.67A21.47,21.47,0,0,1,47.35,721a6.09,6.09,0,0,1-.17-2.65,1.12,1.12,0,0,1,.67-.91,1.06,1.06,0,0,1,1.31.4,4.55,4.55,0,0,1,.63,1c1.89,4.07,5,7.39,7,11.43a1.47,1.47,0,0,0,1.16.79,13.11,13.11,0,0,0,12-2.81,1.88,1.88,0,0,0,.33-3.05A27,27,0,0,1,67.43,721a2.74,2.74,0,0,0-3.05-1.73,5.89,5.89,0,0,1-3.75-.73,1.81,1.81,0,0,1-1-2.25,1.6,1.6,0,0,1,1.86-1.17c3.41.67,6.44-.73,9.56-1.64a5.24,5.24,0,0,1,1.15-.29c1.36-.06,2,1,1.31,2.17a4.33,4.33,0,0,1-1.93,1.81c-1.4.67-1.25,1.47-.52,2.59,1.79,2.71,3.12,5.95,7.27,5.51a.61.61,0,0,1,.28.09c3.77,1.68,7.61,1.08,11.42.27,3.39-.72,8.18-7,8-10.46a6.71,6.71,0,0,0-.23-1.48c-.32-1.24-.75-2.47-1-3.72a3.53,3.53,0,0,0-3.24-3c-.71.5-.76,1.36-1.15,2-.5.86-1,1.74-1.54,2.54s-1.09,1.26-2,1-.9-1.21-.79-2a16.46,16.46,0,0,1,.54-2.62c2.1-6.48,1.37-12.73-1.39-18.85-.16-.36-.28-.74-.41-1.11-.07-.19-.17-.37-.22-.56-.14-.59-.23-1.19.33-1.63a1.43,1.43,0,0,1,1.9.16,8,8,0,0,1,2.26,2.75c2.16,4.26,4.4,8.51,3.34,13.58-.22,1.09.4,1.45,1.38,1.31,2.16-.31,4.87-3.16,4.92-5.35a20.84,20.84,0,0,0-1.35-8.78,45.22,45.22,0,0,0-21.88-23.48,5.24,5.24,0,0,0-3.41-.58,26.18,26.18,0,0,1-6.85.23c-1.3-.11-3.14.29-3.41-1.56-.24-1.65,1.5-1.9,2.63-2.38,3.28-1.43,6.6-2.75,9.91-4.12a10.24,10.24,0,0,0,5.15-4.34,2.42,2.42,0,0,0,.45-2.23c-.69-1.8-1.52-3.4-3.5-4.19a26.41,26.41,0,0,0-10.45-2.11,69.07,69.07,0,0,0-24.42,4.89,22.88,22.88,0,0,0-8.22,5.28c-3,3.17-2.65,5.85.88,8.41,2.9,2.11,6.21,2.46,9.59,2.75a11.06,11.06,0,0,1,3.53.42c1.52.66,1.67,2,.32,3a5.82,5.82,0,0,1-2.51.89,23.61,23.61,0,0,1-6.21.56c-1.2-.13-1.74.4-2.23,1.44-7.33,15.5-7.28,31.1-.65,46.76a19.93,19.93,0,0,0,7.2,8.57C47.05,728.73,48.9,729.66,51.15,729.05Zm332-13.36a20.88,20.88,0,0,0-14,4.9,70.77,70.77,0,0,0-20.73,28.67c-3.82,9.37-7.6,18.76-12.18,27.81s-10.53,16.52-19.55,21.43a37.93,37.93,0,0,0-10.37,8.42c-4.29,4.89-7.2,10.48-7.46,17.12-.14,3.68,1.79,5.46,5.47,5.37a18.62,18.62,0,0,0,8.49-2.54,117.61,117.61,0,0,0,25.77-19.59c.84-.84,1.06-1.5.31-2.54-1-1.45-1.93-3-2.86-4.54-.29-.48-.8-1.07-.31-1.59s1.31-.26,1.9.13a18.82,18.82,0,0,1,2.35,1.81,1.52,1.52,0,0,0,2.53-.13c1.67-2,3.88-3.39,5.86-5a196,196,0,0,0,16.39-15.17c9.63-10.13,18.15-21.07,24.36-33.68A73,73,0,0,0,395.91,726c.7-4.32-.94-7-4.88-8.7A25.87,25.87,0,0,0,383.14,715.69ZM103.31,103.83a120.46,120.46,0,0,0-30.07,4.44,150.43,150.43,0,0,0-33,12.63,57.91,57.91,0,0,0-12,8.21A16.46,16.46,0,0,0,24,134.48c-.94,2.17-.55,3.29,1.57,4.38a16.05,16.05,0,0,0,6.62,1.57,78.24,78.24,0,0,0,15.74-.91c14.42-2.2,28.21-6.57,41.7-12a93.22,93.22,0,0,0,20.12-10.9,30.59,30.59,0,0,0,6.35-5.83c2.56-3.32,2.28-4.2-1.68-5.58S106.19,104,103.31,103.83Zm190.22,666c-12.36-11.46-22.12-24.53-31.25-38.44a39.87,39.87,0,0,1-11,11.66,78.37,78.37,0,0,1-13.78,8,4.5,4.5,0,0,0,1.32,2.5c2.26,3,4.52,6,6.86,9a150.62,150.62,0,0,0,25.8,25.85c1.65,1.29,1.73,1.28,2.93-.4a65.56,65.56,0,0,1,14.16-14.35C290.16,772.47,291.71,771.25,293.53,769.85ZM150.88,755a7.24,7.24,0,0,0-2.25,3.19,53.52,53.52,0,0,0-5,20.11c-1,15.58,1.15,30.51,9,44.31a8.09,8.09,0,0,0,4.26,3.91c3.89,1.49,7.72,3.16,11.64,4.59,5.42,2,10.86,3.75,16.83,3,5.56-.66,11-1.49,16.08-4.07,4.6-2.36,8-5.75,9.3-11a4.1,4.1,0,0,0-1-4.07,17.81,17.81,0,0,0-5.52-4,32.46,32.46,0,0,0-17.43-2.9c-7.45.66-14.47,2.62-20.32,7.6-.56.47-1.34.82-1.39,2a45.63,45.63,0,0,0,13.77,3.42c5,.36,10.11.89,15.17.06a4.41,4.41,0,0,1,.89,0c.53,0,1,.18,1.09.76,0,.39-.32.71-.69.9a30.31,30.31,0,0,1-5.95,1.9c-4.55,1.23-9.11.2-13.65,0a32.85,32.85,0,0,1-16.18-5.51,6.81,6.81,0,0,1-2.56-2.44,50.84,50.84,0,0,1-3.8-8.07c-2.57-7.82-3.52-15.9-3.89-24.05C148.77,774.84,148.78,765,150.88,755ZM34.07,195.84c-3.59,2.88-6.61,5.86-8.66,9.68s-1.18,5.89,2.71,7.54A21.06,21.06,0,0,0,33,214.4c7,1.13,14.08.69,21.08-.25a207.15,207.15,0,0,0,42.39-10.58,203.24,203.24,0,0,0,40.25-19.17,73.35,73.35,0,0,0,12.94-10,23.52,23.52,0,0,0,4.53-5.87c1.81-3.57,1.1-5.79-2.45-7.55a20.28,20.28,0,0,0-7.45-1.93c-2.5-.2-2.69-.13-2.24,2.3,1,5.38-1.14,9.48-4.91,13-.95.88-1.95,1.7-3,2.5-8.72,6.87-18.49,11.95-28.43,16.74a119.5,119.5,0,0,1-27.16,9.63A137.07,137.07,0,0,1,47,206.32a8.55,8.55,0,0,1-6.38-2.74C38.36,201.19,36.34,198.61,34.07,195.84ZM343.15,726.58a10,10,0,0,0,2.3-2.9,48.36,48.36,0,0,1,11.26-11.4,23.12,23.12,0,0,1,9.9-3.9c1.17-.18,3-.88,3.42.56.35,1.23-1.57,1.46-2.57,2-9.09,4.64-16.47,11-21.07,20.33-1.65,3.34-2.34,6.9-3.23,10.46-2.57,10.31-7.35,19.7-12.91,28.69-3.3,5.33-6.77,10.56-11.47,14.8-3.7,3.33-7.42,6.62-11.22,9.83a58.49,58.49,0,0,0-9.47,10.29,27.6,27.6,0,0,0-5,15.05C293,822,293,822,294.7,823c.17-.92.33-1.79.5-2.65a34.17,34.17,0,0,1,8.68-17,54.18,54.18,0,0,1,11.07-9A40.53,40.53,0,0,0,327.76,782c4.73-7.16,8.28-14.93,11.7-22.77,3.06-7,5.75-14.19,9.41-20.92a67.83,67.83,0,0,1,17.25-21.1c8.87-7,18.51-8.7,29-3.76a4.22,4.22,0,0,0,.88.21,1.71,1.71,0,0,0-.15-1.74c-.76-1.16-1.5-2.35-2.35-3.45-5.71-7.39-13.67-11-22.44-13.14a12.5,12.5,0,0,0-11.45,2.61A49,49,0,0,0,344.46,719,17.59,17.59,0,0,0,343.15,726.58Zm51.18-257.21c-3-.51-5.7-.85-8.31-1.4-8.16-1.69-16.37-3.29-23.55-7.89-1.19-.76-1.71-.27-2.41.61a36.23,36.23,0,0,1-11.28,9.08,8,8,0,0,0-2.68,1.76c3.94,8.13,8.65,15.71,16.43,20.94a16.16,16.16,0,0,0,4.27,2,9.83,9.83,0,0,0,9.32-1.35A55.54,55.54,0,0,0,394.33,469.37ZM238.55,767.14a64,64,0,0,1-20.68-15.81c-1.09-1.28-1.89-1.25-3.17-.3a63.36,63.36,0,0,1-15.78,8.21,11.16,11.16,0,0,1-4.6,1.12,3,3,0,0,0-3.13,1.75,33.52,33.52,0,0,0-4.13,9.51,12.1,12.1,0,0,0,1.37,9.19c1.62,2.67,2.49,3,5.57,2.35l1.17-.22a136.44,136.44,0,0,0,38.53-12.82A23.73,23.73,0,0,0,238.55,767.14ZM393.19,384.37a62.24,62.24,0,0,0,.34-6.94,146.37,146.37,0,0,0-2.31-21A120.55,120.55,0,0,0,388.38,344a26.41,26.41,0,0,0-2-4.95c-1.67-2.93-2.77-3-5.15-.52a15.55,15.55,0,0,0-3,4.77,37,37,0,0,0-2.4,9.18c-1.24,8.6-.64,17.23-.57,25.85,0,1.51.6,1.86,2,1.77a26.58,26.58,0,0,1,14.26,3.5C391.91,383.83,392.36,384,393.19,384.37ZM306.41,773.62c-1.84-1.12-3.58-1.15-5.16-1.68a4.82,4.82,0,0,0-4.72.89,103.71,103.71,0,0,0-12.84,11.1,49.19,49.19,0,0,0-7.95,10.77,16.72,16.72,0,0,0-2.48,7.57A6.84,6.84,0,0,0,277,808.7c-.8-6.11,2-10.58,4.9-15,3.94-6,9.42-10.45,15.21-14.53A95.43,95.43,0,0,1,306.41,773.62ZM190,788.62a32.32,32.32,0,0,1-3.08-2.34c-4.6-4.45-5.23-10-4.17-15.94.81-4.54,3.14-8.31,5.93-11.85.41-.53,1.09-.9,1-1.71-.11-2-3.11-3.69-4.92-2.73a10.19,10.19,0,0,0-4.29,4.81,26.51,26.51,0,0,0-1.35,21.61,15.53,15.53,0,0,0,7.57,8.43C187.82,789.49,188.93,789.88,190,788.62Zm93.15-56.82a58.8,58.8,0,0,1-14.85.11c2.06,2.83,3.79,5.21,5.53,7.58.44.61,1,.58,1.52.12A41.8,41.8,0,0,0,283.15,731.8ZM175.63,796.91l.06.72c1.83,0,3.67.06,5.5,0,2.07-.1,4.13-.34,6.18-.52.5-.05,1.11-.09,1.21-.64s-.49-1-1-1.25a2.32,2.32,0,0,0-.84-.25A23,23,0,0,0,175.63,796.91Zm138.6-48.1c.34-4.5,1.06-8.63,3.5-12.24.41-.61.77-1.16-.06-1.74s-1.22,0-1.72.5C313.22,738.21,311.69,743.2,314.23,748.81Zm-140,30.82c-2.56-1.2-10.43-.48-13.64,1.26C164.45,782.27,171.44,781.62,174.18,779.63Zm148.54-62.39c-2.24,1.22-2.41,1.37-2.59,3.92a9.14,9.14,0,0,0,3.17,8.16A53.42,53.42,0,0,1,322.72,717.24ZM179.14,788.13c-3-1.33-9.67.06-12,2.23A53.34,53.34,0,0,0,179.14,788.13Zm130.35-22.62a26.88,26.88,0,0,1,2.85-7.69C308.33,758.8,307.8,761.63,309.49,765.51Z"/><path class="cls-66" d="M226.35,422.94c-11.16-13.07-17.64-28.06-20.88-44.52a53,53,0,0,1-.31-21.32,23.07,23.07,0,0,1,3.17-8A13.92,13.92,0,0,1,223.59,343a24.22,24.22,0,0,1,8.09,3.68,44,44,0,0,1,10,9.34,92.09,92.09,0,0,1,20.12,49.23,42.9,42.9,0,0,1-1.69,17.4c-1.63,5.1-4.24,9.46-9.63,11.37a1.57,1.57,0,0,0-1.16,1.79c.17,8.5-8.24,15.58-17,15a31.52,31.52,0,0,1-9.62-1.82,18.4,18.4,0,0,1-2.4-1.18c-.7-.41-1.32-1-1.09-1.92a1.69,1.69,0,0,1,1.86-1.18c2,0,4,0,6,0,1.79,0,3.58.09,5.37.11a11.11,11.11,0,0,0,7.52-3.13c5.13-4.4,1.84-10.8-2.19-12.44-3.64-1.47-10.06-1-12.34,3a5.49,5.49,0,0,1-.95,1.15c-.88.89-1.88,1.57-3.17.85a2.77,2.77,0,0,1-1.32-3.33,10.91,10.91,0,0,1,4.33-6.57C224.84,423.85,225.53,423.46,226.35,422.94Zm1.71-24.07c-1.9-.88-3.66-1.75-5.47-2.51a7.86,7.86,0,0,1-4.77-6,39.69,39.69,0,0,1-.73-12.44,14.44,14.44,0,0,1,.69-3.18c1.82-5.49,6.56-7.85,12-6a19.72,19.72,0,0,1,6,3.3,34.08,34.08,0,0,1,6.06,6.12,57.42,57.42,0,0,1,11.22,23.76c.21,1-.23,3.13,1.76,2.76,1.82-.33.67-2,.51-3a92,92,0,0,0-15-37.88,48.68,48.68,0,0,0-10.58-11.24,19.46,19.46,0,0,0-8.52-4,7.38,7.38,0,0,0-7.41,2.77,16.82,16.82,0,0,0-3.14,6.69,40.75,40.75,0,0,0-1.06,13.6,86.67,86.67,0,0,0,17,44.49,14.78,14.78,0,0,0,.92,1.17c.34.41.75.66,1.24.2a1,1,0,0,0,.32-1.31c-.31-.51-.67-1-1-1.47a40.55,40.55,0,0,1-3.1-5.08,5.76,5.76,0,0,1,.2-5.95Zm3.57,22.34a1,1,0,0,0,1,.48c5.83-.05,10.68,2,14.21,6.76.63.86,1.3.64,2.09.3a10.14,10.14,0,0,0,5-5.25c1.86-3.87,2.12-8,2.2-12.22,0-1.46-.65-2-2-1.73-.68.12-1.37.2-2.05.36A45.52,45.52,0,0,0,232.42,420C232,420.34,231.62,420.64,231.63,421.21Z"/><path class="cls-66" d="M144.2,396A45.78,45.78,0,0,1,146,381c.26-.85.53-1.71.86-2.53,4.58-11.29,14.65-15.07,25.51-9.58a42.74,42.74,0,0,1,13.24,10.93c9.79,11.59,15.6,25,18.41,39.84a62.43,62.43,0,0,1,.64,21.64,32.79,32.79,0,0,1-3.19,10.19c-4,7.67-11.49,10.84-19.83,8.43a31.59,31.59,0,0,1-12-6.93,68.4,68.4,0,0,1-17-23.14,88.49,88.49,0,0,1-8-26.41C144.34,400.67,144.31,397.9,144.2,396Zm24.13,24.47-7.9-2.75a3.33,3.33,0,0,1-2.47-3.61c.1-3,0-6,.13-8.94a26.08,26.08,0,0,1,3.72-12.44c3.72-6.1,10.14-7.59,16.18-3.81a25.47,25.47,0,0,1,8.51,9,59.72,59.72,0,0,1,7.92,26.3c.27,4.3-.76,3.6,4.19,3.84,1.62.07,1.83-.65,1.64-2A88.27,88.27,0,0,0,198,414.7c-3.37-12.25-8.85-23.39-17.42-32.88a32,32,0,0,0-11.66-8.6c-7.35-3-13.12-.68-16.48,6.48a29.37,29.37,0,0,0-2.66,11.55c-.63,18.73,5.45,35.32,16.27,50.36.21.3.45.68.94.55,2.36-2.11,2.35-2.1,1.08-4.8-.51-1.08-1-2.18-1.44-3.27a10.64,10.64,0,0,1-.17-8.41C167.07,424,167.65,422.33,168.33,420.44Zm28.45,12.64c-10.43.5-18.74,5.16-26.05,12-.73.69-.78,1.24,0,2a31.44,31.44,0,0,0,10.9,7.59c6.32,2.41,11.53.61,15.08-5.16a28,28,0,0,0,3.7-12.42C200.7,433.27,200.4,433,196.78,433.08Z"/><path class="cls-66" d="M161.77,469.61a56.68,56.68,0,0,0,11.56,1.07c24.36.61,47.69-3.91,69.43-15.16,19.24-10,33.43-25,43-44.45.8-1.62.48-2.36-.89-3.39a28,28,0,0,1-6.48-6.95,22.18,22.18,0,0,1-1.28-2.35,1.3,1.3,0,0,1,.29-1.63,1.25,1.25,0,0,1,1.64-.14,17.75,17.75,0,0,1,2.13,1.61c1.87,1.65,3.87,3.11,5.87,4.6a21.46,21.46,0,0,0,12.22,4.12c1,0,2.15-.1,2.33,1.25.15,1.18-.78,1.8-1.7,2.2a9.38,9.38,0,0,1-6.13.58c-1.56-.41-2.25.1-2.86,1.59-6.91,16.83-18.61,29.64-33.55,39.72A127,127,0,0,1,211,471.91a154,154,0,0,1-46.28,2.2c-4.21-.43-8.09-.76-11.57,2.47-1.79,1.65-4.34,2.36-6.75,3a10.09,10.09,0,0,1-3.54.38,1.43,1.43,0,0,1-1.36-1,1.33,1.33,0,0,1,.64-1.53,8.33,8.33,0,0,1,1.29-.75c3.43-1.64,6.39-4,9.46-6.2,4.66-3.34,6.56-8.06,7-13.54,0-.3,0-.6,0-.9.07-1.07-.09-2.4,1.41-2.54,1.32-.12,1.82,1,2.22,2.06a12.66,12.66,0,0,1,.21,8.2C163.24,465.72,162.49,467.56,161.77,469.61Z"/><path class="cls-66" d="M261.69,459.31a9.38,9.38,0,0,1-2.88,4.22c-2.68,2.66-5.46,5.21-8.27,7.72a12.72,12.72,0,0,1-3.23,2.1c-8.88,4-17.81,7.8-27.37,9.89a30.66,30.66,0,0,1-10.07.16,6.62,6.62,0,0,1-1.43-.4c-.36-.13-.77-.26-.8-.76s.42-.86.88-1,1-.22,1.44-.35c8.83-2.29,17.71-4.4,26-8.3,1.52-.72,3.07-1.41,4.52-2.25,6.19-3.57,12.88-6.21,18.71-10.42A2.4,2.4,0,0,1,261.69,459.31Z"/><path class="cls-66" d="M113,453.7c.43-7.85,5-13.2,11.87-16.9a2.91,2.91,0,0,1,.55-.23c1.33-.33,2.9-1.06,3.81.38s-.74,2.17-1.61,3c-3.21,3.1-6.55,6.07-7.84,10.62a12.46,12.46,0,0,0-.14,7,73.07,73.07,0,0,0,2.58,7.6c.37.88.86,2-.26,2.66s-1.89,0-2.72-.56C115.77,464.86,112.89,458.71,113,453.7Z"/><path class="cls-66" d="M54.31,689.54a15.37,15.37,0,0,1,.47-4.65,10.8,10.8,0,0,1,.56-1.69c.39-.84.89-1.67,2-1.41.91.22,1.13,1.05,1.13,1.88a43.64,43.64,0,0,0,.6,5.93c.52,3.95,1.18,7.85,3.23,11.37a2.22,2.22,0,0,1-.45,3.19c-1.16.88-2.32.41-3.26-.41a11.44,11.44,0,0,1-3.59-7A36.2,36.2,0,0,1,54.31,689.54Z"/><path class="cls-66" d="M64.51,684.88a7.76,7.76,0,0,1,.8-3.9,1.24,1.24,0,0,1,2.32.11,8.62,8.62,0,0,1,.47,1.71,49.59,49.59,0,0,0,5.19,13.57c1.12,1.85,1,3.23,0,4s-2.92.41-4-1.36A32,32,0,0,1,64.51,684.88Z"/><path class="cls-66" d="M47.84,694.83c-.12,3.26-.41,6.53,1,9.65a1.94,1.94,0,0,1-.79,2.6,2.3,2.3,0,0,1-2.75-.32A6.49,6.49,0,0,1,43,703a21.77,21.77,0,0,1,1-13.1,9.64,9.64,0,0,1,.69-1.31c.49-.8,1.14-1.5,2.16-1.12.87.32.91,1.2.92,2Z"/></g><path class="cls-63" d="M1107.82,751.38q29.06,0,29.06,18.48a26.72,26.72,0,0,1-4,14.79q-4,6-14.15,9.43t-28.29,3.31h-57.35q1-24.72,1-46.26t-1-46.26h29.95V705h27.14q15.81,0,24.85,2.67t12.88,7.52q3.81,5,3.82,12.62a20.27,20.27,0,0,1-5.48,13.89Q1120.95,747.69,1107.82,751.38Zm-44.73-23.19V740h24.47q7.89,0,11-1.4a5.1,5.1,0,0,0,3.18-5.1q0-2.92-3.31-4.08t-10.83-1.27Zm24.47,45.88a74.08,74.08,0,0,0,10.07-.51,10.34,10.34,0,0,0,5.09-2,5.51,5.51,0,0,0,1.53-4.08q0-3.32-3.69-4.71t-13-1.53h-24.47v12.87Z"/><path class="cls-63" d="M1170.72,774.07q48.42-.26,70.22-1.4a87,87,0,0,0-1.15,10.83q-.12,5.47-.13,13.89h-99q1-24.72,1-46.26t-1-46.26h99v23.06h-68.94v12.24q6.12.12,18.1.13,20.25,0,41.92-.77v21.92q-21.66-.76-41.92-.76-12,0-18.1.12Z"/><path class="cls-63" d="M1319.47,751.38q29.05,0,29,18.48a26.72,26.72,0,0,1-4,14.79q-3.94,6-14.14,9.43t-28.3,3.31h-57.34q1-24.72,1-46.26t-1-46.26h29.94V705h27.15q15.8,0,24.85,2.67t12.87,7.52q3.83,5,3.82,12.62a20.22,20.22,0,0,1-5.48,13.89Q1332.6,747.69,1319.47,751.38Zm-44.74-23.19V740h24.47q7.9,0,11-1.4a5.1,5.1,0,0,0,3.19-5.1q0-2.92-3.32-4.08t-10.83-1.27Zm24.47,45.88a74,74,0,0,0,10.07-.51,10.34,10.34,0,0,0,5.1-2,5.51,5.51,0,0,0,1.53-4.08q0-3.32-3.7-4.71t-13-1.53h-24.47v12.87Z"/><path class="cls-63" d="M1427.66,797.39q-2.42-7.26-6.5-18.22h-40.65l-6.38,18.22h-32l35.68-92.52h46.9l35.94,92.52Zm-13.76-38.11q-4.85-13.38-9.94-26.76l-3.06-8.28q-4.47,11.6-13.13,35Z"/><path class="cls-63" d="M1543.29,773.3a71.92,71.92,0,0,0,12.24,5.61,84.46,84.46,0,0,0-10.07,8.54q-4.34,4.45-9.69,10.58-4.71-3.71-8.15-6.76-11.59,6.51-28.29,6.5a62.57,62.57,0,0,1-20.78-3.18q-8.91-3.2-13.89-8.93a20.62,20.62,0,0,1-4.84-13.5,22.57,22.57,0,0,1,3.57-12.37q3.57-5.6,11.09-10.32a41.58,41.58,0,0,1-7-9.43,21.77,21.77,0,0,1-2.17-9.68,19.77,19.77,0,0,1,4.71-12.62,32.49,32.49,0,0,1,12.62-9.3,40.41,40.41,0,0,1,16.82-3.57,38.44,38.44,0,0,1,16.7,3.69,31,31,0,0,1,12.36,9.82,21.25,21.25,0,0,1,4.71,13.25,19.66,19.66,0,0,1-6.24,14.53q4.71.38,13.76.38a39.32,39.32,0,0,1,4.08,17.08A30.38,30.38,0,0,1,1543.29,773.3Zm-43.2-47.4a7.69,7.69,0,0,0-4.71,1.4,4.35,4.35,0,0,0-1.92,3.69,5.07,5.07,0,0,0,1,3.06,43,43,0,0,0,4.34,4.21c3-1.45,5-2.76,6-4a5.53,5.53,0,0,0,1.54-3.57,4.48,4.48,0,0,0-1.66-3.32A6.55,6.55,0,0,0,1500.09,725.9ZM1522,761.83a18.16,18.16,0,0,0-2.8-9.94q-2.68,1.53-6.25,3.19C1514.58,756.35,1517.59,758.61,1522,761.83Zm-23.7,13.77a42.82,42.82,0,0,0,7-.51q-6.36-4.73-13.89-10.83a12,12,0,0,0-3.56,2.67,4.22,4.22,0,0,0-1,2.68,5,5,0,0,0,2.42,4.46Q1491.67,775.6,1498.31,775.6Z"/><path class="cls-63" d="M1044.31,848.71h54.41v52.76h-22.43l-2.67-22.56q-3.82,12.11-13.64,18t-24,5.86a45.55,45.55,0,0,1-22.94-5.73,40.75,40.75,0,0,1-15.67-16.44q-5.61-10.71-5.61-25,0-22.82,13.64-36.07t42.43-13.25q16.44,0,28.93,5.35a53.38,53.38,0,0,1,21.41,16.57q-5.73,2.92-22.43,11.72l-3.18,1.79a31.39,31.39,0,0,0-11.6-7.39,38.7,38.7,0,0,0-14-2.55q-12.23,0-18.22,6.5a22.13,22.13,0,0,0-6,15.8q0,10.2,6.37,16.44t19.75,6.24a37.41,37.41,0,0,0,11.09-1.65,20,20,0,0,0,9.18-5.74h-24.85Z"/><path class="cls-63" d="M1185.5,901.47q-2.41-7.28-6.5-18.23h-40.65L1132,901.47h-32L1135.67,809h46.9l35.94,92.52Zm-13.76-38.11q-4.85-13.38-9.94-26.76l-3.06-8.28q-4.46,11.59-13.13,35Z"/><path class="cls-63" d="M1340.64,809l9.94,92.52h-33l-2-66-12.75,66H1269.4l-13-65.51-1.91,65.51h-33l9.94-92.52h43.33l11.08,60.27,9.69-60.27Z"/><path class="cls-63" d="M1474.81,809l9.94,92.52h-33l-2-66-12.74,66h-33.39l-13-65.51-1.91,65.51h-33l9.94-92.52h43.33L1420,869.22l9.68-60.27Z"/><path class="cls-63" d="M1596.87,809l-2.43,3.69q-13.64,21.15-23.44,37.47t-16.19,29.82v21.54h-33.26V877.76a211.88,211.88,0,0,0-11.09-19.62q-6.37-10.2-18.09-27.91-9.18-13.51-14-21.28H1514q3.83,7.77,12.49,23.06,8.67,15.56,11.85,21.92,4.45-9.3,12-22.81,8.79-15.79,11.85-22.17Z"/><path class="cls-63" d="M1210,947.12a1.4,1.4,0,1,0,2.75,0v-14c0-4.69-3.6-6.85-8.84-6.85s-8.79,2.16-8.79,6.85v12.64c0,6.25,3.51,8.45,9.6,8.45v3.34c-8.42,0-13.19-3.72-13.19-11.67V932.62c0-6,5.62-9.64,12.38-9.64s12.43,3.64,12.43,9.64v13.91a4.63,4.63,0,0,1-4.94,4.77c-2.5,0-4.57-1.48-4.57-3.8v-.42h-.3c-.71,2.62-2.32,4.18-4.35,4.18-2.62,0-4.31-2.58-4.31-6.76v-9.56c0-3.21,1.86-5.53,4.44-5.53,1.9,0,3.51,1.35,4.22,3.55h.3V929.7H1210Zm-6-14.5c-1.52,0-2.58,1.31-2.58,3.17v8.41c0,1.9,1.06,3.3,2.54,3.3a3.22,3.22,0,0,0,2.83-2.41V934.82A3.05,3.05,0,0,0,1204,932.62Z"/><path class="cls-63" d="M1219.24,920.4h4v11.67h.3a4.82,4.82,0,0,1,4.44-3.21c2.7,0,4.61,2.28,4.61,6V945c0,3.76-1.95,6.3-4.7,6.3a4.76,4.76,0,0,1-4.35-3.21h-.3v2.79h-4Zm4,24.9a3.24,3.24,0,0,0,2.84,2.45c1.43,0,2.49-1.35,2.49-3.21v-9c0-1.86-1.06-3.21-2.49-3.21a3.24,3.24,0,0,0-2.84,2.45Z"/><path class="cls-63" d="M1239.44,944.46c0,2,1.1,3.33,2.71,3.33s2.66-1.35,2.66-3.33v-1.7h4v1.48c0,4.23-2.67,7-6.72,7s-6.68-2.75-6.68-7v-8.37c0-4.27,2.58-7,6.63-7s6.77,2.79,6.77,7v5.2h-9.39Zm0-5.67h5.37v-3.13c0-2-1.1-3.34-2.66-3.34s-2.71,1.31-2.71,3.34Z"/><path class="cls-63" d="M1251.79,920.4h4v11.67h.3a4.81,4.81,0,0,1,4.44-3.21c2.7,0,4.6,2.28,4.6,6V945c0,3.76-1.94,6.3-4.69,6.3a4.76,4.76,0,0,1-4.35-3.21h-.3v2.79h-4Zm4,24.9a3.24,3.24,0,0,0,2.83,2.45c1.44,0,2.5-1.35,2.5-3.21v-9c0-1.86-1.06-3.21-2.5-3.21a3.24,3.24,0,0,0-2.83,2.45Z"/><path class="cls-63" d="M1274.83,932.28c-1.57,0-2.58,1.35-2.58,3.38V938h-4v-2.08c0-4.27,2.54-7,6.55-7s6.64,2.74,6.64,7V950.8h-4v-2.54h-.12a5.33,5.33,0,0,1-4.7,3c-2.74,0-4.56-2.07-4.56-5.11V944.2c0-3.21,2.24-5.11,6.17-5.11h3.21v-3.43C1277.4,933.63,1276.35,932.28,1274.83,932.28Zm2.57,8.92h-1.64c-2.54,0-3.72.89-3.72,2.75v1.39c0,1.69.88,2.71,2.4,2.71a3.11,3.11,0,0,0,3-2.28Z"/><path class="cls-63" d="M1288.18,944.46c0,2,1.1,3.33,2.71,3.33s2.66-1.35,2.66-3.33v-1.7h4v1.48c0,4.23-2.67,7-6.72,7s-6.68-2.75-6.68-7v-8.37c0-4.27,2.58-7,6.63-7s6.77,2.79,6.77,7v5.2h-9.39Zm0-5.67h5.37v-3.13c0-2-1.1-3.34-2.66-3.34s-2.71,1.31-2.71,3.34Z"/><path class="cls-63" d="M1313.84,953.12c0,4.06-2.53,6.6-6.59,6.6s-6.6-2.54-6.6-6.56v-.72h4V953c0,2,1,3.3,2.54,3.3s2.62-1.31,2.62-3.38v-5h-.3c-1,2.15-2.7,3.42-4.52,3.42-2.71,0-4.57-2.58-4.57-6.3V935c0-3.64,1.82-6.13,4.53-6.13,1.81,0,3.55,1.22,4.56,3.42h.3v-3h4Zm-7-20.71c-1.36,0-2.37,1.35-2.37,3.21v8.84c0,1.86,1,3.29,2.37,3.29s2.45-1.14,3-2.7v-10A3.6,3.6,0,0,0,1306.83,932.41Z"/><path class="cls-63" d="M1323.44,932.28c-1.57,0-2.58,1.35-2.58,3.38V938h-4v-2.08c0-4.27,2.54-7,6.56-7s6.63,2.74,6.63,7V950.8h-4v-2.54h-.13a5.33,5.33,0,0,1-4.69,3c-2.75,0-4.57-2.07-4.57-5.11V944.2c0-3.21,2.24-5.11,6.17-5.11H1326v-3.43C1326,933.63,1325,932.28,1323.44,932.28Zm2.58,8.92h-1.65c-2.54,0-3.72.89-3.72,2.75v1.39c0,1.69.89,2.71,2.41,2.71a3.13,3.13,0,0,0,3-2.28Z"/><path class="cls-63" d="M1332.91,929.28h4v3h.3c.89-2.2,2.41-3.42,4.23-3.42s3.33,1.31,4,3.46h.26c.93-2.19,2.62-3.46,4.48-3.46,2.58,0,4.73,2.36,4.73,6.17v15.81h-4V935.58c0-1.86-.93-3.21-2.29-3.21a3.38,3.38,0,0,0-2.74,2.19v16.28h-4V935.58c0-1.86-.93-3.21-2.2-3.21s-2.28,1.09-2.79,2.74v15.73h-4Z"/><path class="cls-63" d="M1357.93,929.28h4v3h.29c.89-2.2,2.41-3.42,4.23-3.42s3.34,1.31,4.06,3.46h.25c.93-2.19,2.62-3.46,4.48-3.46,2.58,0,4.74,2.36,4.74,6.17v15.81h-4V935.58c0-1.86-.93-3.21-2.28-3.21a3.39,3.39,0,0,0-2.75,2.19v16.28h-4V935.58c0-1.86-.93-3.21-2.19-3.21s-2.29,1.09-2.79,2.74v15.73h-4Z"/><path class="cls-63" d="M1396.31,953.12c0,4.06-2.49,6.6-6.59,6.6s-6.59-2.54-6.59-6.56v-.72h4V953c0,2,1.06,3.3,2.58,3.3s2.58-1.31,2.58-3.38v-5h-.3c-1,2.2-2.62,3.42-4.52,3.42-2.54,0-4.57-2.2-4.57-6.17V929.28h4v15.39c0,1.86,1,3.17,2.41,3.17,1.27,0,2.41-1.06,3-2.67V929.28h4Z"/><path class="cls-63" d="M584.65,833.68a18.71,18.71,0,0,1,1.82-8.34,13.64,13.64,0,0,1,5.07-5.71,13.82,13.82,0,0,1,7.42-2,13.27,13.27,0,0,1,10.42,4.46q4,4.45,4,11.86v.38a18.72,18.72,0,0,1-1.76,8.26,13.45,13.45,0,0,1-5,5.7,14,14,0,0,1-7.54,2,13.25,13.25,0,0,1-10.39-4.46q-4-4.46-4-11.8Zm5.42.64a13.44,13.44,0,0,0,2.44,8.42,8.24,8.24,0,0,0,13,0q2.41-3.23,2.42-9a13.47,13.47,0,0,0-2.46-8.41,7.84,7.84,0,0,0-6.55-3.22,7.75,7.75,0,0,0-6.44,3.17Q590.08,828.4,590.07,834.32Z"/><path class="cls-63" d="M622.78,849.74V822.37h-5V818.2h5V815q0-5.07,2.71-7.84c1.81-1.84,4.36-2.77,7.67-2.77a14.21,14.21,0,0,1,3.7.5l-.29,4.34a16,16,0,0,0-2.92-.26,5.26,5.26,0,0,0-4,1.53,6.25,6.25,0,0,0-1.43,4.4v3.34h6.73v4.17h-6.73v27.37Z"/><path class="cls-63" d="M653.24,850.32a13.79,13.79,0,0,1-10.44-4.21q-4-4.22-4-11.27v-1a19,19,0,0,1,1.79-8.38,14,14,0,0,1,5-5.77,12.57,12.57,0,0,1,7-2.08q6.15,0,9.56,4t3.41,11.6v2.24H644.17a11.23,11.23,0,0,0,2.73,7.54,8.58,8.58,0,0,0,6.63,2.87,9.35,9.35,0,0,0,4.84-1.17,12,12,0,0,0,3.47-3.09l3.29,2.57Q661.17,850.32,653.24,850.32Zm-.67-28.27a7.2,7.2,0,0,0-5.48,2.37,11.56,11.56,0,0,0-2.74,6.66h15.8v-.41a10.27,10.27,0,0,0-2.22-6.36A6.76,6.76,0,0,0,652.57,822.05Z"/><path class="cls-63" d="M687,823a15.65,15.65,0,0,0-2.65-.21q-5.31,0-7.2,4.52v22.39h-5.39V818.2H677l.08,3.64a8.39,8.39,0,0,1,7.52-4.22,5.54,5.54,0,0,1,2.39.4Z"/><path class="cls-63" d="M704.51,850.32a13.77,13.77,0,0,1-10.43-4.21q-4-4.22-4-11.27v-1a18.86,18.86,0,0,1,1.79-8.38,14,14,0,0,1,5-5.77,12.62,12.62,0,0,1,7-2.08q6.15,0,9.56,4t3.42,11.6v2.24H695.45a11.27,11.27,0,0,0,2.72,7.54,8.59,8.59,0,0,0,6.64,2.87,9.4,9.4,0,0,0,4.84-1.17,11.92,11.92,0,0,0,3.46-3.09l3.3,2.57Q712.44,850.32,704.51,850.32Zm-.67-28.27a7.22,7.22,0,0,0-5.48,2.37,11.63,11.63,0,0,0-2.74,6.66h15.8v-.41a10.2,10.2,0,0,0-2.21-6.36A6.76,6.76,0,0,0,703.84,822.05Z"/><path class="cls-63" d="M735.7,845.92a7.76,7.76,0,0,0,5-1.75,6.14,6.14,0,0,0,2.39-4.37h5.1a9.77,9.77,0,0,1-1.87,5.16,12.18,12.18,0,0,1-4.59,3.9,13.14,13.14,0,0,1-6.08,1.46,13,13,0,0,1-10.24-4.3c-2.54-2.86-3.81-6.79-3.81-11.76v-.9a19.09,19.09,0,0,1,1.69-8.19,12.84,12.84,0,0,1,4.86-5.57,13.8,13.8,0,0,1,7.48-2,12.67,12.67,0,0,1,8.81,3.17,11.39,11.39,0,0,1,3.75,8.25h-5.1a7.47,7.47,0,0,0-2.32-5,7.2,7.2,0,0,0-5.14-2,7.52,7.52,0,0,0-6.37,3q-2.26,3-2.26,8.55v1c0,3.64.74,6.43,2.24,8.4A7.6,7.6,0,0,0,735.7,845.92Z"/><path class="cls-63" d="M754.33,809.83a3.23,3.23,0,0,1,.8-2.21,3.58,3.58,0,0,1,4.77,0,3.2,3.2,0,0,1,.82,2.21,3.2,3.2,0,1,1-6.39,0Zm5.83,39.91h-5.39V818.2h5.39Z"/><path class="cls-63" d="M773.86,818.2l.15,3.5a11.64,11.64,0,0,1,9.35-4.08q6.63,0,9,5.07a11.9,11.9,0,0,1,4.1-3.67,12,12,0,0,1,6-1.4q10.38,0,10.55,11v21.14h-5.39V828.93a7.24,7.24,0,0,0-1.55-5.06q-1.54-1.68-5.19-1.68a7.16,7.16,0,0,0-5,1.79,7.29,7.29,0,0,0-2.3,4.83v20.93h-5.42V829.07q0-6.87-6.74-6.88-5.31,0-7.26,4.52v23h-5.39V818.2Z"/><path class="cls-63" d="M834.2,850.32a13.77,13.77,0,0,1-10.43-4.21q-4-4.22-4-11.27v-1a18.86,18.86,0,0,1,1.8-8.38,13.91,13.91,0,0,1,5-5.77,12.62,12.62,0,0,1,7-2.08q6.15,0,9.56,4t3.41,11.6v2.24H825.14a11.17,11.17,0,0,0,2.72,7.54,8.58,8.58,0,0,0,6.63,2.87,9.35,9.35,0,0,0,4.84-1.17,12,12,0,0,0,3.47-3.09l3.3,2.57Q842.13,850.32,834.2,850.32Zm-.67-28.27a7.22,7.22,0,0,0-5.48,2.37,11.56,11.56,0,0,0-2.74,6.66h15.8v-.41a10.26,10.26,0,0,0-2.21-6.36A6.78,6.78,0,0,0,833.53,822.05Z"/><path class="cls-63" d="M857.84,818.2l.18,4a11.48,11.48,0,0,1,9.44-4.54q10,0,10.09,11.28v20.84h-5.4V828.87a7.28,7.28,0,0,0-1.55-5,6.3,6.3,0,0,0-4.77-1.63,7.81,7.81,0,0,0-4.61,1.4,9.54,9.54,0,0,0-3.09,3.67v22.48h-5.39V818.2Z"/><path class="cls-63" d="M893,810.56v7.64h5.89v4.17H893V842a4.42,4.42,0,0,0,.78,2.85,3.34,3.34,0,0,0,2.69,1,12.7,12.7,0,0,0,2.56-.36v4.35a15.59,15.59,0,0,1-4.14.58,6.73,6.73,0,0,1-5.45-2.18,9.43,9.43,0,0,1-1.84-6.21V822.37h-5.74V818.2h5.74v-7.64Z"/><path class="cls-63" d="M903.17,833.68a18.71,18.71,0,0,1,1.82-8.34,13.64,13.64,0,0,1,5.07-5.71,13.82,13.82,0,0,1,7.42-2,13.27,13.27,0,0,1,10.42,4.46q4,4.45,4,11.86v.38a18.86,18.86,0,0,1-1.76,8.26,13.45,13.45,0,0,1-5,5.7,14,14,0,0,1-7.54,2,13.25,13.25,0,0,1-10.39-4.46q-4-4.46-4-11.8Zm5.42.64a13.44,13.44,0,0,0,2.44,8.42,8.24,8.24,0,0,0,13,0q2.41-3.23,2.42-9a13.47,13.47,0,0,0-2.46-8.41,7.84,7.84,0,0,0-6.55-3.22,7.75,7.75,0,0,0-6.44,3.17Q908.6,828.4,908.59,834.32Z"/></g></g></svg>