<svg width="21" height="20" viewBox="0 0 21 20" fill="none" xmlns="http://www.w3.org/2000/svg">
<path d="M10.5008 7.5C9.8378 7.5 9.20192 7.76339 8.73308 8.23223C8.26424 8.70107 8.00084 9.33696 8.00084 10C8.00084 10.663 8.26424 11.2989 8.73308 11.7678C9.20192 12.2366 9.8378 12.5 10.5008 12.5C11.1639 12.5 11.7998 12.2366 12.2686 11.7678C12.7375 11.2989 13.0008 10.663 13.0008 10C13.0008 9.33696 12.7375 8.70107 12.2686 8.23223C11.7998 7.76339 11.1639 7.5 10.5008 7.5ZM10.5008 5.83333C11.6059 5.83333 12.6657 6.27232 13.4471 7.05372C14.2285 7.83512 14.6675 8.89493 14.6675 10C14.6675 11.1051 14.2285 12.1649 13.4471 12.9463C12.6657 13.7277 11.6059 14.1667 10.5008 14.1667C9.39578 14.1667 8.33597 13.7277 7.55457 12.9463C6.77316 12.1649 6.33418 11.1051 6.33418 10C6.33418 8.89493 6.77316 7.83512 7.55457 7.05372C8.33597 6.27232 9.39578 5.83333 10.5008 5.83333ZM15.9175 5.625C15.9175 5.90127 15.8078 6.16622 15.6124 6.36157C15.4171 6.55692 15.1521 6.66667 14.8758 6.66667C14.5996 6.66667 14.3346 6.55692 14.1393 6.36157C13.9439 6.16622 13.8342 5.90127 13.8342 5.625C13.8342 5.34873 13.9439 5.08378 14.1393 4.88843C14.3346 4.69308 14.5996 4.58333 14.8758 4.58333C15.1521 4.58333 15.4171 4.69308 15.6124 4.88843C15.8078 5.08378 15.9175 5.34873 15.9175 5.625ZM10.5008 3.33333C8.43918 3.33333 8.10251 3.33917 7.14334 3.38167C6.49001 3.4125 6.05168 3.5 5.64501 3.65833C5.30469 3.78328 4.99702 3.98355 4.74501 4.24417C4.48418 4.49617 4.28364 4.80382 4.15834 5.14417C4.00001 5.5525 3.91251 5.99 3.88251 6.6425C3.83918 7.5625 3.83334 7.88417 3.83334 10C3.83334 12.0625 3.83918 12.3983 3.88168 13.3575C3.91251 14.01 4.00001 14.4492 4.15751 14.855C4.29918 15.2175 4.46584 15.4783 4.74251 15.755C5.02334 16.035 5.28418 16.2025 5.64251 16.3408C6.05418 16.5 6.49251 16.5883 7.14251 16.6183C8.06251 16.6617 8.38418 16.6667 10.5 16.6667C12.5625 16.6667 12.8983 16.6608 13.8575 16.6183C14.5092 16.5875 14.9475 16.5 15.355 16.3425C15.695 16.2169 16.0026 16.0168 16.255 15.7567C16.5358 15.4767 16.7033 15.2158 16.8417 14.8567C17 14.4467 17.0883 14.0083 17.1183 13.3567C17.1617 12.4375 17.1667 12.115 17.1667 10C17.1667 7.93833 17.1608 7.60167 17.1183 6.6425C17.0875 5.99083 16.9992 5.55083 16.8417 5.14417C16.7161 4.80418 16.5159 4.49665 16.2558 4.24417C16.004 3.9832 15.6963 3.78264 15.3558 3.6575C14.9475 3.49917 14.5092 3.41167 13.8575 3.38167C12.9383 3.33833 12.6175 3.33333 10.5008 3.33333ZM10.5008 1.66667C12.765 1.66667 13.0475 1.675 13.9367 1.71667C14.8233 1.75833 15.4283 1.8975 15.9592 2.10417C16.5092 2.31583 16.9725 2.6025 17.4358 3.065C17.8596 3.48158 18.1875 3.98549 18.3967 4.54167C18.6025 5.0725 18.7425 5.6775 18.7842 6.565C18.8233 7.45333 18.8342 7.73583 18.8342 10C18.8342 12.2642 18.8258 12.5467 18.7842 13.435C18.7425 14.3225 18.6025 14.9267 18.3967 15.4583C18.1881 16.0148 17.8601 16.5188 17.4358 16.935C17.0191 17.3586 16.5153 17.6865 15.9592 17.8958C15.4283 18.1017 14.8233 18.2417 13.9367 18.2833C13.0475 18.3225 12.765 18.3333 10.5008 18.3333C8.23668 18.3333 7.95418 18.325 7.06501 18.2833C6.17834 18.2417 5.57418 18.1017 5.04251 17.8958C4.48612 17.6871 3.98212 17.3591 3.56584 16.935C3.14204 16.5185 2.81414 16.0145 2.60501 15.4583C2.39834 14.9275 2.25918 14.3225 2.21751 13.435C2.17751 12.5467 2.16751 12.2642 2.16751 10C2.16751 7.73583 2.17584 7.45333 2.21751 6.565C2.25918 5.67667 2.39834 5.07333 2.60501 4.54167C2.81354 3.98515 3.14151 3.4811 3.56584 3.065C3.98224 2.64103 4.4862 2.31311 5.04251 2.10417C5.57334 1.8975 6.17751 1.75833 7.06501 1.71667C7.95418 1.6775 8.23668 1.66667 10.5008 1.66667Z" fill="#F2E8FC"/>
</svg>
