<svg width="21" height="20" viewBox="0 0 21 20" fill="none" xmlns="http://www.w3.org/2000/svg">
<g clip-path="url(#clip0_733_5291)">
<path d="M19.804 2L20.4707 1.956C20.462 1.82512 20.415 1.6997 20.3354 1.59544C20.2558 1.49119 20.1472 1.41273 20.0232 1.36988C19.8993 1.32704 19.7654 1.32172 19.6384 1.35459C19.5114 1.38746 19.397 1.45705 19.3094 1.55467L19.804 2ZM19.14 5.94533C19.14 5.76852 19.0698 5.59895 18.9448 5.47393C18.8197 5.3489 18.6502 5.27867 18.4734 5.27867C18.2965 5.27867 18.127 5.3489 18.002 5.47393C17.8769 5.59895 17.8067 5.76852 17.8067 5.94533H19.14ZM1.16669 16.6667V16C1.02354 15.9998 0.88414 16.0457 0.769105 16.1309C0.654069 16.2161 0.569511 16.3361 0.527939 16.4731C0.486367 16.61 0.489989 16.7568 0.53827 16.8915C0.58655 17.0263 0.676924 17.1419 0.796024 17.2213L1.16669 16.6667ZM2.49736 2L3.12269 1.76667C3.07725 1.64494 2.99723 1.53915 2.89246 1.4623C2.7877 1.38544 2.66277 1.34088 2.53302 1.33408C2.40326 1.32728 2.27435 1.35854 2.16213 1.42403C2.04991 1.48951 1.95927 1.58636 1.90136 1.70267L2.49736 2ZM7.82269 14L8.29469 14.4707C8.37477 14.3903 8.43303 14.2909 8.46395 14.1818C8.49488 14.0726 8.49744 13.9574 8.47141 13.847C8.44538 13.7366 8.39161 13.6347 8.31519 13.5509C8.23877 13.467 8.14222 13.4041 8.03469 13.368L7.82269 14ZM17.4547 3.29733L16.9614 3.74533L17.2014 4.01067L17.5547 3.95733L17.4547 3.29733ZM19.14 2.044C19.208 3.08133 19.144 3.71067 18.976 4.18533C18.8134 4.64533 18.528 5.024 18.012 5.51867L18.9347 6.48133C19.5187 5.92133 19.9694 5.372 20.2334 4.63067C20.4907 3.90267 20.544 3.06 20.4707 1.956L19.14 2.044ZM19.14 6.916V5.94533H17.8067V6.91733H19.14V6.916ZM9.82002 6.05467V7.33333H11.1534V6.05467H9.82002ZM9.82002 7.33333V8H11.1534V7.33333H9.82002ZM14.5334 1.33333C13.9137 1.33368 13.3002 1.45608 12.7278 1.69354C12.1554 1.931 11.6355 2.27887 11.1975 2.71728C10.7596 3.1557 10.4123 3.67608 10.1755 4.24871C9.93871 4.82134 9.81701 5.435 9.81736 6.05467H11.1507C11.1503 5.60999 11.2376 5.16959 11.4075 4.75864C11.5774 4.3477 11.8266 3.97424 12.1408 3.65962C12.4551 3.345 12.8282 3.09537 13.239 2.925C13.6497 2.75462 14.09 2.66684 14.5347 2.66667V1.33333H14.5334ZM17.8054 6.916C17.8067 12.6707 13.1494 17.3333 7.40669 17.3333V18.6667C13.8867 18.6667 19.14 13.4053 19.14 6.916H17.8054ZM1.87336 2.23333C2.59869 4.16933 5.31869 8 10.4867 8V6.66667C6.06536 6.66667 3.72802 3.38667 3.12136 1.76667L1.87336 2.23333ZM1.90136 1.70267C0.505357 4.49733 0.29069 7.20933 1.30536 9.51867C2.31736 11.8213 4.49469 13.592 7.61202 14.632L8.03469 13.368C5.16136 12.408 3.34402 10.8453 2.52536 8.98133C1.70936 7.124 1.82802 4.83467 3.09469 2.29733L1.90136 1.70267ZM7.35069 13.5293C6.54802 14.3333 4.13469 16 1.16669 16V17.3333C4.58802 17.3333 7.32269 15.4453 8.29469 14.4707L7.35069 13.5293ZM17.9494 2.85067C17.5183 2.3726 16.9915 1.99048 16.4033 1.72909C15.815 1.46769 15.1784 1.33286 14.5347 1.33333V2.66667C15.496 2.66667 16.3614 3.08133 16.9614 3.74533L17.9494 2.85067ZM17.5547 3.95733C18.6168 3.78382 19.5867 3.24989 20.3014 2.44533L19.3094 1.55467C18.801 2.12899 18.1111 2.5116 17.3547 2.63867L17.5547 3.95733ZM0.796024 17.2213C2.98402 18.68 5.27736 18.6667 7.40669 18.6667V17.3333C5.23336 17.3333 3.34269 17.3187 1.53736 16.112L0.796024 17.2213Z" fill="#F2E8FC"/>
</g>
<defs>
<clipPath id="clip0_733_5291">
<rect width="20" height="20" fill="white" transform="translate(0.5)"/>
</clipPath>
</defs>
</svg>
