<svg width="14" height="19" viewBox="0 0 14 19" fill="none" xmlns="http://www.w3.org/2000/svg">
<path fill-rule="evenodd" clip-rule="evenodd" d="M2.5 0.780029C1.90326 0.780029 1.33097 1.01708 0.90901 1.43904C0.487053 1.861 0.25 2.43329 0.25 3.03003V18.2175C0.249929 18.3152 0.275295 18.4112 0.323603 18.4961C0.37191 18.581 0.441494 18.6519 0.525503 18.7017C0.609513 18.7516 0.705053 18.7787 0.802718 18.7804C0.900384 18.7821 0.996808 18.7583 1.0825 18.7114L7 15.4827L12.9175 18.7114C13.0032 18.7583 13.0996 18.7821 13.1973 18.7804C13.2949 18.7787 13.3905 18.7516 13.4745 18.7017C13.5585 18.6519 13.6281 18.581 13.6764 18.4961C13.7247 18.4112 13.7501 18.3152 13.75 18.2175V3.03003C13.75 2.43329 13.5129 1.861 13.091 1.43904C12.669 1.01708 12.0967 0.780029 11.5 0.780029L2.5 0.780029ZM5.71075 6.56928C5.65845 6.51698 5.59636 6.47549 5.52803 6.44719C5.4597 6.41889 5.38646 6.40432 5.3125 6.40432C5.23854 6.40432 5.1653 6.41889 5.09697 6.44719C5.02864 6.47549 4.96655 6.51698 4.91425 6.56928C4.86195 6.62158 4.82047 6.68367 4.79216 6.752C4.76386 6.82033 4.74929 6.89357 4.74929 6.96753C4.74929 7.04149 4.76386 7.11473 4.79216 7.18306C4.82047 7.25139 4.86195 7.31348 4.91425 7.36578L6.20463 8.65503L4.91425 9.94428C4.86195 9.99658 4.82047 10.0587 4.79216 10.127C4.76386 10.1953 4.74929 10.2686 4.74929 10.3425C4.74929 10.4165 4.76386 10.4897 4.79216 10.5581C4.82047 10.6264 4.86195 10.6885 4.91425 10.7408C4.96655 10.7931 5.02864 10.8346 5.09697 10.8629C5.1653 10.8912 5.23854 10.9057 5.3125 10.9057C5.38646 10.9057 5.4597 10.8912 5.52803 10.8629C5.59636 10.8346 5.65845 10.7931 5.71075 10.7408L7 9.4504L8.28925 10.7408C8.39487 10.8464 8.53813 10.9057 8.6875 10.9057C8.83687 10.9057 8.98013 10.8464 9.08575 10.7408C9.19137 10.6352 9.25071 10.4919 9.25071 10.3425C9.25071 10.1932 9.19137 10.0499 9.08575 9.94428L7.79537 8.65503L9.08575 7.36578C9.19137 7.26016 9.25071 7.1169 9.25071 6.96753C9.25071 6.81816 9.19137 6.6749 9.08575 6.56928C8.98013 6.46366 8.83687 6.40432 8.6875 6.40432C8.53813 6.40432 8.39487 6.46366 8.28925 6.56928L7 7.85965L5.71075 6.56928Z" fill="#F2E8FC"/>
</svg>
