<svg width="24" height="25" viewBox="0 0 24 25" fill="none" xmlns="http://www.w3.org/2000/svg">
<g clip-path="url(#clip0_345_4970)">
<path fill-rule="evenodd" clip-rule="evenodd" d="M12 23.39C14.7848 23.39 17.4555 22.2838 19.4246 20.3146C21.3938 18.3455 22.5 15.6748 22.5 12.89C22.5 10.1052 21.3938 7.43453 19.4246 5.46539C17.4555 3.49626 14.7848 2.39001 12 2.39001C9.21523 2.39001 6.54451 3.49626 4.57538 5.46539C2.60625 7.43453 1.5 10.1052 1.5 12.89C1.5 15.6748 2.60625 18.3455 4.57538 20.3146C6.54451 22.2838 9.21523 23.39 12 23.39ZM12 24.89C15.1826 24.89 18.2348 23.6257 20.4853 21.3753C22.7357 19.1249 24 16.0726 24 12.89C24 9.70742 22.7357 6.65517 20.4853 4.40473C18.2348 2.1543 15.1826 0.890015 12 0.890015C8.8174 0.890015 5.76516 2.1543 3.51472 4.40473C1.26428 6.65517 0 9.70742 0 12.89C0 16.0726 1.26428 19.1249 3.51472 21.3753C5.76516 23.6257 8.8174 24.89 12 24.89Z" fill="#FFA208"/>
<path d="M13.3949 10.7719L9.95993 11.2024L9.83693 11.7724L10.5119 11.8969C10.9529 12.0019 11.0399 12.1609 10.9439 12.6004L9.83693 17.8024C9.54593 19.1479 9.99443 19.7809 11.0489 19.7809C11.8664 19.7809 12.8159 19.4029 13.2464 18.8839L13.3784 18.2599C13.0784 18.5239 12.6404 18.6289 12.3494 18.6289C11.9369 18.6289 11.7869 18.3394 11.8934 17.8294L13.3949 10.7719Z" fill="#FFA208"/>
<path d="M12 9.14001C12.8284 9.14001 13.5 8.46844 13.5 7.64001C13.5 6.81159 12.8284 6.14001 12 6.14001C11.1716 6.14001 10.5 6.81159 10.5 7.64001C10.5 8.46844 11.1716 9.14001 12 9.14001Z" fill="#FFA208"/>
</g>
<defs>
<clipPath id="clip0_345_4970">
<rect width="24" height="24" fill="white" transform="translate(0 0.890015)"/>
</clipPath>
</defs>
</svg>
