<svg width="14" height="19" viewBox="0 0 14 19" fill="none" xmlns="http://www.w3.org/2000/svg">
<path fill-rule="evenodd" clip-rule="evenodd" d="M2.5 0.780029C1.90326 0.780029 1.33097 1.01708 0.90901 1.43904C0.487053 1.861 0.25 2.43329 0.25 3.03003V18.2175C0.249929 18.3152 0.275295 18.4112 0.323603 18.4961C0.37191 18.581 0.441494 18.6519 0.525503 18.7017C0.609513 18.7516 0.705053 18.7787 0.802718 18.7804C0.900384 18.7821 0.996808 18.7583 1.0825 18.7114L7 15.4827L12.9175 18.7114C13.0032 18.7583 13.0996 18.7821 13.1973 18.7804C13.2949 18.7787 13.3905 18.7516 13.4745 18.7017C13.5585 18.6519 13.6281 18.581 13.6764 18.4961C13.7247 18.4112 13.7501 18.3152 13.75 18.2175V3.03003C13.75 2.43329 13.5129 1.861 13.091 1.43904C12.669 1.01708 12.0967 0.780029 11.5 0.780029L2.5 0.780029ZM4.75 7.53003C4.60082 7.53003 4.45774 7.58929 4.35225 7.69478C4.24676 7.80027 4.1875 7.94335 4.1875 8.09253C4.1875 8.24171 4.24676 8.38479 4.35225 8.49028C4.45774 8.59577 4.60082 8.65503 4.75 8.65503H9.25C9.39918 8.65503 9.54226 8.59577 9.64775 8.49028C9.75324 8.38479 9.8125 8.24171 9.8125 8.09253C9.8125 7.94335 9.75324 7.80027 9.64775 7.69478C9.54226 7.58929 9.39918 7.53003 9.25 7.53003H4.75Z" fill="#F2E8FC"/>
</svg>
